G04 #@! TF.FileFunction,Soldermask,Bot*
%FSLAX46Y46*%
G04 Gerber Fmt 4.6, Leading zero omitted, Abs format (unit mm)*
G04 Created by KiCad (PCBNEW 4.0.1-stable) date 2/13/2016 10:11:50 PM*
%MOMM*%
G01*
G04 APERTURE LIST*
%ADD10C,0.100000*%
%ADD11R,1.650000X1.900000*%
%ADD12R,1.900000X1.650000*%
%ADD13R,1.797000X1.289000*%
%ADD14O,2.299920X0.806400*%
%ADD15O,0.806400X2.299920*%
%ADD16R,2.449780X4.400500*%
%ADD17R,2.449780X3.900120*%
%ADD18O,0.900400X2.900000*%
%ADD19C,1.300000*%
%ADD20R,1.700000X1.900000*%
%ADD21R,1.900000X1.700000*%
%ADD22R,1.500000X2.000000*%
%ADD23C,4.499560*%
%ADD24C,3.000960*%
%ADD25C,2.099260*%
%ADD26R,1.550620X1.799540*%
%ADD27C,3.448000*%
%ADD28C,4.380200*%
%ADD29O,10.399980X5.401260*%
G04 APERTURE END LIST*
D10*
D11*
X107823000Y-93579000D03*
X107823000Y-91079000D03*
X107823000Y-96159000D03*
X107823000Y-98659000D03*
D12*
X98318000Y-86614000D03*
X100818000Y-86614000D03*
X80538000Y-97409000D03*
X83038000Y-97409000D03*
X83038000Y-89789000D03*
X80538000Y-89789000D03*
X101493000Y-98679000D03*
X103993000Y-98679000D03*
X101493000Y-91059000D03*
X103993000Y-91059000D03*
X-5441000Y-9779000D03*
X-2941000Y-9779000D03*
D13*
X3810000Y-5397500D03*
X3810000Y-7302500D03*
X27940000Y-5397500D03*
X27940000Y-7302500D03*
X46990000Y-5397500D03*
X46990000Y-7302500D03*
X66040000Y-5397500D03*
X66040000Y-7302500D03*
X85090000Y-5397500D03*
X85090000Y-7302500D03*
X104140000Y-5397500D03*
X104140000Y-7302500D03*
X123190000Y-5397500D03*
X123190000Y-7302500D03*
X142240000Y-5397500D03*
X142240000Y-7302500D03*
X161290000Y-5397500D03*
X161290000Y-7302500D03*
X180340000Y-5397500D03*
X180340000Y-7302500D03*
X199390000Y-5397500D03*
X199390000Y-7302500D03*
X218440000Y-5397500D03*
X218440000Y-7302500D03*
X237490000Y-5397500D03*
X237490000Y-7302500D03*
X256540000Y-5397500D03*
X256540000Y-7302500D03*
X275590000Y-5397500D03*
X275590000Y-7302500D03*
X294640000Y-5397500D03*
X294640000Y-7302500D03*
X8890000Y-24447500D03*
X8890000Y-26352500D03*
X27940000Y-24447500D03*
X27940000Y-26352500D03*
X46990000Y-24447500D03*
X46990000Y-26352500D03*
X66040000Y-24447500D03*
X66040000Y-26352500D03*
X85090000Y-24447500D03*
X85090000Y-26352500D03*
X104140000Y-24447500D03*
X104140000Y-26352500D03*
X123190000Y-24447500D03*
X123190000Y-26352500D03*
X142240000Y-24447500D03*
X142240000Y-26352500D03*
X161290000Y-24447500D03*
X161290000Y-26352500D03*
X180340000Y-24447500D03*
X180340000Y-26352500D03*
X199390000Y-24447500D03*
X199390000Y-26352500D03*
X218440000Y-24447500D03*
X218440000Y-26352500D03*
X237490000Y-24447500D03*
X237490000Y-26352500D03*
X264160000Y-24447500D03*
X264160000Y-26352500D03*
X294640000Y-24447500D03*
X294640000Y-26352500D03*
X13970000Y-43497500D03*
X13970000Y-45402500D03*
X38100000Y-43497500D03*
X38100000Y-45402500D03*
X55880000Y-43497500D03*
X55880000Y-45402500D03*
X74930000Y-43497500D03*
X74930000Y-45402500D03*
X93980000Y-43497500D03*
X93980000Y-45402500D03*
X113030000Y-43497500D03*
X113030000Y-45402500D03*
X132080000Y-43497500D03*
X132080000Y-45402500D03*
X151130000Y-43497500D03*
X151130000Y-45402500D03*
X170180000Y-43497500D03*
X170180000Y-45402500D03*
X189230000Y-43497500D03*
X189230000Y-45402500D03*
X208280000Y-43497500D03*
X208280000Y-45402500D03*
X227330000Y-43497500D03*
X227330000Y-45402500D03*
X246380000Y-43497500D03*
X246380000Y-45402500D03*
X270510000Y-43497500D03*
X270510000Y-45402500D03*
X294640000Y-43497500D03*
X294640000Y-45402500D03*
X15240000Y-62547500D03*
X15240000Y-64452500D03*
X41910000Y-62547500D03*
X41910000Y-64452500D03*
X60960000Y-62547500D03*
X60960000Y-64452500D03*
X80010000Y-62547500D03*
X80010000Y-64452500D03*
X99060000Y-62547500D03*
X99060000Y-64452500D03*
X118110000Y-62547500D03*
X118110000Y-64452500D03*
X137160000Y-62547500D03*
X137160000Y-64452500D03*
X156210000Y-62547500D03*
X156210000Y-64452500D03*
X175260000Y-62547500D03*
X175260000Y-64452500D03*
X194310000Y-62547500D03*
X194310000Y-64452500D03*
X213360000Y-62547500D03*
X213360000Y-64452500D03*
X232410000Y-62547500D03*
X232410000Y-64452500D03*
X261620000Y-62547500D03*
X261620000Y-64452500D03*
X294640000Y-62547500D03*
X294640000Y-64452500D03*
X19050000Y-81597500D03*
X19050000Y-83502500D03*
X52070000Y-81597500D03*
X52070000Y-83502500D03*
X71120000Y-80327500D03*
X71120000Y-82232500D03*
X90170000Y-81597500D03*
X90170000Y-83502500D03*
X109220000Y-81597500D03*
X109220000Y-83502500D03*
X128270000Y-81597500D03*
X128270000Y-83502500D03*
X147320000Y-81597500D03*
X147320000Y-83502500D03*
X166370000Y-81597500D03*
X166370000Y-83502500D03*
X185420000Y-81597500D03*
X185420000Y-83502500D03*
X204470000Y-81597500D03*
X204470000Y-83502500D03*
X223520000Y-81597500D03*
X223520000Y-83502500D03*
X250190000Y-81597500D03*
X250190000Y-83502500D03*
X275590000Y-81597500D03*
X275590000Y-83502500D03*
X294640000Y-81597500D03*
X294640000Y-83502500D03*
X11430000Y-100647500D03*
X11430000Y-102552500D03*
X35560000Y-100647500D03*
X35560000Y-102552500D03*
X59690000Y-100647500D03*
X59690000Y-102552500D03*
X130810000Y-100647500D03*
X130810000Y-102552500D03*
X199390000Y-100647500D03*
X199390000Y-102552500D03*
X218440000Y-100647500D03*
X218440000Y-102552500D03*
X237490000Y-100647500D03*
X237490000Y-102552500D03*
X256540000Y-100647500D03*
X256540000Y-102552500D03*
X275590000Y-100647500D03*
X275590000Y-102552500D03*
X294640000Y-100647500D03*
X294640000Y-102552500D03*
D14*
X86868000Y-93599000D03*
X86868000Y-92798900D03*
X86868000Y-91998800D03*
X86868000Y-91198700D03*
X86868000Y-90398600D03*
X86868000Y-89598500D03*
X86868000Y-94399100D03*
X86868000Y-95199200D03*
X86868000Y-95999300D03*
X86868000Y-96799400D03*
X86868000Y-97599500D03*
X98298000Y-93599000D03*
X98298000Y-92798900D03*
X98298000Y-91998800D03*
X98298000Y-91198700D03*
X98298000Y-90398600D03*
X98298000Y-89598500D03*
X98298000Y-94399100D03*
X98298000Y-95199200D03*
X98298000Y-95999300D03*
X98298000Y-96799400D03*
X98298000Y-97599500D03*
D15*
X92583000Y-87884000D03*
X92583000Y-99314000D03*
X93383100Y-87884000D03*
X93383100Y-99314000D03*
X94183200Y-99314000D03*
X94183200Y-87884000D03*
X94983300Y-87884000D03*
X94983300Y-99314000D03*
X95783400Y-99314000D03*
X95783400Y-87884000D03*
X96583500Y-87884000D03*
X96583500Y-99314000D03*
X91782900Y-99314000D03*
X91782900Y-87884000D03*
X90982800Y-87884000D03*
X90982800Y-99314000D03*
X90182700Y-99314000D03*
X90182700Y-87884000D03*
X89382600Y-87884000D03*
X89382600Y-99314000D03*
X88582500Y-99314000D03*
X88582500Y-87884000D03*
D16*
X13977560Y7229770D03*
X4127440Y7229770D03*
D17*
X4127440Y2977810D03*
X13977560Y2977810D03*
D18*
X9052500Y2977850D03*
X8252400Y2977850D03*
X7452300Y2977850D03*
X9852600Y2977850D03*
X10652700Y2977850D03*
D19*
X6852500Y5328750D03*
X11252500Y5328750D03*
D20*
X7112000Y-1190000D03*
X7112000Y-3890000D03*
X10160000Y-3890000D03*
X10160000Y-1190000D03*
D21*
X85805000Y-102489000D03*
X83105000Y-102489000D03*
X105203000Y-87884000D03*
X107903000Y-87884000D03*
D22*
X117563900Y-91181000D03*
X115863000Y-91181000D03*
X117563900Y-87381000D03*
X115862100Y-87381000D03*
D23*
X0Y0D03*
D24*
X-2540000Y-5080000D03*
X3810000Y-2540000D03*
D25*
X5080000Y0D03*
X-5080000Y0D03*
D23*
X19050000Y0D03*
D24*
X16510000Y-5080000D03*
X22860000Y-2540000D03*
D25*
X24130000Y0D03*
X13970000Y0D03*
D23*
X38100000Y0D03*
D24*
X35560000Y-5080000D03*
X41910000Y-2540000D03*
D25*
X43180000Y0D03*
X33020000Y0D03*
D23*
X57150000Y0D03*
D24*
X54610000Y-5080000D03*
X60960000Y-2540000D03*
D25*
X62230000Y0D03*
X52070000Y0D03*
D23*
X76200000Y0D03*
D24*
X73660000Y-5080000D03*
X80010000Y-2540000D03*
D25*
X81280000Y0D03*
X71120000Y0D03*
D23*
X95250000Y0D03*
D24*
X92710000Y-5080000D03*
X99060000Y-2540000D03*
D25*
X100330000Y0D03*
X90170000Y0D03*
D23*
X114300000Y0D03*
D24*
X111760000Y-5080000D03*
X118110000Y-2540000D03*
D25*
X119380000Y0D03*
X109220000Y0D03*
D23*
X133350000Y0D03*
D24*
X130810000Y-5080000D03*
X137160000Y-2540000D03*
D25*
X138430000Y0D03*
X128270000Y0D03*
D23*
X152400000Y0D03*
D24*
X149860000Y-5080000D03*
X156210000Y-2540000D03*
D25*
X157480000Y0D03*
X147320000Y0D03*
D23*
X171450000Y0D03*
D24*
X168910000Y-5080000D03*
X175260000Y-2540000D03*
D25*
X176530000Y0D03*
X166370000Y0D03*
D23*
X190500000Y0D03*
D24*
X187960000Y-5080000D03*
X194310000Y-2540000D03*
D25*
X195580000Y0D03*
X185420000Y0D03*
D23*
X209550000Y0D03*
D24*
X207010000Y-5080000D03*
X213360000Y-2540000D03*
D25*
X214630000Y0D03*
X204470000Y0D03*
D23*
X228600000Y0D03*
D24*
X226060000Y-5080000D03*
X232410000Y-2540000D03*
D25*
X233680000Y0D03*
X223520000Y0D03*
D23*
X247650000Y0D03*
D24*
X245110000Y-5080000D03*
X251460000Y-2540000D03*
D25*
X252730000Y0D03*
X242570000Y0D03*
D23*
X266700000Y0D03*
D24*
X264160000Y-5080000D03*
X270510000Y-2540000D03*
D25*
X271780000Y0D03*
X261620000Y0D03*
D23*
X285750000Y0D03*
D24*
X283210000Y-5080000D03*
X289560000Y-2540000D03*
D25*
X290830000Y0D03*
X280670000Y0D03*
D23*
X0Y-19050000D03*
D24*
X-2540000Y-24130000D03*
X3810000Y-21590000D03*
D25*
X5080000Y-19050000D03*
X-5080000Y-19050000D03*
D23*
X19050000Y-19050000D03*
D24*
X16510000Y-24130000D03*
X22860000Y-21590000D03*
D25*
X24130000Y-19050000D03*
X13970000Y-19050000D03*
D23*
X38100000Y-19050000D03*
D24*
X35560000Y-24130000D03*
X41910000Y-21590000D03*
D25*
X43180000Y-19050000D03*
X33020000Y-19050000D03*
D23*
X57150000Y-19050000D03*
D24*
X54610000Y-24130000D03*
X60960000Y-21590000D03*
D25*
X62230000Y-19050000D03*
X52070000Y-19050000D03*
D23*
X76200000Y-19050000D03*
D24*
X73660000Y-24130000D03*
X80010000Y-21590000D03*
D25*
X81280000Y-19050000D03*
X71120000Y-19050000D03*
D23*
X95250000Y-19050000D03*
D24*
X92710000Y-24130000D03*
X99060000Y-21590000D03*
D25*
X100330000Y-19050000D03*
X90170000Y-19050000D03*
D23*
X114300000Y-19050000D03*
D24*
X111760000Y-24130000D03*
X118110000Y-21590000D03*
D25*
X119380000Y-19050000D03*
X109220000Y-19050000D03*
D23*
X133350000Y-19050000D03*
D24*
X130810000Y-24130000D03*
X137160000Y-21590000D03*
D25*
X138430000Y-19050000D03*
X128270000Y-19050000D03*
D23*
X152400000Y-19050000D03*
D24*
X149860000Y-24130000D03*
X156210000Y-21590000D03*
D25*
X157480000Y-19050000D03*
X147320000Y-19050000D03*
D23*
X171450000Y-19050000D03*
D24*
X168910000Y-24130000D03*
X175260000Y-21590000D03*
D25*
X176530000Y-19050000D03*
X166370000Y-19050000D03*
D23*
X190500000Y-19050000D03*
D24*
X187960000Y-24130000D03*
X194310000Y-21590000D03*
D25*
X195580000Y-19050000D03*
X185420000Y-19050000D03*
D23*
X209550000Y-19050000D03*
D24*
X207010000Y-24130000D03*
X213360000Y-21590000D03*
D25*
X214630000Y-19050000D03*
X204470000Y-19050000D03*
D23*
X228600000Y-19050000D03*
D24*
X226060000Y-24130000D03*
X232410000Y-21590000D03*
D25*
X233680000Y-19050000D03*
X223520000Y-19050000D03*
D23*
X257175000Y-19050000D03*
D24*
X254635000Y-24130000D03*
X260985000Y-21590000D03*
D25*
X262255000Y-19050000D03*
X252095000Y-19050000D03*
D23*
X285750000Y-19050000D03*
D24*
X283210000Y-24130000D03*
X289560000Y-21590000D03*
D25*
X290830000Y-19050000D03*
X280670000Y-19050000D03*
D23*
X4762500Y-38100000D03*
D24*
X2222500Y-43180000D03*
X8572500Y-40640000D03*
D25*
X9842500Y-38100000D03*
X-317500Y-38100000D03*
D23*
X28575000Y-38100000D03*
D24*
X26035000Y-43180000D03*
X32385000Y-40640000D03*
D25*
X33655000Y-38100000D03*
X23495000Y-38100000D03*
D23*
X47625000Y-38100000D03*
D24*
X45085000Y-43180000D03*
X51435000Y-40640000D03*
D25*
X52705000Y-38100000D03*
X42545000Y-38100000D03*
D23*
X66675000Y-38100000D03*
D24*
X64135000Y-43180000D03*
X70485000Y-40640000D03*
D25*
X71755000Y-38100000D03*
X61595000Y-38100000D03*
D23*
X85725000Y-38100000D03*
D24*
X83185000Y-43180000D03*
X89535000Y-40640000D03*
D25*
X90805000Y-38100000D03*
X80645000Y-38100000D03*
D23*
X104775000Y-38100000D03*
D24*
X102235000Y-43180000D03*
X108585000Y-40640000D03*
D25*
X109855000Y-38100000D03*
X99695000Y-38100000D03*
D23*
X123825000Y-38100000D03*
D24*
X121285000Y-43180000D03*
X127635000Y-40640000D03*
D25*
X128905000Y-38100000D03*
X118745000Y-38100000D03*
D23*
X142875000Y-38100000D03*
D24*
X140335000Y-43180000D03*
X146685000Y-40640000D03*
D25*
X147955000Y-38100000D03*
X137795000Y-38100000D03*
D23*
X161925000Y-38100000D03*
D24*
X159385000Y-43180000D03*
X165735000Y-40640000D03*
D25*
X167005000Y-38100000D03*
X156845000Y-38100000D03*
D23*
X180975000Y-38100000D03*
D24*
X178435000Y-43180000D03*
X184785000Y-40640000D03*
D25*
X186055000Y-38100000D03*
X175895000Y-38100000D03*
D23*
X200025000Y-38100000D03*
D24*
X197485000Y-43180000D03*
X203835000Y-40640000D03*
D25*
X205105000Y-38100000D03*
X194945000Y-38100000D03*
D23*
X219075000Y-38100000D03*
D24*
X216535000Y-43180000D03*
X222885000Y-40640000D03*
D25*
X224155000Y-38100000D03*
X213995000Y-38100000D03*
D23*
X238125000Y-38100000D03*
D24*
X235585000Y-43180000D03*
X241935000Y-40640000D03*
D25*
X243205000Y-38100000D03*
X233045000Y-38100000D03*
D23*
X261937500Y-38100000D03*
D24*
X259397500Y-43180000D03*
X265747500Y-40640000D03*
D25*
X267017500Y-38100000D03*
X256857500Y-38100000D03*
D23*
X285750000Y-38100000D03*
D24*
X283210000Y-43180000D03*
X289560000Y-40640000D03*
D25*
X290830000Y-38100000D03*
X280670000Y-38100000D03*
D23*
X7145020Y-57150000D03*
D24*
X4605020Y-62230000D03*
X10955020Y-59690000D03*
D25*
X12225020Y-57150000D03*
X2065020Y-57150000D03*
D23*
X33337500Y-57150000D03*
D24*
X30797500Y-62230000D03*
X37147500Y-59690000D03*
D25*
X38417500Y-57150000D03*
X28257500Y-57150000D03*
D23*
X52387500Y-57150000D03*
D24*
X49847500Y-62230000D03*
X56197500Y-59690000D03*
D25*
X57467500Y-57150000D03*
X47307500Y-57150000D03*
D23*
X71437500Y-57150000D03*
D24*
X68897500Y-62230000D03*
X75247500Y-59690000D03*
D25*
X76517500Y-57150000D03*
X66357500Y-57150000D03*
D23*
X90487500Y-57150000D03*
D24*
X87947500Y-62230000D03*
X94297500Y-59690000D03*
D25*
X95567500Y-57150000D03*
X85407500Y-57150000D03*
D23*
X109537500Y-57150000D03*
D24*
X106997500Y-62230000D03*
X113347500Y-59690000D03*
D25*
X114617500Y-57150000D03*
X104457500Y-57150000D03*
D23*
X128587500Y-57150000D03*
D24*
X126047500Y-62230000D03*
X132397500Y-59690000D03*
D25*
X133667500Y-57150000D03*
X123507500Y-57150000D03*
D23*
X147637500Y-57150000D03*
D24*
X145097500Y-62230000D03*
X151447500Y-59690000D03*
D25*
X152717500Y-57150000D03*
X142557500Y-57150000D03*
D23*
X166687500Y-57150000D03*
D24*
X164147500Y-62230000D03*
X170497500Y-59690000D03*
D25*
X171767500Y-57150000D03*
X161607500Y-57150000D03*
D23*
X185737500Y-57150000D03*
D24*
X183197500Y-62230000D03*
X189547500Y-59690000D03*
D25*
X190817500Y-57150000D03*
X180657500Y-57150000D03*
D23*
X204787500Y-57150000D03*
D24*
X202247500Y-62230000D03*
X208597500Y-59690000D03*
D25*
X209867500Y-57150000D03*
X199707500Y-57150000D03*
D23*
X223837500Y-57150000D03*
D24*
X221297500Y-62230000D03*
X227647500Y-59690000D03*
D25*
X228917500Y-57150000D03*
X218757500Y-57150000D03*
D23*
X254795020Y-57150000D03*
D24*
X252255020Y-62230000D03*
X258605020Y-59690000D03*
D25*
X259875020Y-57150000D03*
X249715020Y-57150000D03*
D23*
X285750000Y-57150000D03*
D24*
X283210000Y-62230000D03*
X289560000Y-59690000D03*
D25*
X290830000Y-57150000D03*
X280670000Y-57150000D03*
D23*
X11906250Y-76200000D03*
D24*
X9366250Y-81280000D03*
X15716250Y-78740000D03*
D25*
X16986250Y-76200000D03*
X6826250Y-76200000D03*
D23*
X42862500Y-76200000D03*
D24*
X40322500Y-81280000D03*
X46672500Y-78740000D03*
D25*
X47942500Y-76200000D03*
X37782500Y-76200000D03*
D23*
X61912500Y-76200000D03*
D24*
X59372500Y-81280000D03*
X65722500Y-78740000D03*
D25*
X66992500Y-76200000D03*
X56832500Y-76200000D03*
D23*
X80962500Y-76200000D03*
D24*
X78422500Y-81280000D03*
X84772500Y-78740000D03*
D25*
X86042500Y-76200000D03*
X75882500Y-76200000D03*
D23*
X100012500Y-76200000D03*
D24*
X97472500Y-81280000D03*
X103822500Y-78740000D03*
D25*
X105092500Y-76200000D03*
X94932500Y-76200000D03*
D23*
X119062500Y-76200000D03*
D24*
X116522500Y-81280000D03*
X122872500Y-78740000D03*
D25*
X124142500Y-76200000D03*
X113982500Y-76200000D03*
D23*
X138112500Y-76200000D03*
D24*
X135572500Y-81280000D03*
X141922500Y-78740000D03*
D25*
X143192500Y-76200000D03*
X133032500Y-76200000D03*
D23*
X157162500Y-76200000D03*
D24*
X154622500Y-81280000D03*
X160972500Y-78740000D03*
D25*
X162242500Y-76200000D03*
X152082500Y-76200000D03*
D23*
X176212500Y-76200000D03*
D24*
X173672500Y-81280000D03*
X180022500Y-78740000D03*
D25*
X181292500Y-76200000D03*
X171132500Y-76200000D03*
D23*
X195262500Y-76200000D03*
D24*
X192722500Y-81280000D03*
X199072500Y-78740000D03*
D25*
X200342500Y-76200000D03*
X190182500Y-76200000D03*
D23*
X214312500Y-76200000D03*
D24*
X211772500Y-81280000D03*
X218122500Y-78740000D03*
D25*
X219392500Y-76200000D03*
X209232500Y-76200000D03*
D23*
X240506250Y-76200000D03*
D24*
X237966250Y-81280000D03*
X244316250Y-78740000D03*
D25*
X245586250Y-76200000D03*
X235426250Y-76200000D03*
D23*
X266700000Y-76200000D03*
D24*
X264160000Y-81280000D03*
X270510000Y-78740000D03*
D25*
X271780000Y-76200000D03*
X261620000Y-76200000D03*
D23*
X285750000Y-76200000D03*
D24*
X283210000Y-81280000D03*
X289560000Y-78740000D03*
D25*
X290830000Y-76200000D03*
X280670000Y-76200000D03*
D23*
X2382520Y-95250000D03*
D24*
X-157480Y-100330000D03*
X6192520Y-97790000D03*
D25*
X7462520Y-95250000D03*
X-2697480Y-95250000D03*
D23*
X26195020Y-95250000D03*
D24*
X23655020Y-100330000D03*
X30005020Y-97790000D03*
D25*
X31275020Y-95250000D03*
X21115020Y-95250000D03*
D23*
X50007520Y-95250000D03*
D24*
X47467520Y-100330000D03*
X53817520Y-97790000D03*
D25*
X55087520Y-95250000D03*
X44927520Y-95250000D03*
D23*
X121445020Y-95250000D03*
D24*
X118905020Y-100330000D03*
X125255020Y-97790000D03*
D25*
X126525020Y-95250000D03*
X116365020Y-95250000D03*
D23*
X190500000Y-95250000D03*
D24*
X187960000Y-100330000D03*
X194310000Y-97790000D03*
D25*
X195580000Y-95250000D03*
X185420000Y-95250000D03*
D23*
X209550000Y-95250000D03*
D24*
X207010000Y-100330000D03*
X213360000Y-97790000D03*
D25*
X214630000Y-95250000D03*
X204470000Y-95250000D03*
D23*
X228600000Y-95250000D03*
D24*
X226060000Y-100330000D03*
X232410000Y-97790000D03*
D25*
X233680000Y-95250000D03*
X223520000Y-95250000D03*
D23*
X247650000Y-95250000D03*
D24*
X245110000Y-100330000D03*
X251460000Y-97790000D03*
D25*
X252730000Y-95250000D03*
X242570000Y-95250000D03*
D23*
X266700000Y-95250000D03*
D24*
X264160000Y-100330000D03*
X270510000Y-97790000D03*
D25*
X271780000Y-95250000D03*
X261620000Y-95250000D03*
D23*
X285750000Y-95250000D03*
D24*
X283210000Y-100330000D03*
X289560000Y-97790000D03*
D25*
X290830000Y-95250000D03*
X280670000Y-95250000D03*
D26*
X101942900Y-94023180D03*
X101942900Y-96222820D03*
X103543100Y-94023180D03*
X103543100Y-96222820D03*
D27*
X245270020Y-12065000D03*
D28*
X245270020Y-27305000D03*
D27*
X269082520Y-12065000D03*
D28*
X269082520Y-27305000D03*
D27*
X242888770Y-50165000D03*
D28*
X242888770Y-65405000D03*
D27*
X266701270Y-50165000D03*
D28*
X266701270Y-65405000D03*
D27*
X0Y-69215000D03*
D28*
X0Y-84455000D03*
D27*
X23812500Y-69215000D03*
D28*
X23812500Y-84455000D03*
D27*
X71407020Y-102267258D03*
D28*
X71407020Y-87027258D03*
D27*
X171483020Y-102267258D03*
D28*
X171483020Y-87027258D03*
D29*
X-7747000Y-52197000D03*
X295021000Y-52197000D03*
M02*
