G04 #@! TF.FileFunction,Legend,Bot*
%FSLAX46Y46*%
G04 Gerber Fmt 4.6, Leading zero omitted, Abs format (unit mm)*
G04 Created by KiCad (PCBNEW 4.0.1-stable) date 2/13/2016 10:11:50 PM*
%MOMM*%
G01*
G04 APERTURE LIST*
%ADD10C,0.100000*%
%ADD11C,0.300000*%
%ADD12C,0.150000*%
%ADD13C,0.200000*%
%ADD14C,0.304800*%
%ADD15C,0.203200*%
%ADD16C,0.200660*%
%ADD17C,0.149860*%
%ADD18C,0.158800*%
G04 APERTURE END LIST*
D10*
D11*
X157582713Y-90258429D02*
X157725571Y-90187000D01*
X157796999Y-90115571D01*
X157868428Y-89972714D01*
X157868428Y-89901286D01*
X157796999Y-89758429D01*
X157725571Y-89687000D01*
X157582713Y-89615571D01*
X157296999Y-89615571D01*
X157154142Y-89687000D01*
X157082713Y-89758429D01*
X157011285Y-89901286D01*
X157011285Y-89972714D01*
X157082713Y-90115571D01*
X157154142Y-90187000D01*
X157296999Y-90258429D01*
X157582713Y-90258429D01*
X157725571Y-90329857D01*
X157796999Y-90401286D01*
X157868428Y-90544143D01*
X157868428Y-90829857D01*
X157796999Y-90972714D01*
X157725571Y-91044143D01*
X157582713Y-91115571D01*
X157296999Y-91115571D01*
X157154142Y-91044143D01*
X157082713Y-90972714D01*
X157011285Y-90829857D01*
X157011285Y-90544143D01*
X157082713Y-90401286D01*
X157154142Y-90329857D01*
X157296999Y-90258429D01*
X155725571Y-90115571D02*
X155725571Y-91115571D01*
X156082714Y-89544143D02*
X156439857Y-90615571D01*
X155511285Y-90615571D01*
X153939857Y-90115571D02*
X153582714Y-91115571D01*
X153225572Y-90115571D01*
X152368429Y-89615571D02*
X152225572Y-89615571D01*
X152082715Y-89687000D01*
X152011286Y-89758429D01*
X151939857Y-89901286D01*
X151868429Y-90187000D01*
X151868429Y-90544143D01*
X151939857Y-90829857D01*
X152011286Y-90972714D01*
X152082715Y-91044143D01*
X152225572Y-91115571D01*
X152368429Y-91115571D01*
X152511286Y-91044143D01*
X152582715Y-90972714D01*
X152654143Y-90829857D01*
X152725572Y-90544143D01*
X152725572Y-90187000D01*
X152654143Y-89901286D01*
X152582715Y-89758429D01*
X152511286Y-89687000D01*
X152368429Y-89615571D01*
X151225572Y-90972714D02*
X151154144Y-91044143D01*
X151225572Y-91115571D01*
X151297001Y-91044143D01*
X151225572Y-90972714D01*
X151225572Y-91115571D01*
X149725572Y-91115571D02*
X150582715Y-91115571D01*
X150154143Y-91115571D02*
X150154143Y-89615571D01*
X150297000Y-89829857D01*
X150439858Y-89972714D01*
X150582715Y-90044143D01*
X163011285Y-95915571D02*
X163011285Y-94415571D01*
X162654142Y-94415571D01*
X162439857Y-94487000D01*
X162296999Y-94629857D01*
X162225571Y-94772714D01*
X162154142Y-95058429D01*
X162154142Y-95272714D01*
X162225571Y-95558429D01*
X162296999Y-95701286D01*
X162439857Y-95844143D01*
X162654142Y-95915571D01*
X163011285Y-95915571D01*
X160939857Y-95844143D02*
X161082714Y-95915571D01*
X161368428Y-95915571D01*
X161511285Y-95844143D01*
X161582714Y-95701286D01*
X161582714Y-95129857D01*
X161511285Y-94987000D01*
X161368428Y-94915571D01*
X161082714Y-94915571D01*
X160939857Y-94987000D01*
X160868428Y-95129857D01*
X160868428Y-95272714D01*
X161582714Y-95415571D01*
X160297000Y-95844143D02*
X160154143Y-95915571D01*
X159868428Y-95915571D01*
X159725571Y-95844143D01*
X159654143Y-95701286D01*
X159654143Y-95629857D01*
X159725571Y-95487000D01*
X159868428Y-95415571D01*
X160082714Y-95415571D01*
X160225571Y-95344143D01*
X160297000Y-95201286D01*
X160297000Y-95129857D01*
X160225571Y-94987000D01*
X160082714Y-94915571D01*
X159868428Y-94915571D01*
X159725571Y-94987000D01*
X159011285Y-95915571D02*
X159011285Y-94915571D01*
X159011285Y-94415571D02*
X159082714Y-94487000D01*
X159011285Y-94558429D01*
X158939857Y-94487000D01*
X159011285Y-94415571D01*
X159011285Y-94558429D01*
X157654142Y-94915571D02*
X157654142Y-96129857D01*
X157725571Y-96272714D01*
X157796999Y-96344143D01*
X157939856Y-96415571D01*
X158154142Y-96415571D01*
X158296999Y-96344143D01*
X157654142Y-95844143D02*
X157796999Y-95915571D01*
X158082713Y-95915571D01*
X158225571Y-95844143D01*
X158296999Y-95772714D01*
X158368428Y-95629857D01*
X158368428Y-95201286D01*
X158296999Y-95058429D01*
X158225571Y-94987000D01*
X158082713Y-94915571D01*
X157796999Y-94915571D01*
X157654142Y-94987000D01*
X156939856Y-94915571D02*
X156939856Y-95915571D01*
X156939856Y-95058429D02*
X156868428Y-94987000D01*
X156725570Y-94915571D01*
X156511285Y-94915571D01*
X156368428Y-94987000D01*
X156296999Y-95129857D01*
X156296999Y-95915571D01*
X155011285Y-95844143D02*
X155154142Y-95915571D01*
X155439856Y-95915571D01*
X155582713Y-95844143D01*
X155654142Y-95701286D01*
X155654142Y-95129857D01*
X155582713Y-94987000D01*
X155439856Y-94915571D01*
X155154142Y-94915571D01*
X155011285Y-94987000D01*
X154939856Y-95129857D01*
X154939856Y-95272714D01*
X155654142Y-95415571D01*
X153654142Y-95915571D02*
X153654142Y-94415571D01*
X153654142Y-95844143D02*
X153796999Y-95915571D01*
X154082713Y-95915571D01*
X154225571Y-95844143D01*
X154296999Y-95772714D01*
X154368428Y-95629857D01*
X154368428Y-95201286D01*
X154296999Y-95058429D01*
X154225571Y-94987000D01*
X154082713Y-94915571D01*
X153796999Y-94915571D01*
X153654142Y-94987000D01*
X151796999Y-95915571D02*
X151796999Y-94415571D01*
X151796999Y-94987000D02*
X151654142Y-94915571D01*
X151368428Y-94915571D01*
X151225571Y-94987000D01*
X151154142Y-95058429D01*
X151082713Y-95201286D01*
X151082713Y-95629857D01*
X151154142Y-95772714D01*
X151225571Y-95844143D01*
X151368428Y-95915571D01*
X151654142Y-95915571D01*
X151796999Y-95844143D01*
X150582713Y-94915571D02*
X150225570Y-95915571D01*
X149868428Y-94915571D02*
X150225570Y-95915571D01*
X150368428Y-96272714D01*
X150439856Y-96344143D01*
X150582713Y-96415571D01*
X148225571Y-94558429D02*
X148154142Y-94487000D01*
X148011285Y-94415571D01*
X147654142Y-94415571D01*
X147511285Y-94487000D01*
X147439856Y-94558429D01*
X147368428Y-94701286D01*
X147368428Y-94844143D01*
X147439856Y-95058429D01*
X148296999Y-95915571D01*
X147368428Y-95915571D01*
X146082714Y-94915571D02*
X146082714Y-95915571D01*
X146439857Y-94344143D02*
X146797000Y-95415571D01*
X145868428Y-95415571D01*
X145082714Y-95058429D02*
X145225572Y-94987000D01*
X145297000Y-94915571D01*
X145368429Y-94772714D01*
X145368429Y-94701286D01*
X145297000Y-94558429D01*
X145225572Y-94487000D01*
X145082714Y-94415571D01*
X144797000Y-94415571D01*
X144654143Y-94487000D01*
X144582714Y-94558429D01*
X144511286Y-94701286D01*
X144511286Y-94772714D01*
X144582714Y-94915571D01*
X144654143Y-94987000D01*
X144797000Y-95058429D01*
X145082714Y-95058429D01*
X145225572Y-95129857D01*
X145297000Y-95201286D01*
X145368429Y-95344143D01*
X145368429Y-95629857D01*
X145297000Y-95772714D01*
X145225572Y-95844143D01*
X145082714Y-95915571D01*
X144797000Y-95915571D01*
X144654143Y-95844143D01*
X144582714Y-95772714D01*
X144511286Y-95629857D01*
X144511286Y-95344143D01*
X144582714Y-95201286D01*
X144654143Y-95129857D01*
X144797000Y-95058429D01*
D12*
X108673000Y-91829000D02*
X108673000Y-92829000D01*
X106973000Y-92829000D02*
X106973000Y-91829000D01*
X106973000Y-97909000D02*
X106973000Y-96909000D01*
X108673000Y-96909000D02*
X108673000Y-97909000D01*
X100068000Y-87464000D02*
X99068000Y-87464000D01*
X99068000Y-85764000D02*
X100068000Y-85764000D01*
X82288000Y-98259000D02*
X81288000Y-98259000D01*
X81288000Y-96559000D02*
X82288000Y-96559000D01*
X81288000Y-88939000D02*
X82288000Y-88939000D01*
X82288000Y-90639000D02*
X81288000Y-90639000D01*
X103243000Y-99529000D02*
X102243000Y-99529000D01*
X102243000Y-97829000D02*
X103243000Y-97829000D01*
X103243000Y-91909000D02*
X102243000Y-91909000D01*
X102243000Y-90209000D02*
X103243000Y-90209000D01*
X-3691000Y-10629000D02*
X-4691000Y-10629000D01*
X-4691000Y-8929000D02*
X-3691000Y-8929000D01*
D11*
X2794000Y-6877000D02*
X2794000Y-8001000D01*
X2794000Y-8001000D02*
X4826000Y-8001000D01*
X4826000Y-8001000D02*
X4826000Y-6877000D01*
X2794000Y-5796000D02*
X2794000Y-4699000D01*
X2794000Y-4699000D02*
X4826000Y-4699000D01*
X4826000Y-4699000D02*
X4826000Y-5796000D01*
D13*
X3429000Y-6604000D02*
X4191000Y-6604000D01*
X3429000Y-6159500D02*
X4191000Y-6159500D01*
X4191000Y-6159500D02*
X3810000Y-6540500D01*
X3810000Y-6540500D02*
X3429000Y-6159500D01*
D11*
X26924000Y-6877000D02*
X26924000Y-8001000D01*
X26924000Y-8001000D02*
X28956000Y-8001000D01*
X28956000Y-8001000D02*
X28956000Y-6877000D01*
X26924000Y-5796000D02*
X26924000Y-4699000D01*
X26924000Y-4699000D02*
X28956000Y-4699000D01*
X28956000Y-4699000D02*
X28956000Y-5796000D01*
D13*
X27559000Y-6604000D02*
X28321000Y-6604000D01*
X27559000Y-6159500D02*
X28321000Y-6159500D01*
X28321000Y-6159500D02*
X27940000Y-6540500D01*
X27940000Y-6540500D02*
X27559000Y-6159500D01*
D11*
X45974000Y-6877000D02*
X45974000Y-8001000D01*
X45974000Y-8001000D02*
X48006000Y-8001000D01*
X48006000Y-8001000D02*
X48006000Y-6877000D01*
X45974000Y-5796000D02*
X45974000Y-4699000D01*
X45974000Y-4699000D02*
X48006000Y-4699000D01*
X48006000Y-4699000D02*
X48006000Y-5796000D01*
D13*
X46609000Y-6604000D02*
X47371000Y-6604000D01*
X46609000Y-6159500D02*
X47371000Y-6159500D01*
X47371000Y-6159500D02*
X46990000Y-6540500D01*
X46990000Y-6540500D02*
X46609000Y-6159500D01*
D11*
X65024000Y-6877000D02*
X65024000Y-8001000D01*
X65024000Y-8001000D02*
X67056000Y-8001000D01*
X67056000Y-8001000D02*
X67056000Y-6877000D01*
X65024000Y-5796000D02*
X65024000Y-4699000D01*
X65024000Y-4699000D02*
X67056000Y-4699000D01*
X67056000Y-4699000D02*
X67056000Y-5796000D01*
D13*
X65659000Y-6604000D02*
X66421000Y-6604000D01*
X65659000Y-6159500D02*
X66421000Y-6159500D01*
X66421000Y-6159500D02*
X66040000Y-6540500D01*
X66040000Y-6540500D02*
X65659000Y-6159500D01*
D11*
X84074000Y-6877000D02*
X84074000Y-8001000D01*
X84074000Y-8001000D02*
X86106000Y-8001000D01*
X86106000Y-8001000D02*
X86106000Y-6877000D01*
X84074000Y-5796000D02*
X84074000Y-4699000D01*
X84074000Y-4699000D02*
X86106000Y-4699000D01*
X86106000Y-4699000D02*
X86106000Y-5796000D01*
D13*
X84709000Y-6604000D02*
X85471000Y-6604000D01*
X84709000Y-6159500D02*
X85471000Y-6159500D01*
X85471000Y-6159500D02*
X85090000Y-6540500D01*
X85090000Y-6540500D02*
X84709000Y-6159500D01*
D11*
X103124000Y-6877000D02*
X103124000Y-8001000D01*
X103124000Y-8001000D02*
X105156000Y-8001000D01*
X105156000Y-8001000D02*
X105156000Y-6877000D01*
X103124000Y-5796000D02*
X103124000Y-4699000D01*
X103124000Y-4699000D02*
X105156000Y-4699000D01*
X105156000Y-4699000D02*
X105156000Y-5796000D01*
D13*
X103759000Y-6604000D02*
X104521000Y-6604000D01*
X103759000Y-6159500D02*
X104521000Y-6159500D01*
X104521000Y-6159500D02*
X104140000Y-6540500D01*
X104140000Y-6540500D02*
X103759000Y-6159500D01*
D11*
X122174000Y-6877000D02*
X122174000Y-8001000D01*
X122174000Y-8001000D02*
X124206000Y-8001000D01*
X124206000Y-8001000D02*
X124206000Y-6877000D01*
X122174000Y-5796000D02*
X122174000Y-4699000D01*
X122174000Y-4699000D02*
X124206000Y-4699000D01*
X124206000Y-4699000D02*
X124206000Y-5796000D01*
D13*
X122809000Y-6604000D02*
X123571000Y-6604000D01*
X122809000Y-6159500D02*
X123571000Y-6159500D01*
X123571000Y-6159500D02*
X123190000Y-6540500D01*
X123190000Y-6540500D02*
X122809000Y-6159500D01*
D11*
X141224000Y-6877000D02*
X141224000Y-8001000D01*
X141224000Y-8001000D02*
X143256000Y-8001000D01*
X143256000Y-8001000D02*
X143256000Y-6877000D01*
X141224000Y-5796000D02*
X141224000Y-4699000D01*
X141224000Y-4699000D02*
X143256000Y-4699000D01*
X143256000Y-4699000D02*
X143256000Y-5796000D01*
D13*
X141859000Y-6604000D02*
X142621000Y-6604000D01*
X141859000Y-6159500D02*
X142621000Y-6159500D01*
X142621000Y-6159500D02*
X142240000Y-6540500D01*
X142240000Y-6540500D02*
X141859000Y-6159500D01*
D11*
X160274000Y-6877000D02*
X160274000Y-8001000D01*
X160274000Y-8001000D02*
X162306000Y-8001000D01*
X162306000Y-8001000D02*
X162306000Y-6877000D01*
X160274000Y-5796000D02*
X160274000Y-4699000D01*
X160274000Y-4699000D02*
X162306000Y-4699000D01*
X162306000Y-4699000D02*
X162306000Y-5796000D01*
D13*
X160909000Y-6604000D02*
X161671000Y-6604000D01*
X160909000Y-6159500D02*
X161671000Y-6159500D01*
X161671000Y-6159500D02*
X161290000Y-6540500D01*
X161290000Y-6540500D02*
X160909000Y-6159500D01*
D11*
X179324000Y-6877000D02*
X179324000Y-8001000D01*
X179324000Y-8001000D02*
X181356000Y-8001000D01*
X181356000Y-8001000D02*
X181356000Y-6877000D01*
X179324000Y-5796000D02*
X179324000Y-4699000D01*
X179324000Y-4699000D02*
X181356000Y-4699000D01*
X181356000Y-4699000D02*
X181356000Y-5796000D01*
D13*
X179959000Y-6604000D02*
X180721000Y-6604000D01*
X179959000Y-6159500D02*
X180721000Y-6159500D01*
X180721000Y-6159500D02*
X180340000Y-6540500D01*
X180340000Y-6540500D02*
X179959000Y-6159500D01*
D11*
X198374000Y-6877000D02*
X198374000Y-8001000D01*
X198374000Y-8001000D02*
X200406000Y-8001000D01*
X200406000Y-8001000D02*
X200406000Y-6877000D01*
X198374000Y-5796000D02*
X198374000Y-4699000D01*
X198374000Y-4699000D02*
X200406000Y-4699000D01*
X200406000Y-4699000D02*
X200406000Y-5796000D01*
D13*
X199009000Y-6604000D02*
X199771000Y-6604000D01*
X199009000Y-6159500D02*
X199771000Y-6159500D01*
X199771000Y-6159500D02*
X199390000Y-6540500D01*
X199390000Y-6540500D02*
X199009000Y-6159500D01*
D11*
X217424000Y-6877000D02*
X217424000Y-8001000D01*
X217424000Y-8001000D02*
X219456000Y-8001000D01*
X219456000Y-8001000D02*
X219456000Y-6877000D01*
X217424000Y-5796000D02*
X217424000Y-4699000D01*
X217424000Y-4699000D02*
X219456000Y-4699000D01*
X219456000Y-4699000D02*
X219456000Y-5796000D01*
D13*
X218059000Y-6604000D02*
X218821000Y-6604000D01*
X218059000Y-6159500D02*
X218821000Y-6159500D01*
X218821000Y-6159500D02*
X218440000Y-6540500D01*
X218440000Y-6540500D02*
X218059000Y-6159500D01*
D11*
X236474000Y-6877000D02*
X236474000Y-8001000D01*
X236474000Y-8001000D02*
X238506000Y-8001000D01*
X238506000Y-8001000D02*
X238506000Y-6877000D01*
X236474000Y-5796000D02*
X236474000Y-4699000D01*
X236474000Y-4699000D02*
X238506000Y-4699000D01*
X238506000Y-4699000D02*
X238506000Y-5796000D01*
D13*
X237109000Y-6604000D02*
X237871000Y-6604000D01*
X237109000Y-6159500D02*
X237871000Y-6159500D01*
X237871000Y-6159500D02*
X237490000Y-6540500D01*
X237490000Y-6540500D02*
X237109000Y-6159500D01*
D11*
X255524000Y-6877000D02*
X255524000Y-8001000D01*
X255524000Y-8001000D02*
X257556000Y-8001000D01*
X257556000Y-8001000D02*
X257556000Y-6877000D01*
X255524000Y-5796000D02*
X255524000Y-4699000D01*
X255524000Y-4699000D02*
X257556000Y-4699000D01*
X257556000Y-4699000D02*
X257556000Y-5796000D01*
D13*
X256159000Y-6604000D02*
X256921000Y-6604000D01*
X256159000Y-6159500D02*
X256921000Y-6159500D01*
X256921000Y-6159500D02*
X256540000Y-6540500D01*
X256540000Y-6540500D02*
X256159000Y-6159500D01*
D11*
X274574000Y-6877000D02*
X274574000Y-8001000D01*
X274574000Y-8001000D02*
X276606000Y-8001000D01*
X276606000Y-8001000D02*
X276606000Y-6877000D01*
X274574000Y-5796000D02*
X274574000Y-4699000D01*
X274574000Y-4699000D02*
X276606000Y-4699000D01*
X276606000Y-4699000D02*
X276606000Y-5796000D01*
D13*
X275209000Y-6604000D02*
X275971000Y-6604000D01*
X275209000Y-6159500D02*
X275971000Y-6159500D01*
X275971000Y-6159500D02*
X275590000Y-6540500D01*
X275590000Y-6540500D02*
X275209000Y-6159500D01*
D11*
X293624000Y-6877000D02*
X293624000Y-8001000D01*
X293624000Y-8001000D02*
X295656000Y-8001000D01*
X295656000Y-8001000D02*
X295656000Y-6877000D01*
X293624000Y-5796000D02*
X293624000Y-4699000D01*
X293624000Y-4699000D02*
X295656000Y-4699000D01*
X295656000Y-4699000D02*
X295656000Y-5796000D01*
D13*
X294259000Y-6604000D02*
X295021000Y-6604000D01*
X294259000Y-6159500D02*
X295021000Y-6159500D01*
X295021000Y-6159500D02*
X294640000Y-6540500D01*
X294640000Y-6540500D02*
X294259000Y-6159500D01*
D11*
X7874000Y-25927000D02*
X7874000Y-27051000D01*
X7874000Y-27051000D02*
X9906000Y-27051000D01*
X9906000Y-27051000D02*
X9906000Y-25927000D01*
X7874000Y-24846000D02*
X7874000Y-23749000D01*
X7874000Y-23749000D02*
X9906000Y-23749000D01*
X9906000Y-23749000D02*
X9906000Y-24846000D01*
D13*
X8509000Y-25654000D02*
X9271000Y-25654000D01*
X8509000Y-25209500D02*
X9271000Y-25209500D01*
X9271000Y-25209500D02*
X8890000Y-25590500D01*
X8890000Y-25590500D02*
X8509000Y-25209500D01*
D11*
X26924000Y-25927000D02*
X26924000Y-27051000D01*
X26924000Y-27051000D02*
X28956000Y-27051000D01*
X28956000Y-27051000D02*
X28956000Y-25927000D01*
X26924000Y-24846000D02*
X26924000Y-23749000D01*
X26924000Y-23749000D02*
X28956000Y-23749000D01*
X28956000Y-23749000D02*
X28956000Y-24846000D01*
D13*
X27559000Y-25654000D02*
X28321000Y-25654000D01*
X27559000Y-25209500D02*
X28321000Y-25209500D01*
X28321000Y-25209500D02*
X27940000Y-25590500D01*
X27940000Y-25590500D02*
X27559000Y-25209500D01*
D11*
X45974000Y-25927000D02*
X45974000Y-27051000D01*
X45974000Y-27051000D02*
X48006000Y-27051000D01*
X48006000Y-27051000D02*
X48006000Y-25927000D01*
X45974000Y-24846000D02*
X45974000Y-23749000D01*
X45974000Y-23749000D02*
X48006000Y-23749000D01*
X48006000Y-23749000D02*
X48006000Y-24846000D01*
D13*
X46609000Y-25654000D02*
X47371000Y-25654000D01*
X46609000Y-25209500D02*
X47371000Y-25209500D01*
X47371000Y-25209500D02*
X46990000Y-25590500D01*
X46990000Y-25590500D02*
X46609000Y-25209500D01*
D11*
X65024000Y-25927000D02*
X65024000Y-27051000D01*
X65024000Y-27051000D02*
X67056000Y-27051000D01*
X67056000Y-27051000D02*
X67056000Y-25927000D01*
X65024000Y-24846000D02*
X65024000Y-23749000D01*
X65024000Y-23749000D02*
X67056000Y-23749000D01*
X67056000Y-23749000D02*
X67056000Y-24846000D01*
D13*
X65659000Y-25654000D02*
X66421000Y-25654000D01*
X65659000Y-25209500D02*
X66421000Y-25209500D01*
X66421000Y-25209500D02*
X66040000Y-25590500D01*
X66040000Y-25590500D02*
X65659000Y-25209500D01*
D11*
X84074000Y-25927000D02*
X84074000Y-27051000D01*
X84074000Y-27051000D02*
X86106000Y-27051000D01*
X86106000Y-27051000D02*
X86106000Y-25927000D01*
X84074000Y-24846000D02*
X84074000Y-23749000D01*
X84074000Y-23749000D02*
X86106000Y-23749000D01*
X86106000Y-23749000D02*
X86106000Y-24846000D01*
D13*
X84709000Y-25654000D02*
X85471000Y-25654000D01*
X84709000Y-25209500D02*
X85471000Y-25209500D01*
X85471000Y-25209500D02*
X85090000Y-25590500D01*
X85090000Y-25590500D02*
X84709000Y-25209500D01*
D11*
X103124000Y-25927000D02*
X103124000Y-27051000D01*
X103124000Y-27051000D02*
X105156000Y-27051000D01*
X105156000Y-27051000D02*
X105156000Y-25927000D01*
X103124000Y-24846000D02*
X103124000Y-23749000D01*
X103124000Y-23749000D02*
X105156000Y-23749000D01*
X105156000Y-23749000D02*
X105156000Y-24846000D01*
D13*
X103759000Y-25654000D02*
X104521000Y-25654000D01*
X103759000Y-25209500D02*
X104521000Y-25209500D01*
X104521000Y-25209500D02*
X104140000Y-25590500D01*
X104140000Y-25590500D02*
X103759000Y-25209500D01*
D11*
X122174000Y-25927000D02*
X122174000Y-27051000D01*
X122174000Y-27051000D02*
X124206000Y-27051000D01*
X124206000Y-27051000D02*
X124206000Y-25927000D01*
X122174000Y-24846000D02*
X122174000Y-23749000D01*
X122174000Y-23749000D02*
X124206000Y-23749000D01*
X124206000Y-23749000D02*
X124206000Y-24846000D01*
D13*
X122809000Y-25654000D02*
X123571000Y-25654000D01*
X122809000Y-25209500D02*
X123571000Y-25209500D01*
X123571000Y-25209500D02*
X123190000Y-25590500D01*
X123190000Y-25590500D02*
X122809000Y-25209500D01*
D11*
X141224000Y-25927000D02*
X141224000Y-27051000D01*
X141224000Y-27051000D02*
X143256000Y-27051000D01*
X143256000Y-27051000D02*
X143256000Y-25927000D01*
X141224000Y-24846000D02*
X141224000Y-23749000D01*
X141224000Y-23749000D02*
X143256000Y-23749000D01*
X143256000Y-23749000D02*
X143256000Y-24846000D01*
D13*
X141859000Y-25654000D02*
X142621000Y-25654000D01*
X141859000Y-25209500D02*
X142621000Y-25209500D01*
X142621000Y-25209500D02*
X142240000Y-25590500D01*
X142240000Y-25590500D02*
X141859000Y-25209500D01*
D11*
X160274000Y-25927000D02*
X160274000Y-27051000D01*
X160274000Y-27051000D02*
X162306000Y-27051000D01*
X162306000Y-27051000D02*
X162306000Y-25927000D01*
X160274000Y-24846000D02*
X160274000Y-23749000D01*
X160274000Y-23749000D02*
X162306000Y-23749000D01*
X162306000Y-23749000D02*
X162306000Y-24846000D01*
D13*
X160909000Y-25654000D02*
X161671000Y-25654000D01*
X160909000Y-25209500D02*
X161671000Y-25209500D01*
X161671000Y-25209500D02*
X161290000Y-25590500D01*
X161290000Y-25590500D02*
X160909000Y-25209500D01*
D11*
X179324000Y-25927000D02*
X179324000Y-27051000D01*
X179324000Y-27051000D02*
X181356000Y-27051000D01*
X181356000Y-27051000D02*
X181356000Y-25927000D01*
X179324000Y-24846000D02*
X179324000Y-23749000D01*
X179324000Y-23749000D02*
X181356000Y-23749000D01*
X181356000Y-23749000D02*
X181356000Y-24846000D01*
D13*
X179959000Y-25654000D02*
X180721000Y-25654000D01*
X179959000Y-25209500D02*
X180721000Y-25209500D01*
X180721000Y-25209500D02*
X180340000Y-25590500D01*
X180340000Y-25590500D02*
X179959000Y-25209500D01*
D11*
X198374000Y-25927000D02*
X198374000Y-27051000D01*
X198374000Y-27051000D02*
X200406000Y-27051000D01*
X200406000Y-27051000D02*
X200406000Y-25927000D01*
X198374000Y-24846000D02*
X198374000Y-23749000D01*
X198374000Y-23749000D02*
X200406000Y-23749000D01*
X200406000Y-23749000D02*
X200406000Y-24846000D01*
D13*
X199009000Y-25654000D02*
X199771000Y-25654000D01*
X199009000Y-25209500D02*
X199771000Y-25209500D01*
X199771000Y-25209500D02*
X199390000Y-25590500D01*
X199390000Y-25590500D02*
X199009000Y-25209500D01*
D11*
X217424000Y-25927000D02*
X217424000Y-27051000D01*
X217424000Y-27051000D02*
X219456000Y-27051000D01*
X219456000Y-27051000D02*
X219456000Y-25927000D01*
X217424000Y-24846000D02*
X217424000Y-23749000D01*
X217424000Y-23749000D02*
X219456000Y-23749000D01*
X219456000Y-23749000D02*
X219456000Y-24846000D01*
D13*
X218059000Y-25654000D02*
X218821000Y-25654000D01*
X218059000Y-25209500D02*
X218821000Y-25209500D01*
X218821000Y-25209500D02*
X218440000Y-25590500D01*
X218440000Y-25590500D02*
X218059000Y-25209500D01*
D11*
X236474000Y-25927000D02*
X236474000Y-27051000D01*
X236474000Y-27051000D02*
X238506000Y-27051000D01*
X238506000Y-27051000D02*
X238506000Y-25927000D01*
X236474000Y-24846000D02*
X236474000Y-23749000D01*
X236474000Y-23749000D02*
X238506000Y-23749000D01*
X238506000Y-23749000D02*
X238506000Y-24846000D01*
D13*
X237109000Y-25654000D02*
X237871000Y-25654000D01*
X237109000Y-25209500D02*
X237871000Y-25209500D01*
X237871000Y-25209500D02*
X237490000Y-25590500D01*
X237490000Y-25590500D02*
X237109000Y-25209500D01*
D11*
X263144000Y-25927000D02*
X263144000Y-27051000D01*
X263144000Y-27051000D02*
X265176000Y-27051000D01*
X265176000Y-27051000D02*
X265176000Y-25927000D01*
X263144000Y-24846000D02*
X263144000Y-23749000D01*
X263144000Y-23749000D02*
X265176000Y-23749000D01*
X265176000Y-23749000D02*
X265176000Y-24846000D01*
D13*
X263779000Y-25654000D02*
X264541000Y-25654000D01*
X263779000Y-25209500D02*
X264541000Y-25209500D01*
X264541000Y-25209500D02*
X264160000Y-25590500D01*
X264160000Y-25590500D02*
X263779000Y-25209500D01*
D11*
X293624000Y-25927000D02*
X293624000Y-27051000D01*
X293624000Y-27051000D02*
X295656000Y-27051000D01*
X295656000Y-27051000D02*
X295656000Y-25927000D01*
X293624000Y-24846000D02*
X293624000Y-23749000D01*
X293624000Y-23749000D02*
X295656000Y-23749000D01*
X295656000Y-23749000D02*
X295656000Y-24846000D01*
D13*
X294259000Y-25654000D02*
X295021000Y-25654000D01*
X294259000Y-25209500D02*
X295021000Y-25209500D01*
X295021000Y-25209500D02*
X294640000Y-25590500D01*
X294640000Y-25590500D02*
X294259000Y-25209500D01*
D11*
X12954000Y-44977000D02*
X12954000Y-46101000D01*
X12954000Y-46101000D02*
X14986000Y-46101000D01*
X14986000Y-46101000D02*
X14986000Y-44977000D01*
X12954000Y-43896000D02*
X12954000Y-42799000D01*
X12954000Y-42799000D02*
X14986000Y-42799000D01*
X14986000Y-42799000D02*
X14986000Y-43896000D01*
D13*
X13589000Y-44704000D02*
X14351000Y-44704000D01*
X13589000Y-44259500D02*
X14351000Y-44259500D01*
X14351000Y-44259500D02*
X13970000Y-44640500D01*
X13970000Y-44640500D02*
X13589000Y-44259500D01*
D11*
X37084000Y-44977000D02*
X37084000Y-46101000D01*
X37084000Y-46101000D02*
X39116000Y-46101000D01*
X39116000Y-46101000D02*
X39116000Y-44977000D01*
X37084000Y-43896000D02*
X37084000Y-42799000D01*
X37084000Y-42799000D02*
X39116000Y-42799000D01*
X39116000Y-42799000D02*
X39116000Y-43896000D01*
D13*
X37719000Y-44704000D02*
X38481000Y-44704000D01*
X37719000Y-44259500D02*
X38481000Y-44259500D01*
X38481000Y-44259500D02*
X38100000Y-44640500D01*
X38100000Y-44640500D02*
X37719000Y-44259500D01*
D11*
X54864000Y-44977000D02*
X54864000Y-46101000D01*
X54864000Y-46101000D02*
X56896000Y-46101000D01*
X56896000Y-46101000D02*
X56896000Y-44977000D01*
X54864000Y-43896000D02*
X54864000Y-42799000D01*
X54864000Y-42799000D02*
X56896000Y-42799000D01*
X56896000Y-42799000D02*
X56896000Y-43896000D01*
D13*
X55499000Y-44704000D02*
X56261000Y-44704000D01*
X55499000Y-44259500D02*
X56261000Y-44259500D01*
X56261000Y-44259500D02*
X55880000Y-44640500D01*
X55880000Y-44640500D02*
X55499000Y-44259500D01*
D11*
X73914000Y-44977000D02*
X73914000Y-46101000D01*
X73914000Y-46101000D02*
X75946000Y-46101000D01*
X75946000Y-46101000D02*
X75946000Y-44977000D01*
X73914000Y-43896000D02*
X73914000Y-42799000D01*
X73914000Y-42799000D02*
X75946000Y-42799000D01*
X75946000Y-42799000D02*
X75946000Y-43896000D01*
D13*
X74549000Y-44704000D02*
X75311000Y-44704000D01*
X74549000Y-44259500D02*
X75311000Y-44259500D01*
X75311000Y-44259500D02*
X74930000Y-44640500D01*
X74930000Y-44640500D02*
X74549000Y-44259500D01*
D11*
X92964000Y-44977000D02*
X92964000Y-46101000D01*
X92964000Y-46101000D02*
X94996000Y-46101000D01*
X94996000Y-46101000D02*
X94996000Y-44977000D01*
X92964000Y-43896000D02*
X92964000Y-42799000D01*
X92964000Y-42799000D02*
X94996000Y-42799000D01*
X94996000Y-42799000D02*
X94996000Y-43896000D01*
D13*
X93599000Y-44704000D02*
X94361000Y-44704000D01*
X93599000Y-44259500D02*
X94361000Y-44259500D01*
X94361000Y-44259500D02*
X93980000Y-44640500D01*
X93980000Y-44640500D02*
X93599000Y-44259500D01*
D11*
X112014000Y-44977000D02*
X112014000Y-46101000D01*
X112014000Y-46101000D02*
X114046000Y-46101000D01*
X114046000Y-46101000D02*
X114046000Y-44977000D01*
X112014000Y-43896000D02*
X112014000Y-42799000D01*
X112014000Y-42799000D02*
X114046000Y-42799000D01*
X114046000Y-42799000D02*
X114046000Y-43896000D01*
D13*
X112649000Y-44704000D02*
X113411000Y-44704000D01*
X112649000Y-44259500D02*
X113411000Y-44259500D01*
X113411000Y-44259500D02*
X113030000Y-44640500D01*
X113030000Y-44640500D02*
X112649000Y-44259500D01*
D11*
X131064000Y-44977000D02*
X131064000Y-46101000D01*
X131064000Y-46101000D02*
X133096000Y-46101000D01*
X133096000Y-46101000D02*
X133096000Y-44977000D01*
X131064000Y-43896000D02*
X131064000Y-42799000D01*
X131064000Y-42799000D02*
X133096000Y-42799000D01*
X133096000Y-42799000D02*
X133096000Y-43896000D01*
D13*
X131699000Y-44704000D02*
X132461000Y-44704000D01*
X131699000Y-44259500D02*
X132461000Y-44259500D01*
X132461000Y-44259500D02*
X132080000Y-44640500D01*
X132080000Y-44640500D02*
X131699000Y-44259500D01*
D11*
X150114000Y-44977000D02*
X150114000Y-46101000D01*
X150114000Y-46101000D02*
X152146000Y-46101000D01*
X152146000Y-46101000D02*
X152146000Y-44977000D01*
X150114000Y-43896000D02*
X150114000Y-42799000D01*
X150114000Y-42799000D02*
X152146000Y-42799000D01*
X152146000Y-42799000D02*
X152146000Y-43896000D01*
D13*
X150749000Y-44704000D02*
X151511000Y-44704000D01*
X150749000Y-44259500D02*
X151511000Y-44259500D01*
X151511000Y-44259500D02*
X151130000Y-44640500D01*
X151130000Y-44640500D02*
X150749000Y-44259500D01*
D11*
X169164000Y-44977000D02*
X169164000Y-46101000D01*
X169164000Y-46101000D02*
X171196000Y-46101000D01*
X171196000Y-46101000D02*
X171196000Y-44977000D01*
X169164000Y-43896000D02*
X169164000Y-42799000D01*
X169164000Y-42799000D02*
X171196000Y-42799000D01*
X171196000Y-42799000D02*
X171196000Y-43896000D01*
D13*
X169799000Y-44704000D02*
X170561000Y-44704000D01*
X169799000Y-44259500D02*
X170561000Y-44259500D01*
X170561000Y-44259500D02*
X170180000Y-44640500D01*
X170180000Y-44640500D02*
X169799000Y-44259500D01*
D11*
X188214000Y-44977000D02*
X188214000Y-46101000D01*
X188214000Y-46101000D02*
X190246000Y-46101000D01*
X190246000Y-46101000D02*
X190246000Y-44977000D01*
X188214000Y-43896000D02*
X188214000Y-42799000D01*
X188214000Y-42799000D02*
X190246000Y-42799000D01*
X190246000Y-42799000D02*
X190246000Y-43896000D01*
D13*
X188849000Y-44704000D02*
X189611000Y-44704000D01*
X188849000Y-44259500D02*
X189611000Y-44259500D01*
X189611000Y-44259500D02*
X189230000Y-44640500D01*
X189230000Y-44640500D02*
X188849000Y-44259500D01*
D11*
X207264000Y-44977000D02*
X207264000Y-46101000D01*
X207264000Y-46101000D02*
X209296000Y-46101000D01*
X209296000Y-46101000D02*
X209296000Y-44977000D01*
X207264000Y-43896000D02*
X207264000Y-42799000D01*
X207264000Y-42799000D02*
X209296000Y-42799000D01*
X209296000Y-42799000D02*
X209296000Y-43896000D01*
D13*
X207899000Y-44704000D02*
X208661000Y-44704000D01*
X207899000Y-44259500D02*
X208661000Y-44259500D01*
X208661000Y-44259500D02*
X208280000Y-44640500D01*
X208280000Y-44640500D02*
X207899000Y-44259500D01*
D11*
X226314000Y-44977000D02*
X226314000Y-46101000D01*
X226314000Y-46101000D02*
X228346000Y-46101000D01*
X228346000Y-46101000D02*
X228346000Y-44977000D01*
X226314000Y-43896000D02*
X226314000Y-42799000D01*
X226314000Y-42799000D02*
X228346000Y-42799000D01*
X228346000Y-42799000D02*
X228346000Y-43896000D01*
D13*
X226949000Y-44704000D02*
X227711000Y-44704000D01*
X226949000Y-44259500D02*
X227711000Y-44259500D01*
X227711000Y-44259500D02*
X227330000Y-44640500D01*
X227330000Y-44640500D02*
X226949000Y-44259500D01*
D11*
X245364000Y-44977000D02*
X245364000Y-46101000D01*
X245364000Y-46101000D02*
X247396000Y-46101000D01*
X247396000Y-46101000D02*
X247396000Y-44977000D01*
X245364000Y-43896000D02*
X245364000Y-42799000D01*
X245364000Y-42799000D02*
X247396000Y-42799000D01*
X247396000Y-42799000D02*
X247396000Y-43896000D01*
D13*
X245999000Y-44704000D02*
X246761000Y-44704000D01*
X245999000Y-44259500D02*
X246761000Y-44259500D01*
X246761000Y-44259500D02*
X246380000Y-44640500D01*
X246380000Y-44640500D02*
X245999000Y-44259500D01*
D11*
X269494000Y-44977000D02*
X269494000Y-46101000D01*
X269494000Y-46101000D02*
X271526000Y-46101000D01*
X271526000Y-46101000D02*
X271526000Y-44977000D01*
X269494000Y-43896000D02*
X269494000Y-42799000D01*
X269494000Y-42799000D02*
X271526000Y-42799000D01*
X271526000Y-42799000D02*
X271526000Y-43896000D01*
D13*
X270129000Y-44704000D02*
X270891000Y-44704000D01*
X270129000Y-44259500D02*
X270891000Y-44259500D01*
X270891000Y-44259500D02*
X270510000Y-44640500D01*
X270510000Y-44640500D02*
X270129000Y-44259500D01*
D11*
X293624000Y-44977000D02*
X293624000Y-46101000D01*
X293624000Y-46101000D02*
X295656000Y-46101000D01*
X295656000Y-46101000D02*
X295656000Y-44977000D01*
X293624000Y-43896000D02*
X293624000Y-42799000D01*
X293624000Y-42799000D02*
X295656000Y-42799000D01*
X295656000Y-42799000D02*
X295656000Y-43896000D01*
D13*
X294259000Y-44704000D02*
X295021000Y-44704000D01*
X294259000Y-44259500D02*
X295021000Y-44259500D01*
X295021000Y-44259500D02*
X294640000Y-44640500D01*
X294640000Y-44640500D02*
X294259000Y-44259500D01*
D11*
X14224000Y-64027000D02*
X14224000Y-65151000D01*
X14224000Y-65151000D02*
X16256000Y-65151000D01*
X16256000Y-65151000D02*
X16256000Y-64027000D01*
X14224000Y-62946000D02*
X14224000Y-61849000D01*
X14224000Y-61849000D02*
X16256000Y-61849000D01*
X16256000Y-61849000D02*
X16256000Y-62946000D01*
D13*
X14859000Y-63754000D02*
X15621000Y-63754000D01*
X14859000Y-63309500D02*
X15621000Y-63309500D01*
X15621000Y-63309500D02*
X15240000Y-63690500D01*
X15240000Y-63690500D02*
X14859000Y-63309500D01*
D11*
X40894000Y-64027000D02*
X40894000Y-65151000D01*
X40894000Y-65151000D02*
X42926000Y-65151000D01*
X42926000Y-65151000D02*
X42926000Y-64027000D01*
X40894000Y-62946000D02*
X40894000Y-61849000D01*
X40894000Y-61849000D02*
X42926000Y-61849000D01*
X42926000Y-61849000D02*
X42926000Y-62946000D01*
D13*
X41529000Y-63754000D02*
X42291000Y-63754000D01*
X41529000Y-63309500D02*
X42291000Y-63309500D01*
X42291000Y-63309500D02*
X41910000Y-63690500D01*
X41910000Y-63690500D02*
X41529000Y-63309500D01*
D11*
X59944000Y-64027000D02*
X59944000Y-65151000D01*
X59944000Y-65151000D02*
X61976000Y-65151000D01*
X61976000Y-65151000D02*
X61976000Y-64027000D01*
X59944000Y-62946000D02*
X59944000Y-61849000D01*
X59944000Y-61849000D02*
X61976000Y-61849000D01*
X61976000Y-61849000D02*
X61976000Y-62946000D01*
D13*
X60579000Y-63754000D02*
X61341000Y-63754000D01*
X60579000Y-63309500D02*
X61341000Y-63309500D01*
X61341000Y-63309500D02*
X60960000Y-63690500D01*
X60960000Y-63690500D02*
X60579000Y-63309500D01*
D11*
X78994000Y-64027000D02*
X78994000Y-65151000D01*
X78994000Y-65151000D02*
X81026000Y-65151000D01*
X81026000Y-65151000D02*
X81026000Y-64027000D01*
X78994000Y-62946000D02*
X78994000Y-61849000D01*
X78994000Y-61849000D02*
X81026000Y-61849000D01*
X81026000Y-61849000D02*
X81026000Y-62946000D01*
D13*
X79629000Y-63754000D02*
X80391000Y-63754000D01*
X79629000Y-63309500D02*
X80391000Y-63309500D01*
X80391000Y-63309500D02*
X80010000Y-63690500D01*
X80010000Y-63690500D02*
X79629000Y-63309500D01*
D11*
X98044000Y-64027000D02*
X98044000Y-65151000D01*
X98044000Y-65151000D02*
X100076000Y-65151000D01*
X100076000Y-65151000D02*
X100076000Y-64027000D01*
X98044000Y-62946000D02*
X98044000Y-61849000D01*
X98044000Y-61849000D02*
X100076000Y-61849000D01*
X100076000Y-61849000D02*
X100076000Y-62946000D01*
D13*
X98679000Y-63754000D02*
X99441000Y-63754000D01*
X98679000Y-63309500D02*
X99441000Y-63309500D01*
X99441000Y-63309500D02*
X99060000Y-63690500D01*
X99060000Y-63690500D02*
X98679000Y-63309500D01*
D11*
X117094000Y-64027000D02*
X117094000Y-65151000D01*
X117094000Y-65151000D02*
X119126000Y-65151000D01*
X119126000Y-65151000D02*
X119126000Y-64027000D01*
X117094000Y-62946000D02*
X117094000Y-61849000D01*
X117094000Y-61849000D02*
X119126000Y-61849000D01*
X119126000Y-61849000D02*
X119126000Y-62946000D01*
D13*
X117729000Y-63754000D02*
X118491000Y-63754000D01*
X117729000Y-63309500D02*
X118491000Y-63309500D01*
X118491000Y-63309500D02*
X118110000Y-63690500D01*
X118110000Y-63690500D02*
X117729000Y-63309500D01*
D11*
X136144000Y-64027000D02*
X136144000Y-65151000D01*
X136144000Y-65151000D02*
X138176000Y-65151000D01*
X138176000Y-65151000D02*
X138176000Y-64027000D01*
X136144000Y-62946000D02*
X136144000Y-61849000D01*
X136144000Y-61849000D02*
X138176000Y-61849000D01*
X138176000Y-61849000D02*
X138176000Y-62946000D01*
D13*
X136779000Y-63754000D02*
X137541000Y-63754000D01*
X136779000Y-63309500D02*
X137541000Y-63309500D01*
X137541000Y-63309500D02*
X137160000Y-63690500D01*
X137160000Y-63690500D02*
X136779000Y-63309500D01*
D11*
X155194000Y-64027000D02*
X155194000Y-65151000D01*
X155194000Y-65151000D02*
X157226000Y-65151000D01*
X157226000Y-65151000D02*
X157226000Y-64027000D01*
X155194000Y-62946000D02*
X155194000Y-61849000D01*
X155194000Y-61849000D02*
X157226000Y-61849000D01*
X157226000Y-61849000D02*
X157226000Y-62946000D01*
D13*
X155829000Y-63754000D02*
X156591000Y-63754000D01*
X155829000Y-63309500D02*
X156591000Y-63309500D01*
X156591000Y-63309500D02*
X156210000Y-63690500D01*
X156210000Y-63690500D02*
X155829000Y-63309500D01*
D11*
X174244000Y-64027000D02*
X174244000Y-65151000D01*
X174244000Y-65151000D02*
X176276000Y-65151000D01*
X176276000Y-65151000D02*
X176276000Y-64027000D01*
X174244000Y-62946000D02*
X174244000Y-61849000D01*
X174244000Y-61849000D02*
X176276000Y-61849000D01*
X176276000Y-61849000D02*
X176276000Y-62946000D01*
D13*
X174879000Y-63754000D02*
X175641000Y-63754000D01*
X174879000Y-63309500D02*
X175641000Y-63309500D01*
X175641000Y-63309500D02*
X175260000Y-63690500D01*
X175260000Y-63690500D02*
X174879000Y-63309500D01*
D11*
X193294000Y-64027000D02*
X193294000Y-65151000D01*
X193294000Y-65151000D02*
X195326000Y-65151000D01*
X195326000Y-65151000D02*
X195326000Y-64027000D01*
X193294000Y-62946000D02*
X193294000Y-61849000D01*
X193294000Y-61849000D02*
X195326000Y-61849000D01*
X195326000Y-61849000D02*
X195326000Y-62946000D01*
D13*
X193929000Y-63754000D02*
X194691000Y-63754000D01*
X193929000Y-63309500D02*
X194691000Y-63309500D01*
X194691000Y-63309500D02*
X194310000Y-63690500D01*
X194310000Y-63690500D02*
X193929000Y-63309500D01*
D11*
X212344000Y-64027000D02*
X212344000Y-65151000D01*
X212344000Y-65151000D02*
X214376000Y-65151000D01*
X214376000Y-65151000D02*
X214376000Y-64027000D01*
X212344000Y-62946000D02*
X212344000Y-61849000D01*
X212344000Y-61849000D02*
X214376000Y-61849000D01*
X214376000Y-61849000D02*
X214376000Y-62946000D01*
D13*
X212979000Y-63754000D02*
X213741000Y-63754000D01*
X212979000Y-63309500D02*
X213741000Y-63309500D01*
X213741000Y-63309500D02*
X213360000Y-63690500D01*
X213360000Y-63690500D02*
X212979000Y-63309500D01*
D11*
X231394000Y-64027000D02*
X231394000Y-65151000D01*
X231394000Y-65151000D02*
X233426000Y-65151000D01*
X233426000Y-65151000D02*
X233426000Y-64027000D01*
X231394000Y-62946000D02*
X231394000Y-61849000D01*
X231394000Y-61849000D02*
X233426000Y-61849000D01*
X233426000Y-61849000D02*
X233426000Y-62946000D01*
D13*
X232029000Y-63754000D02*
X232791000Y-63754000D01*
X232029000Y-63309500D02*
X232791000Y-63309500D01*
X232791000Y-63309500D02*
X232410000Y-63690500D01*
X232410000Y-63690500D02*
X232029000Y-63309500D01*
D11*
X260604000Y-64027000D02*
X260604000Y-65151000D01*
X260604000Y-65151000D02*
X262636000Y-65151000D01*
X262636000Y-65151000D02*
X262636000Y-64027000D01*
X260604000Y-62946000D02*
X260604000Y-61849000D01*
X260604000Y-61849000D02*
X262636000Y-61849000D01*
X262636000Y-61849000D02*
X262636000Y-62946000D01*
D13*
X261239000Y-63754000D02*
X262001000Y-63754000D01*
X261239000Y-63309500D02*
X262001000Y-63309500D01*
X262001000Y-63309500D02*
X261620000Y-63690500D01*
X261620000Y-63690500D02*
X261239000Y-63309500D01*
D11*
X293624000Y-64027000D02*
X293624000Y-65151000D01*
X293624000Y-65151000D02*
X295656000Y-65151000D01*
X295656000Y-65151000D02*
X295656000Y-64027000D01*
X293624000Y-62946000D02*
X293624000Y-61849000D01*
X293624000Y-61849000D02*
X295656000Y-61849000D01*
X295656000Y-61849000D02*
X295656000Y-62946000D01*
D13*
X294259000Y-63754000D02*
X295021000Y-63754000D01*
X294259000Y-63309500D02*
X295021000Y-63309500D01*
X295021000Y-63309500D02*
X294640000Y-63690500D01*
X294640000Y-63690500D02*
X294259000Y-63309500D01*
D11*
X18034000Y-83077000D02*
X18034000Y-84201000D01*
X18034000Y-84201000D02*
X20066000Y-84201000D01*
X20066000Y-84201000D02*
X20066000Y-83077000D01*
X18034000Y-81996000D02*
X18034000Y-80899000D01*
X18034000Y-80899000D02*
X20066000Y-80899000D01*
X20066000Y-80899000D02*
X20066000Y-81996000D01*
D13*
X18669000Y-82804000D02*
X19431000Y-82804000D01*
X18669000Y-82359500D02*
X19431000Y-82359500D01*
X19431000Y-82359500D02*
X19050000Y-82740500D01*
X19050000Y-82740500D02*
X18669000Y-82359500D01*
D11*
X51054000Y-83077000D02*
X51054000Y-84201000D01*
X51054000Y-84201000D02*
X53086000Y-84201000D01*
X53086000Y-84201000D02*
X53086000Y-83077000D01*
X51054000Y-81996000D02*
X51054000Y-80899000D01*
X51054000Y-80899000D02*
X53086000Y-80899000D01*
X53086000Y-80899000D02*
X53086000Y-81996000D01*
D13*
X51689000Y-82804000D02*
X52451000Y-82804000D01*
X51689000Y-82359500D02*
X52451000Y-82359500D01*
X52451000Y-82359500D02*
X52070000Y-82740500D01*
X52070000Y-82740500D02*
X51689000Y-82359500D01*
D11*
X70104000Y-81807000D02*
X70104000Y-82931000D01*
X70104000Y-82931000D02*
X72136000Y-82931000D01*
X72136000Y-82931000D02*
X72136000Y-81807000D01*
X70104000Y-80726000D02*
X70104000Y-79629000D01*
X70104000Y-79629000D02*
X72136000Y-79629000D01*
X72136000Y-79629000D02*
X72136000Y-80726000D01*
D13*
X70739000Y-81534000D02*
X71501000Y-81534000D01*
X70739000Y-81089500D02*
X71501000Y-81089500D01*
X71501000Y-81089500D02*
X71120000Y-81470500D01*
X71120000Y-81470500D02*
X70739000Y-81089500D01*
D11*
X89154000Y-83077000D02*
X89154000Y-84201000D01*
X89154000Y-84201000D02*
X91186000Y-84201000D01*
X91186000Y-84201000D02*
X91186000Y-83077000D01*
X89154000Y-81996000D02*
X89154000Y-80899000D01*
X89154000Y-80899000D02*
X91186000Y-80899000D01*
X91186000Y-80899000D02*
X91186000Y-81996000D01*
D13*
X89789000Y-82804000D02*
X90551000Y-82804000D01*
X89789000Y-82359500D02*
X90551000Y-82359500D01*
X90551000Y-82359500D02*
X90170000Y-82740500D01*
X90170000Y-82740500D02*
X89789000Y-82359500D01*
D11*
X108204000Y-83077000D02*
X108204000Y-84201000D01*
X108204000Y-84201000D02*
X110236000Y-84201000D01*
X110236000Y-84201000D02*
X110236000Y-83077000D01*
X108204000Y-81996000D02*
X108204000Y-80899000D01*
X108204000Y-80899000D02*
X110236000Y-80899000D01*
X110236000Y-80899000D02*
X110236000Y-81996000D01*
D13*
X108839000Y-82804000D02*
X109601000Y-82804000D01*
X108839000Y-82359500D02*
X109601000Y-82359500D01*
X109601000Y-82359500D02*
X109220000Y-82740500D01*
X109220000Y-82740500D02*
X108839000Y-82359500D01*
D11*
X127254000Y-83077000D02*
X127254000Y-84201000D01*
X127254000Y-84201000D02*
X129286000Y-84201000D01*
X129286000Y-84201000D02*
X129286000Y-83077000D01*
X127254000Y-81996000D02*
X127254000Y-80899000D01*
X127254000Y-80899000D02*
X129286000Y-80899000D01*
X129286000Y-80899000D02*
X129286000Y-81996000D01*
D13*
X127889000Y-82804000D02*
X128651000Y-82804000D01*
X127889000Y-82359500D02*
X128651000Y-82359500D01*
X128651000Y-82359500D02*
X128270000Y-82740500D01*
X128270000Y-82740500D02*
X127889000Y-82359500D01*
D11*
X146304000Y-83077000D02*
X146304000Y-84201000D01*
X146304000Y-84201000D02*
X148336000Y-84201000D01*
X148336000Y-84201000D02*
X148336000Y-83077000D01*
X146304000Y-81996000D02*
X146304000Y-80899000D01*
X146304000Y-80899000D02*
X148336000Y-80899000D01*
X148336000Y-80899000D02*
X148336000Y-81996000D01*
D13*
X146939000Y-82804000D02*
X147701000Y-82804000D01*
X146939000Y-82359500D02*
X147701000Y-82359500D01*
X147701000Y-82359500D02*
X147320000Y-82740500D01*
X147320000Y-82740500D02*
X146939000Y-82359500D01*
D11*
X165354000Y-83077000D02*
X165354000Y-84201000D01*
X165354000Y-84201000D02*
X167386000Y-84201000D01*
X167386000Y-84201000D02*
X167386000Y-83077000D01*
X165354000Y-81996000D02*
X165354000Y-80899000D01*
X165354000Y-80899000D02*
X167386000Y-80899000D01*
X167386000Y-80899000D02*
X167386000Y-81996000D01*
D13*
X165989000Y-82804000D02*
X166751000Y-82804000D01*
X165989000Y-82359500D02*
X166751000Y-82359500D01*
X166751000Y-82359500D02*
X166370000Y-82740500D01*
X166370000Y-82740500D02*
X165989000Y-82359500D01*
D11*
X184404000Y-83077000D02*
X184404000Y-84201000D01*
X184404000Y-84201000D02*
X186436000Y-84201000D01*
X186436000Y-84201000D02*
X186436000Y-83077000D01*
X184404000Y-81996000D02*
X184404000Y-80899000D01*
X184404000Y-80899000D02*
X186436000Y-80899000D01*
X186436000Y-80899000D02*
X186436000Y-81996000D01*
D13*
X185039000Y-82804000D02*
X185801000Y-82804000D01*
X185039000Y-82359500D02*
X185801000Y-82359500D01*
X185801000Y-82359500D02*
X185420000Y-82740500D01*
X185420000Y-82740500D02*
X185039000Y-82359500D01*
D11*
X203454000Y-83077000D02*
X203454000Y-84201000D01*
X203454000Y-84201000D02*
X205486000Y-84201000D01*
X205486000Y-84201000D02*
X205486000Y-83077000D01*
X203454000Y-81996000D02*
X203454000Y-80899000D01*
X203454000Y-80899000D02*
X205486000Y-80899000D01*
X205486000Y-80899000D02*
X205486000Y-81996000D01*
D13*
X204089000Y-82804000D02*
X204851000Y-82804000D01*
X204089000Y-82359500D02*
X204851000Y-82359500D01*
X204851000Y-82359500D02*
X204470000Y-82740500D01*
X204470000Y-82740500D02*
X204089000Y-82359500D01*
D11*
X222504000Y-83077000D02*
X222504000Y-84201000D01*
X222504000Y-84201000D02*
X224536000Y-84201000D01*
X224536000Y-84201000D02*
X224536000Y-83077000D01*
X222504000Y-81996000D02*
X222504000Y-80899000D01*
X222504000Y-80899000D02*
X224536000Y-80899000D01*
X224536000Y-80899000D02*
X224536000Y-81996000D01*
D13*
X223139000Y-82804000D02*
X223901000Y-82804000D01*
X223139000Y-82359500D02*
X223901000Y-82359500D01*
X223901000Y-82359500D02*
X223520000Y-82740500D01*
X223520000Y-82740500D02*
X223139000Y-82359500D01*
D11*
X249174000Y-83077000D02*
X249174000Y-84201000D01*
X249174000Y-84201000D02*
X251206000Y-84201000D01*
X251206000Y-84201000D02*
X251206000Y-83077000D01*
X249174000Y-81996000D02*
X249174000Y-80899000D01*
X249174000Y-80899000D02*
X251206000Y-80899000D01*
X251206000Y-80899000D02*
X251206000Y-81996000D01*
D13*
X249809000Y-82804000D02*
X250571000Y-82804000D01*
X249809000Y-82359500D02*
X250571000Y-82359500D01*
X250571000Y-82359500D02*
X250190000Y-82740500D01*
X250190000Y-82740500D02*
X249809000Y-82359500D01*
D11*
X274574000Y-83077000D02*
X274574000Y-84201000D01*
X274574000Y-84201000D02*
X276606000Y-84201000D01*
X276606000Y-84201000D02*
X276606000Y-83077000D01*
X274574000Y-81996000D02*
X274574000Y-80899000D01*
X274574000Y-80899000D02*
X276606000Y-80899000D01*
X276606000Y-80899000D02*
X276606000Y-81996000D01*
D13*
X275209000Y-82804000D02*
X275971000Y-82804000D01*
X275209000Y-82359500D02*
X275971000Y-82359500D01*
X275971000Y-82359500D02*
X275590000Y-82740500D01*
X275590000Y-82740500D02*
X275209000Y-82359500D01*
D11*
X293624000Y-83077000D02*
X293624000Y-84201000D01*
X293624000Y-84201000D02*
X295656000Y-84201000D01*
X295656000Y-84201000D02*
X295656000Y-83077000D01*
X293624000Y-81996000D02*
X293624000Y-80899000D01*
X293624000Y-80899000D02*
X295656000Y-80899000D01*
X295656000Y-80899000D02*
X295656000Y-81996000D01*
D13*
X294259000Y-82804000D02*
X295021000Y-82804000D01*
X294259000Y-82359500D02*
X295021000Y-82359500D01*
X295021000Y-82359500D02*
X294640000Y-82740500D01*
X294640000Y-82740500D02*
X294259000Y-82359500D01*
D11*
X10414000Y-102127000D02*
X10414000Y-103251000D01*
X10414000Y-103251000D02*
X12446000Y-103251000D01*
X12446000Y-103251000D02*
X12446000Y-102127000D01*
X10414000Y-101046000D02*
X10414000Y-99949000D01*
X10414000Y-99949000D02*
X12446000Y-99949000D01*
X12446000Y-99949000D02*
X12446000Y-101046000D01*
D13*
X11049000Y-101854000D02*
X11811000Y-101854000D01*
X11049000Y-101409500D02*
X11811000Y-101409500D01*
X11811000Y-101409500D02*
X11430000Y-101790500D01*
X11430000Y-101790500D02*
X11049000Y-101409500D01*
D11*
X34544000Y-102127000D02*
X34544000Y-103251000D01*
X34544000Y-103251000D02*
X36576000Y-103251000D01*
X36576000Y-103251000D02*
X36576000Y-102127000D01*
X34544000Y-101046000D02*
X34544000Y-99949000D01*
X34544000Y-99949000D02*
X36576000Y-99949000D01*
X36576000Y-99949000D02*
X36576000Y-101046000D01*
D13*
X35179000Y-101854000D02*
X35941000Y-101854000D01*
X35179000Y-101409500D02*
X35941000Y-101409500D01*
X35941000Y-101409500D02*
X35560000Y-101790500D01*
X35560000Y-101790500D02*
X35179000Y-101409500D01*
D11*
X58674000Y-102127000D02*
X58674000Y-103251000D01*
X58674000Y-103251000D02*
X60706000Y-103251000D01*
X60706000Y-103251000D02*
X60706000Y-102127000D01*
X58674000Y-101046000D02*
X58674000Y-99949000D01*
X58674000Y-99949000D02*
X60706000Y-99949000D01*
X60706000Y-99949000D02*
X60706000Y-101046000D01*
D13*
X59309000Y-101854000D02*
X60071000Y-101854000D01*
X59309000Y-101409500D02*
X60071000Y-101409500D01*
X60071000Y-101409500D02*
X59690000Y-101790500D01*
X59690000Y-101790500D02*
X59309000Y-101409500D01*
D11*
X129794000Y-102127000D02*
X129794000Y-103251000D01*
X129794000Y-103251000D02*
X131826000Y-103251000D01*
X131826000Y-103251000D02*
X131826000Y-102127000D01*
X129794000Y-101046000D02*
X129794000Y-99949000D01*
X129794000Y-99949000D02*
X131826000Y-99949000D01*
X131826000Y-99949000D02*
X131826000Y-101046000D01*
D13*
X130429000Y-101854000D02*
X131191000Y-101854000D01*
X130429000Y-101409500D02*
X131191000Y-101409500D01*
X131191000Y-101409500D02*
X130810000Y-101790500D01*
X130810000Y-101790500D02*
X130429000Y-101409500D01*
D11*
X198374000Y-102127000D02*
X198374000Y-103251000D01*
X198374000Y-103251000D02*
X200406000Y-103251000D01*
X200406000Y-103251000D02*
X200406000Y-102127000D01*
X198374000Y-101046000D02*
X198374000Y-99949000D01*
X198374000Y-99949000D02*
X200406000Y-99949000D01*
X200406000Y-99949000D02*
X200406000Y-101046000D01*
D13*
X199009000Y-101854000D02*
X199771000Y-101854000D01*
X199009000Y-101409500D02*
X199771000Y-101409500D01*
X199771000Y-101409500D02*
X199390000Y-101790500D01*
X199390000Y-101790500D02*
X199009000Y-101409500D01*
D11*
X217424000Y-102127000D02*
X217424000Y-103251000D01*
X217424000Y-103251000D02*
X219456000Y-103251000D01*
X219456000Y-103251000D02*
X219456000Y-102127000D01*
X217424000Y-101046000D02*
X217424000Y-99949000D01*
X217424000Y-99949000D02*
X219456000Y-99949000D01*
X219456000Y-99949000D02*
X219456000Y-101046000D01*
D13*
X218059000Y-101854000D02*
X218821000Y-101854000D01*
X218059000Y-101409500D02*
X218821000Y-101409500D01*
X218821000Y-101409500D02*
X218440000Y-101790500D01*
X218440000Y-101790500D02*
X218059000Y-101409500D01*
D11*
X236474000Y-102127000D02*
X236474000Y-103251000D01*
X236474000Y-103251000D02*
X238506000Y-103251000D01*
X238506000Y-103251000D02*
X238506000Y-102127000D01*
X236474000Y-101046000D02*
X236474000Y-99949000D01*
X236474000Y-99949000D02*
X238506000Y-99949000D01*
X238506000Y-99949000D02*
X238506000Y-101046000D01*
D13*
X237109000Y-101854000D02*
X237871000Y-101854000D01*
X237109000Y-101409500D02*
X237871000Y-101409500D01*
X237871000Y-101409500D02*
X237490000Y-101790500D01*
X237490000Y-101790500D02*
X237109000Y-101409500D01*
D11*
X255524000Y-102127000D02*
X255524000Y-103251000D01*
X255524000Y-103251000D02*
X257556000Y-103251000D01*
X257556000Y-103251000D02*
X257556000Y-102127000D01*
X255524000Y-101046000D02*
X255524000Y-99949000D01*
X255524000Y-99949000D02*
X257556000Y-99949000D01*
X257556000Y-99949000D02*
X257556000Y-101046000D01*
D13*
X256159000Y-101854000D02*
X256921000Y-101854000D01*
X256159000Y-101409500D02*
X256921000Y-101409500D01*
X256921000Y-101409500D02*
X256540000Y-101790500D01*
X256540000Y-101790500D02*
X256159000Y-101409500D01*
D11*
X274574000Y-102127000D02*
X274574000Y-103251000D01*
X274574000Y-103251000D02*
X276606000Y-103251000D01*
X276606000Y-103251000D02*
X276606000Y-102127000D01*
X274574000Y-101046000D02*
X274574000Y-99949000D01*
X274574000Y-99949000D02*
X276606000Y-99949000D01*
X276606000Y-99949000D02*
X276606000Y-101046000D01*
D13*
X275209000Y-101854000D02*
X275971000Y-101854000D01*
X275209000Y-101409500D02*
X275971000Y-101409500D01*
X275971000Y-101409500D02*
X275590000Y-101790500D01*
X275590000Y-101790500D02*
X275209000Y-101409500D01*
D11*
X293624000Y-102127000D02*
X293624000Y-103251000D01*
X293624000Y-103251000D02*
X295656000Y-103251000D01*
X295656000Y-103251000D02*
X295656000Y-102127000D01*
X293624000Y-101046000D02*
X293624000Y-99949000D01*
X293624000Y-99949000D02*
X295656000Y-99949000D01*
X295656000Y-99949000D02*
X295656000Y-101046000D01*
D13*
X294259000Y-101854000D02*
X295021000Y-101854000D01*
X294259000Y-101409500D02*
X295021000Y-101409500D01*
X295021000Y-101409500D02*
X294640000Y-101790500D01*
X294640000Y-101790500D02*
X294259000Y-101409500D01*
D14*
X87579200Y-98602800D02*
X97586800Y-98602800D01*
X97586800Y-98602800D02*
X97586800Y-88595200D01*
X88061800Y-88595200D02*
X97586800Y-88595200D01*
X87579200Y-89077800D02*
X87579200Y-98602800D01*
X88061800Y-88595200D02*
X87579200Y-89077800D01*
D15*
X89408000Y-89789000D02*
G75*
G03X89408000Y-89789000I-635000J0D01*
G01*
D16*
X11211500Y2878750D02*
X12862500Y2878750D01*
X12862500Y2878750D02*
X12862500Y11260750D01*
X12862500Y11260750D02*
X5242500Y11260750D01*
X5242500Y11260750D02*
X5242500Y2878750D01*
X5242500Y2878750D02*
X7020500Y2878750D01*
D12*
X7987000Y-3140000D02*
X7987000Y-1940000D01*
X6237000Y-1940000D02*
X6237000Y-3140000D01*
X9285000Y-1940000D02*
X9285000Y-3140000D01*
X11035000Y-3140000D02*
X11035000Y-1940000D01*
X83855000Y-103364000D02*
X85055000Y-103364000D01*
X85055000Y-101614000D02*
X83855000Y-101614000D01*
X107153000Y-87009000D02*
X105953000Y-87009000D01*
X105953000Y-88759000D02*
X107153000Y-88759000D01*
D17*
X118364000Y-92202000D02*
X118364000Y-86360000D01*
X118364000Y-86360000D02*
X115062000Y-86360000D01*
X115062000Y-86360000D02*
X115062000Y-92202000D01*
X115062000Y-92202000D02*
X118364000Y-92202000D01*
D11*
X101092000Y-97155000D02*
X104394000Y-97155000D01*
X104394000Y-97155000D02*
X104394000Y-93091000D01*
X104394000Y-93091000D02*
X101092000Y-93091000D01*
X101092000Y-93091000D02*
X101092000Y-97155000D01*
D12*
X110280143Y-92162334D02*
X110327762Y-92114715D01*
X110375381Y-91971858D01*
X110375381Y-91876620D01*
X110327762Y-91733762D01*
X110232524Y-91638524D01*
X110137286Y-91590905D01*
X109946810Y-91543286D01*
X109803952Y-91543286D01*
X109613476Y-91590905D01*
X109518238Y-91638524D01*
X109423000Y-91733762D01*
X109375381Y-91876620D01*
X109375381Y-91971858D01*
X109423000Y-92114715D01*
X109470619Y-92162334D01*
X110375381Y-93114715D02*
X110375381Y-92543286D01*
X110375381Y-92829000D02*
X109375381Y-92829000D01*
X109518238Y-92733762D01*
X109613476Y-92638524D01*
X109661095Y-92543286D01*
X106080143Y-97242334D02*
X106127762Y-97194715D01*
X106175381Y-97051858D01*
X106175381Y-96956620D01*
X106127762Y-96813762D01*
X106032524Y-96718524D01*
X105937286Y-96670905D01*
X105746810Y-96623286D01*
X105603952Y-96623286D01*
X105413476Y-96670905D01*
X105318238Y-96718524D01*
X105223000Y-96813762D01*
X105175381Y-96956620D01*
X105175381Y-97051858D01*
X105223000Y-97194715D01*
X105270619Y-97242334D01*
X105270619Y-97623286D02*
X105223000Y-97670905D01*
X105175381Y-97766143D01*
X105175381Y-98004239D01*
X105223000Y-98099477D01*
X105270619Y-98147096D01*
X105365857Y-98194715D01*
X105461095Y-98194715D01*
X105603952Y-98147096D01*
X106175381Y-97575667D01*
X106175381Y-98194715D01*
X99734666Y-89071143D02*
X99782285Y-89118762D01*
X99925142Y-89166381D01*
X100020380Y-89166381D01*
X100163238Y-89118762D01*
X100258476Y-89023524D01*
X100306095Y-88928286D01*
X100353714Y-88737810D01*
X100353714Y-88594952D01*
X100306095Y-88404476D01*
X100258476Y-88309238D01*
X100163238Y-88214000D01*
X100020380Y-88166381D01*
X99925142Y-88166381D01*
X99782285Y-88214000D01*
X99734666Y-88261619D01*
X99401333Y-88166381D02*
X98782285Y-88166381D01*
X99115619Y-88547333D01*
X98972761Y-88547333D01*
X98877523Y-88594952D01*
X98829904Y-88642571D01*
X98782285Y-88737810D01*
X98782285Y-88975905D01*
X98829904Y-89071143D01*
X98877523Y-89118762D01*
X98972761Y-89166381D01*
X99258476Y-89166381D01*
X99353714Y-89118762D01*
X99401333Y-89071143D01*
X81954666Y-99866143D02*
X82002285Y-99913762D01*
X82145142Y-99961381D01*
X82240380Y-99961381D01*
X82383238Y-99913762D01*
X82478476Y-99818524D01*
X82526095Y-99723286D01*
X82573714Y-99532810D01*
X82573714Y-99389952D01*
X82526095Y-99199476D01*
X82478476Y-99104238D01*
X82383238Y-99009000D01*
X82240380Y-98961381D01*
X82145142Y-98961381D01*
X82002285Y-99009000D01*
X81954666Y-99056619D01*
X81097523Y-99294714D02*
X81097523Y-99961381D01*
X81335619Y-98913762D02*
X81573714Y-99628048D01*
X80954666Y-99628048D01*
X81954666Y-88046143D02*
X82002285Y-88093762D01*
X82145142Y-88141381D01*
X82240380Y-88141381D01*
X82383238Y-88093762D01*
X82478476Y-87998524D01*
X82526095Y-87903286D01*
X82573714Y-87712810D01*
X82573714Y-87569952D01*
X82526095Y-87379476D01*
X82478476Y-87284238D01*
X82383238Y-87189000D01*
X82240380Y-87141381D01*
X82145142Y-87141381D01*
X82002285Y-87189000D01*
X81954666Y-87236619D01*
X81049904Y-87141381D02*
X81526095Y-87141381D01*
X81573714Y-87617571D01*
X81526095Y-87569952D01*
X81430857Y-87522333D01*
X81192761Y-87522333D01*
X81097523Y-87569952D01*
X81049904Y-87617571D01*
X81002285Y-87712810D01*
X81002285Y-87950905D01*
X81049904Y-88046143D01*
X81097523Y-88093762D01*
X81192761Y-88141381D01*
X81430857Y-88141381D01*
X81526095Y-88093762D01*
X81573714Y-88046143D01*
X102909666Y-101136143D02*
X102957285Y-101183762D01*
X103100142Y-101231381D01*
X103195380Y-101231381D01*
X103338238Y-101183762D01*
X103433476Y-101088524D01*
X103481095Y-100993286D01*
X103528714Y-100802810D01*
X103528714Y-100659952D01*
X103481095Y-100469476D01*
X103433476Y-100374238D01*
X103338238Y-100279000D01*
X103195380Y-100231381D01*
X103100142Y-100231381D01*
X102957285Y-100279000D01*
X102909666Y-100326619D01*
X102052523Y-100231381D02*
X102243000Y-100231381D01*
X102338238Y-100279000D01*
X102385857Y-100326619D01*
X102481095Y-100469476D01*
X102528714Y-100659952D01*
X102528714Y-101040905D01*
X102481095Y-101136143D01*
X102433476Y-101183762D01*
X102338238Y-101231381D01*
X102147761Y-101231381D01*
X102052523Y-101183762D01*
X102004904Y-101136143D01*
X101957285Y-101040905D01*
X101957285Y-100802810D01*
X102004904Y-100707571D01*
X102052523Y-100659952D01*
X102147761Y-100612333D01*
X102338238Y-100612333D01*
X102433476Y-100659952D01*
X102481095Y-100707571D01*
X102528714Y-100802810D01*
X102909666Y-93516143D02*
X102957285Y-93563762D01*
X103100142Y-93611381D01*
X103195380Y-93611381D01*
X103338238Y-93563762D01*
X103433476Y-93468524D01*
X103481095Y-93373286D01*
X103528714Y-93182810D01*
X103528714Y-93039952D01*
X103481095Y-92849476D01*
X103433476Y-92754238D01*
X103338238Y-92659000D01*
X103195380Y-92611381D01*
X103100142Y-92611381D01*
X102957285Y-92659000D01*
X102909666Y-92706619D01*
X102576333Y-92611381D02*
X101909666Y-92611381D01*
X102338238Y-93611381D01*
X-4024334Y-12236143D02*
X-3976715Y-12283762D01*
X-3833858Y-12331381D01*
X-3738620Y-12331381D01*
X-3595762Y-12283762D01*
X-3500524Y-12188524D01*
X-3452905Y-12093286D01*
X-3405286Y-11902810D01*
X-3405286Y-11759952D01*
X-3452905Y-11569476D01*
X-3500524Y-11474238D01*
X-3595762Y-11379000D01*
X-3738620Y-11331381D01*
X-3833858Y-11331381D01*
X-3976715Y-11379000D01*
X-4024334Y-11426619D01*
X-4595762Y-11759952D02*
X-4500524Y-11712333D01*
X-4452905Y-11664714D01*
X-4405286Y-11569476D01*
X-4405286Y-11521857D01*
X-4452905Y-11426619D01*
X-4500524Y-11379000D01*
X-4595762Y-11331381D01*
X-4786239Y-11331381D01*
X-4881477Y-11379000D01*
X-4929096Y-11426619D01*
X-4976715Y-11521857D01*
X-4976715Y-11569476D01*
X-4929096Y-11664714D01*
X-4881477Y-11712333D01*
X-4786239Y-11759952D01*
X-4595762Y-11759952D01*
X-4500524Y-11807571D01*
X-4452905Y-11855190D01*
X-4405286Y-11950429D01*
X-4405286Y-12140905D01*
X-4452905Y-12236143D01*
X-4500524Y-12283762D01*
X-4595762Y-12331381D01*
X-4786239Y-12331381D01*
X-4881477Y-12283762D01*
X-4929096Y-12236143D01*
X-4976715Y-12140905D01*
X-4976715Y-11950429D01*
X-4929096Y-11855190D01*
X-4881477Y-11807571D01*
X-4786239Y-11759952D01*
D18*
X6137976Y-6167881D02*
X5202976Y-6167881D01*
X5202976Y-6390500D01*
X5247500Y-6524072D01*
X5336548Y-6613119D01*
X5425595Y-6657643D01*
X5603690Y-6702167D01*
X5737262Y-6702167D01*
X5915357Y-6657643D01*
X6004405Y-6613119D01*
X6093452Y-6524072D01*
X6137976Y-6390500D01*
X6137976Y-6167881D01*
X6137976Y-7592643D02*
X6137976Y-7058357D01*
X6137976Y-7325500D02*
X5202976Y-7325500D01*
X5336548Y-7236452D01*
X5425595Y-7147405D01*
X5470119Y-7058357D01*
X30267976Y-6167881D02*
X29332976Y-6167881D01*
X29332976Y-6390500D01*
X29377500Y-6524072D01*
X29466548Y-6613119D01*
X29555595Y-6657643D01*
X29733690Y-6702167D01*
X29867262Y-6702167D01*
X30045357Y-6657643D01*
X30134405Y-6613119D01*
X30223452Y-6524072D01*
X30267976Y-6390500D01*
X30267976Y-6167881D01*
X29422024Y-7058357D02*
X29377500Y-7102881D01*
X29332976Y-7191929D01*
X29332976Y-7414548D01*
X29377500Y-7503595D01*
X29422024Y-7548119D01*
X29511071Y-7592643D01*
X29600119Y-7592643D01*
X29733690Y-7548119D01*
X30267976Y-7013833D01*
X30267976Y-7592643D01*
X49317976Y-6167881D02*
X48382976Y-6167881D01*
X48382976Y-6390500D01*
X48427500Y-6524072D01*
X48516548Y-6613119D01*
X48605595Y-6657643D01*
X48783690Y-6702167D01*
X48917262Y-6702167D01*
X49095357Y-6657643D01*
X49184405Y-6613119D01*
X49273452Y-6524072D01*
X49317976Y-6390500D01*
X49317976Y-6167881D01*
X48382976Y-7013833D02*
X48382976Y-7592643D01*
X48739167Y-7280976D01*
X48739167Y-7414548D01*
X48783690Y-7503595D01*
X48828214Y-7548119D01*
X48917262Y-7592643D01*
X49139881Y-7592643D01*
X49228929Y-7548119D01*
X49273452Y-7503595D01*
X49317976Y-7414548D01*
X49317976Y-7147405D01*
X49273452Y-7058357D01*
X49228929Y-7013833D01*
X68367976Y-6167881D02*
X67432976Y-6167881D01*
X67432976Y-6390500D01*
X67477500Y-6524072D01*
X67566548Y-6613119D01*
X67655595Y-6657643D01*
X67833690Y-6702167D01*
X67967262Y-6702167D01*
X68145357Y-6657643D01*
X68234405Y-6613119D01*
X68323452Y-6524072D01*
X68367976Y-6390500D01*
X68367976Y-6167881D01*
X67744643Y-7503595D02*
X68367976Y-7503595D01*
X67388452Y-7280976D02*
X68056310Y-7058357D01*
X68056310Y-7637167D01*
X87417976Y-6167881D02*
X86482976Y-6167881D01*
X86482976Y-6390500D01*
X86527500Y-6524072D01*
X86616548Y-6613119D01*
X86705595Y-6657643D01*
X86883690Y-6702167D01*
X87017262Y-6702167D01*
X87195357Y-6657643D01*
X87284405Y-6613119D01*
X87373452Y-6524072D01*
X87417976Y-6390500D01*
X87417976Y-6167881D01*
X86482976Y-7548119D02*
X86482976Y-7102881D01*
X86928214Y-7058357D01*
X86883690Y-7102881D01*
X86839167Y-7191929D01*
X86839167Y-7414548D01*
X86883690Y-7503595D01*
X86928214Y-7548119D01*
X87017262Y-7592643D01*
X87239881Y-7592643D01*
X87328929Y-7548119D01*
X87373452Y-7503595D01*
X87417976Y-7414548D01*
X87417976Y-7191929D01*
X87373452Y-7102881D01*
X87328929Y-7058357D01*
X106467976Y-6167881D02*
X105532976Y-6167881D01*
X105532976Y-6390500D01*
X105577500Y-6524072D01*
X105666548Y-6613119D01*
X105755595Y-6657643D01*
X105933690Y-6702167D01*
X106067262Y-6702167D01*
X106245357Y-6657643D01*
X106334405Y-6613119D01*
X106423452Y-6524072D01*
X106467976Y-6390500D01*
X106467976Y-6167881D01*
X105532976Y-7503595D02*
X105532976Y-7325500D01*
X105577500Y-7236452D01*
X105622024Y-7191929D01*
X105755595Y-7102881D01*
X105933690Y-7058357D01*
X106289881Y-7058357D01*
X106378929Y-7102881D01*
X106423452Y-7147405D01*
X106467976Y-7236452D01*
X106467976Y-7414548D01*
X106423452Y-7503595D01*
X106378929Y-7548119D01*
X106289881Y-7592643D01*
X106067262Y-7592643D01*
X105978214Y-7548119D01*
X105933690Y-7503595D01*
X105889167Y-7414548D01*
X105889167Y-7236452D01*
X105933690Y-7147405D01*
X105978214Y-7102881D01*
X106067262Y-7058357D01*
X125517976Y-6167881D02*
X124582976Y-6167881D01*
X124582976Y-6390500D01*
X124627500Y-6524072D01*
X124716548Y-6613119D01*
X124805595Y-6657643D01*
X124983690Y-6702167D01*
X125117262Y-6702167D01*
X125295357Y-6657643D01*
X125384405Y-6613119D01*
X125473452Y-6524072D01*
X125517976Y-6390500D01*
X125517976Y-6167881D01*
X124582976Y-7013833D02*
X124582976Y-7637167D01*
X125517976Y-7236452D01*
X144567976Y-6167881D02*
X143632976Y-6167881D01*
X143632976Y-6390500D01*
X143677500Y-6524072D01*
X143766548Y-6613119D01*
X143855595Y-6657643D01*
X144033690Y-6702167D01*
X144167262Y-6702167D01*
X144345357Y-6657643D01*
X144434405Y-6613119D01*
X144523452Y-6524072D01*
X144567976Y-6390500D01*
X144567976Y-6167881D01*
X144033690Y-7236452D02*
X143989167Y-7147405D01*
X143944643Y-7102881D01*
X143855595Y-7058357D01*
X143811071Y-7058357D01*
X143722024Y-7102881D01*
X143677500Y-7147405D01*
X143632976Y-7236452D01*
X143632976Y-7414548D01*
X143677500Y-7503595D01*
X143722024Y-7548119D01*
X143811071Y-7592643D01*
X143855595Y-7592643D01*
X143944643Y-7548119D01*
X143989167Y-7503595D01*
X144033690Y-7414548D01*
X144033690Y-7236452D01*
X144078214Y-7147405D01*
X144122738Y-7102881D01*
X144211786Y-7058357D01*
X144389881Y-7058357D01*
X144478929Y-7102881D01*
X144523452Y-7147405D01*
X144567976Y-7236452D01*
X144567976Y-7414548D01*
X144523452Y-7503595D01*
X144478929Y-7548119D01*
X144389881Y-7592643D01*
X144211786Y-7592643D01*
X144122738Y-7548119D01*
X144078214Y-7503595D01*
X144033690Y-7414548D01*
X163617976Y-6167881D02*
X162682976Y-6167881D01*
X162682976Y-6390500D01*
X162727500Y-6524072D01*
X162816548Y-6613119D01*
X162905595Y-6657643D01*
X163083690Y-6702167D01*
X163217262Y-6702167D01*
X163395357Y-6657643D01*
X163484405Y-6613119D01*
X163573452Y-6524072D01*
X163617976Y-6390500D01*
X163617976Y-6167881D01*
X163617976Y-7147405D02*
X163617976Y-7325500D01*
X163573452Y-7414548D01*
X163528929Y-7459072D01*
X163395357Y-7548119D01*
X163217262Y-7592643D01*
X162861071Y-7592643D01*
X162772024Y-7548119D01*
X162727500Y-7503595D01*
X162682976Y-7414548D01*
X162682976Y-7236452D01*
X162727500Y-7147405D01*
X162772024Y-7102881D01*
X162861071Y-7058357D01*
X163083690Y-7058357D01*
X163172738Y-7102881D01*
X163217262Y-7147405D01*
X163261786Y-7236452D01*
X163261786Y-7414548D01*
X163217262Y-7503595D01*
X163172738Y-7548119D01*
X163083690Y-7592643D01*
X182667976Y-5722643D02*
X181732976Y-5722643D01*
X181732976Y-5945262D01*
X181777500Y-6078834D01*
X181866548Y-6167881D01*
X181955595Y-6212405D01*
X182133690Y-6256929D01*
X182267262Y-6256929D01*
X182445357Y-6212405D01*
X182534405Y-6167881D01*
X182623452Y-6078834D01*
X182667976Y-5945262D01*
X182667976Y-5722643D01*
X182667976Y-7147405D02*
X182667976Y-6613119D01*
X182667976Y-6880262D02*
X181732976Y-6880262D01*
X181866548Y-6791214D01*
X181955595Y-6702167D01*
X182000119Y-6613119D01*
X181732976Y-7726214D02*
X181732976Y-7815262D01*
X181777500Y-7904310D01*
X181822024Y-7948833D01*
X181911071Y-7993357D01*
X182089167Y-8037881D01*
X182311786Y-8037881D01*
X182489881Y-7993357D01*
X182578929Y-7948833D01*
X182623452Y-7904310D01*
X182667976Y-7815262D01*
X182667976Y-7726214D01*
X182623452Y-7637167D01*
X182578929Y-7592643D01*
X182489881Y-7548119D01*
X182311786Y-7503595D01*
X182089167Y-7503595D01*
X181911071Y-7548119D01*
X181822024Y-7592643D01*
X181777500Y-7637167D01*
X181732976Y-7726214D01*
X201717976Y-5722643D02*
X200782976Y-5722643D01*
X200782976Y-5945262D01*
X200827500Y-6078834D01*
X200916548Y-6167881D01*
X201005595Y-6212405D01*
X201183690Y-6256929D01*
X201317262Y-6256929D01*
X201495357Y-6212405D01*
X201584405Y-6167881D01*
X201673452Y-6078834D01*
X201717976Y-5945262D01*
X201717976Y-5722643D01*
X201717976Y-7147405D02*
X201717976Y-6613119D01*
X201717976Y-6880262D02*
X200782976Y-6880262D01*
X200916548Y-6791214D01*
X201005595Y-6702167D01*
X201050119Y-6613119D01*
X201717976Y-8037881D02*
X201717976Y-7503595D01*
X201717976Y-7770738D02*
X200782976Y-7770738D01*
X200916548Y-7681690D01*
X201005595Y-7592643D01*
X201050119Y-7503595D01*
X220767976Y-5722643D02*
X219832976Y-5722643D01*
X219832976Y-5945262D01*
X219877500Y-6078834D01*
X219966548Y-6167881D01*
X220055595Y-6212405D01*
X220233690Y-6256929D01*
X220367262Y-6256929D01*
X220545357Y-6212405D01*
X220634405Y-6167881D01*
X220723452Y-6078834D01*
X220767976Y-5945262D01*
X220767976Y-5722643D01*
X220767976Y-7147405D02*
X220767976Y-6613119D01*
X220767976Y-6880262D02*
X219832976Y-6880262D01*
X219966548Y-6791214D01*
X220055595Y-6702167D01*
X220100119Y-6613119D01*
X219922024Y-7503595D02*
X219877500Y-7548119D01*
X219832976Y-7637167D01*
X219832976Y-7859786D01*
X219877500Y-7948833D01*
X219922024Y-7993357D01*
X220011071Y-8037881D01*
X220100119Y-8037881D01*
X220233690Y-7993357D01*
X220767976Y-7459071D01*
X220767976Y-8037881D01*
X239817976Y-5722643D02*
X238882976Y-5722643D01*
X238882976Y-5945262D01*
X238927500Y-6078834D01*
X239016548Y-6167881D01*
X239105595Y-6212405D01*
X239283690Y-6256929D01*
X239417262Y-6256929D01*
X239595357Y-6212405D01*
X239684405Y-6167881D01*
X239773452Y-6078834D01*
X239817976Y-5945262D01*
X239817976Y-5722643D01*
X239817976Y-7147405D02*
X239817976Y-6613119D01*
X239817976Y-6880262D02*
X238882976Y-6880262D01*
X239016548Y-6791214D01*
X239105595Y-6702167D01*
X239150119Y-6613119D01*
X238882976Y-7459071D02*
X238882976Y-8037881D01*
X239239167Y-7726214D01*
X239239167Y-7859786D01*
X239283690Y-7948833D01*
X239328214Y-7993357D01*
X239417262Y-8037881D01*
X239639881Y-8037881D01*
X239728929Y-7993357D01*
X239773452Y-7948833D01*
X239817976Y-7859786D01*
X239817976Y-7592643D01*
X239773452Y-7503595D01*
X239728929Y-7459071D01*
X258867976Y-5722643D02*
X257932976Y-5722643D01*
X257932976Y-5945262D01*
X257977500Y-6078834D01*
X258066548Y-6167881D01*
X258155595Y-6212405D01*
X258333690Y-6256929D01*
X258467262Y-6256929D01*
X258645357Y-6212405D01*
X258734405Y-6167881D01*
X258823452Y-6078834D01*
X258867976Y-5945262D01*
X258867976Y-5722643D01*
X258867976Y-7147405D02*
X258867976Y-6613119D01*
X258867976Y-6880262D02*
X257932976Y-6880262D01*
X258066548Y-6791214D01*
X258155595Y-6702167D01*
X258200119Y-6613119D01*
X258244643Y-7948833D02*
X258867976Y-7948833D01*
X257888452Y-7726214D02*
X258556310Y-7503595D01*
X258556310Y-8082405D01*
X277917976Y-5722643D02*
X276982976Y-5722643D01*
X276982976Y-5945262D01*
X277027500Y-6078834D01*
X277116548Y-6167881D01*
X277205595Y-6212405D01*
X277383690Y-6256929D01*
X277517262Y-6256929D01*
X277695357Y-6212405D01*
X277784405Y-6167881D01*
X277873452Y-6078834D01*
X277917976Y-5945262D01*
X277917976Y-5722643D01*
X277917976Y-7147405D02*
X277917976Y-6613119D01*
X277917976Y-6880262D02*
X276982976Y-6880262D01*
X277116548Y-6791214D01*
X277205595Y-6702167D01*
X277250119Y-6613119D01*
X276982976Y-7993357D02*
X276982976Y-7548119D01*
X277428214Y-7503595D01*
X277383690Y-7548119D01*
X277339167Y-7637167D01*
X277339167Y-7859786D01*
X277383690Y-7948833D01*
X277428214Y-7993357D01*
X277517262Y-8037881D01*
X277739881Y-8037881D01*
X277828929Y-7993357D01*
X277873452Y-7948833D01*
X277917976Y-7859786D01*
X277917976Y-7637167D01*
X277873452Y-7548119D01*
X277828929Y-7503595D01*
X296967976Y-5722643D02*
X296032976Y-5722643D01*
X296032976Y-5945262D01*
X296077500Y-6078834D01*
X296166548Y-6167881D01*
X296255595Y-6212405D01*
X296433690Y-6256929D01*
X296567262Y-6256929D01*
X296745357Y-6212405D01*
X296834405Y-6167881D01*
X296923452Y-6078834D01*
X296967976Y-5945262D01*
X296967976Y-5722643D01*
X296967976Y-7147405D02*
X296967976Y-6613119D01*
X296967976Y-6880262D02*
X296032976Y-6880262D01*
X296166548Y-6791214D01*
X296255595Y-6702167D01*
X296300119Y-6613119D01*
X296032976Y-7948833D02*
X296032976Y-7770738D01*
X296077500Y-7681690D01*
X296122024Y-7637167D01*
X296255595Y-7548119D01*
X296433690Y-7503595D01*
X296789881Y-7503595D01*
X296878929Y-7548119D01*
X296923452Y-7592643D01*
X296967976Y-7681690D01*
X296967976Y-7859786D01*
X296923452Y-7948833D01*
X296878929Y-7993357D01*
X296789881Y-8037881D01*
X296567262Y-8037881D01*
X296478214Y-7993357D01*
X296433690Y-7948833D01*
X296389167Y-7859786D01*
X296389167Y-7681690D01*
X296433690Y-7592643D01*
X296478214Y-7548119D01*
X296567262Y-7503595D01*
X11217976Y-24772643D02*
X10282976Y-24772643D01*
X10282976Y-24995262D01*
X10327500Y-25128834D01*
X10416548Y-25217881D01*
X10505595Y-25262405D01*
X10683690Y-25306929D01*
X10817262Y-25306929D01*
X10995357Y-25262405D01*
X11084405Y-25217881D01*
X11173452Y-25128834D01*
X11217976Y-24995262D01*
X11217976Y-24772643D01*
X11217976Y-26197405D02*
X11217976Y-25663119D01*
X11217976Y-25930262D02*
X10282976Y-25930262D01*
X10416548Y-25841214D01*
X10505595Y-25752167D01*
X10550119Y-25663119D01*
X10282976Y-26509071D02*
X10282976Y-27132405D01*
X11217976Y-26731690D01*
X30267976Y-24772643D02*
X29332976Y-24772643D01*
X29332976Y-24995262D01*
X29377500Y-25128834D01*
X29466548Y-25217881D01*
X29555595Y-25262405D01*
X29733690Y-25306929D01*
X29867262Y-25306929D01*
X30045357Y-25262405D01*
X30134405Y-25217881D01*
X30223452Y-25128834D01*
X30267976Y-24995262D01*
X30267976Y-24772643D01*
X30267976Y-26197405D02*
X30267976Y-25663119D01*
X30267976Y-25930262D02*
X29332976Y-25930262D01*
X29466548Y-25841214D01*
X29555595Y-25752167D01*
X29600119Y-25663119D01*
X29733690Y-26731690D02*
X29689167Y-26642643D01*
X29644643Y-26598119D01*
X29555595Y-26553595D01*
X29511071Y-26553595D01*
X29422024Y-26598119D01*
X29377500Y-26642643D01*
X29332976Y-26731690D01*
X29332976Y-26909786D01*
X29377500Y-26998833D01*
X29422024Y-27043357D01*
X29511071Y-27087881D01*
X29555595Y-27087881D01*
X29644643Y-27043357D01*
X29689167Y-26998833D01*
X29733690Y-26909786D01*
X29733690Y-26731690D01*
X29778214Y-26642643D01*
X29822738Y-26598119D01*
X29911786Y-26553595D01*
X30089881Y-26553595D01*
X30178929Y-26598119D01*
X30223452Y-26642643D01*
X30267976Y-26731690D01*
X30267976Y-26909786D01*
X30223452Y-26998833D01*
X30178929Y-27043357D01*
X30089881Y-27087881D01*
X29911786Y-27087881D01*
X29822738Y-27043357D01*
X29778214Y-26998833D01*
X29733690Y-26909786D01*
X49317976Y-24772643D02*
X48382976Y-24772643D01*
X48382976Y-24995262D01*
X48427500Y-25128834D01*
X48516548Y-25217881D01*
X48605595Y-25262405D01*
X48783690Y-25306929D01*
X48917262Y-25306929D01*
X49095357Y-25262405D01*
X49184405Y-25217881D01*
X49273452Y-25128834D01*
X49317976Y-24995262D01*
X49317976Y-24772643D01*
X49317976Y-26197405D02*
X49317976Y-25663119D01*
X49317976Y-25930262D02*
X48382976Y-25930262D01*
X48516548Y-25841214D01*
X48605595Y-25752167D01*
X48650119Y-25663119D01*
X49317976Y-26642643D02*
X49317976Y-26820738D01*
X49273452Y-26909786D01*
X49228929Y-26954310D01*
X49095357Y-27043357D01*
X48917262Y-27087881D01*
X48561071Y-27087881D01*
X48472024Y-27043357D01*
X48427500Y-26998833D01*
X48382976Y-26909786D01*
X48382976Y-26731690D01*
X48427500Y-26642643D01*
X48472024Y-26598119D01*
X48561071Y-26553595D01*
X48783690Y-26553595D01*
X48872738Y-26598119D01*
X48917262Y-26642643D01*
X48961786Y-26731690D01*
X48961786Y-26909786D01*
X48917262Y-26998833D01*
X48872738Y-27043357D01*
X48783690Y-27087881D01*
X68367976Y-24772643D02*
X67432976Y-24772643D01*
X67432976Y-24995262D01*
X67477500Y-25128834D01*
X67566548Y-25217881D01*
X67655595Y-25262405D01*
X67833690Y-25306929D01*
X67967262Y-25306929D01*
X68145357Y-25262405D01*
X68234405Y-25217881D01*
X68323452Y-25128834D01*
X68367976Y-24995262D01*
X68367976Y-24772643D01*
X67522024Y-25663119D02*
X67477500Y-25707643D01*
X67432976Y-25796691D01*
X67432976Y-26019310D01*
X67477500Y-26108357D01*
X67522024Y-26152881D01*
X67611071Y-26197405D01*
X67700119Y-26197405D01*
X67833690Y-26152881D01*
X68367976Y-25618595D01*
X68367976Y-26197405D01*
X67432976Y-26776214D02*
X67432976Y-26865262D01*
X67477500Y-26954310D01*
X67522024Y-26998833D01*
X67611071Y-27043357D01*
X67789167Y-27087881D01*
X68011786Y-27087881D01*
X68189881Y-27043357D01*
X68278929Y-26998833D01*
X68323452Y-26954310D01*
X68367976Y-26865262D01*
X68367976Y-26776214D01*
X68323452Y-26687167D01*
X68278929Y-26642643D01*
X68189881Y-26598119D01*
X68011786Y-26553595D01*
X67789167Y-26553595D01*
X67611071Y-26598119D01*
X67522024Y-26642643D01*
X67477500Y-26687167D01*
X67432976Y-26776214D01*
X87417976Y-24772643D02*
X86482976Y-24772643D01*
X86482976Y-24995262D01*
X86527500Y-25128834D01*
X86616548Y-25217881D01*
X86705595Y-25262405D01*
X86883690Y-25306929D01*
X87017262Y-25306929D01*
X87195357Y-25262405D01*
X87284405Y-25217881D01*
X87373452Y-25128834D01*
X87417976Y-24995262D01*
X87417976Y-24772643D01*
X86572024Y-25663119D02*
X86527500Y-25707643D01*
X86482976Y-25796691D01*
X86482976Y-26019310D01*
X86527500Y-26108357D01*
X86572024Y-26152881D01*
X86661071Y-26197405D01*
X86750119Y-26197405D01*
X86883690Y-26152881D01*
X87417976Y-25618595D01*
X87417976Y-26197405D01*
X87417976Y-27087881D02*
X87417976Y-26553595D01*
X87417976Y-26820738D02*
X86482976Y-26820738D01*
X86616548Y-26731690D01*
X86705595Y-26642643D01*
X86750119Y-26553595D01*
X106467976Y-24772643D02*
X105532976Y-24772643D01*
X105532976Y-24995262D01*
X105577500Y-25128834D01*
X105666548Y-25217881D01*
X105755595Y-25262405D01*
X105933690Y-25306929D01*
X106067262Y-25306929D01*
X106245357Y-25262405D01*
X106334405Y-25217881D01*
X106423452Y-25128834D01*
X106467976Y-24995262D01*
X106467976Y-24772643D01*
X105622024Y-25663119D02*
X105577500Y-25707643D01*
X105532976Y-25796691D01*
X105532976Y-26019310D01*
X105577500Y-26108357D01*
X105622024Y-26152881D01*
X105711071Y-26197405D01*
X105800119Y-26197405D01*
X105933690Y-26152881D01*
X106467976Y-25618595D01*
X106467976Y-26197405D01*
X105622024Y-26553595D02*
X105577500Y-26598119D01*
X105532976Y-26687167D01*
X105532976Y-26909786D01*
X105577500Y-26998833D01*
X105622024Y-27043357D01*
X105711071Y-27087881D01*
X105800119Y-27087881D01*
X105933690Y-27043357D01*
X106467976Y-26509071D01*
X106467976Y-27087881D01*
X125517976Y-24772643D02*
X124582976Y-24772643D01*
X124582976Y-24995262D01*
X124627500Y-25128834D01*
X124716548Y-25217881D01*
X124805595Y-25262405D01*
X124983690Y-25306929D01*
X125117262Y-25306929D01*
X125295357Y-25262405D01*
X125384405Y-25217881D01*
X125473452Y-25128834D01*
X125517976Y-24995262D01*
X125517976Y-24772643D01*
X124672024Y-25663119D02*
X124627500Y-25707643D01*
X124582976Y-25796691D01*
X124582976Y-26019310D01*
X124627500Y-26108357D01*
X124672024Y-26152881D01*
X124761071Y-26197405D01*
X124850119Y-26197405D01*
X124983690Y-26152881D01*
X125517976Y-25618595D01*
X125517976Y-26197405D01*
X124582976Y-26509071D02*
X124582976Y-27087881D01*
X124939167Y-26776214D01*
X124939167Y-26909786D01*
X124983690Y-26998833D01*
X125028214Y-27043357D01*
X125117262Y-27087881D01*
X125339881Y-27087881D01*
X125428929Y-27043357D01*
X125473452Y-26998833D01*
X125517976Y-26909786D01*
X125517976Y-26642643D01*
X125473452Y-26553595D01*
X125428929Y-26509071D01*
X144567976Y-24772643D02*
X143632976Y-24772643D01*
X143632976Y-24995262D01*
X143677500Y-25128834D01*
X143766548Y-25217881D01*
X143855595Y-25262405D01*
X144033690Y-25306929D01*
X144167262Y-25306929D01*
X144345357Y-25262405D01*
X144434405Y-25217881D01*
X144523452Y-25128834D01*
X144567976Y-24995262D01*
X144567976Y-24772643D01*
X143722024Y-25663119D02*
X143677500Y-25707643D01*
X143632976Y-25796691D01*
X143632976Y-26019310D01*
X143677500Y-26108357D01*
X143722024Y-26152881D01*
X143811071Y-26197405D01*
X143900119Y-26197405D01*
X144033690Y-26152881D01*
X144567976Y-25618595D01*
X144567976Y-26197405D01*
X143944643Y-26998833D02*
X144567976Y-26998833D01*
X143588452Y-26776214D02*
X144256310Y-26553595D01*
X144256310Y-27132405D01*
X163617976Y-24772643D02*
X162682976Y-24772643D01*
X162682976Y-24995262D01*
X162727500Y-25128834D01*
X162816548Y-25217881D01*
X162905595Y-25262405D01*
X163083690Y-25306929D01*
X163217262Y-25306929D01*
X163395357Y-25262405D01*
X163484405Y-25217881D01*
X163573452Y-25128834D01*
X163617976Y-24995262D01*
X163617976Y-24772643D01*
X162772024Y-25663119D02*
X162727500Y-25707643D01*
X162682976Y-25796691D01*
X162682976Y-26019310D01*
X162727500Y-26108357D01*
X162772024Y-26152881D01*
X162861071Y-26197405D01*
X162950119Y-26197405D01*
X163083690Y-26152881D01*
X163617976Y-25618595D01*
X163617976Y-26197405D01*
X162682976Y-27043357D02*
X162682976Y-26598119D01*
X163128214Y-26553595D01*
X163083690Y-26598119D01*
X163039167Y-26687167D01*
X163039167Y-26909786D01*
X163083690Y-26998833D01*
X163128214Y-27043357D01*
X163217262Y-27087881D01*
X163439881Y-27087881D01*
X163528929Y-27043357D01*
X163573452Y-26998833D01*
X163617976Y-26909786D01*
X163617976Y-26687167D01*
X163573452Y-26598119D01*
X163528929Y-26553595D01*
X182667976Y-24772643D02*
X181732976Y-24772643D01*
X181732976Y-24995262D01*
X181777500Y-25128834D01*
X181866548Y-25217881D01*
X181955595Y-25262405D01*
X182133690Y-25306929D01*
X182267262Y-25306929D01*
X182445357Y-25262405D01*
X182534405Y-25217881D01*
X182623452Y-25128834D01*
X182667976Y-24995262D01*
X182667976Y-24772643D01*
X181822024Y-25663119D02*
X181777500Y-25707643D01*
X181732976Y-25796691D01*
X181732976Y-26019310D01*
X181777500Y-26108357D01*
X181822024Y-26152881D01*
X181911071Y-26197405D01*
X182000119Y-26197405D01*
X182133690Y-26152881D01*
X182667976Y-25618595D01*
X182667976Y-26197405D01*
X181732976Y-26998833D02*
X181732976Y-26820738D01*
X181777500Y-26731690D01*
X181822024Y-26687167D01*
X181955595Y-26598119D01*
X182133690Y-26553595D01*
X182489881Y-26553595D01*
X182578929Y-26598119D01*
X182623452Y-26642643D01*
X182667976Y-26731690D01*
X182667976Y-26909786D01*
X182623452Y-26998833D01*
X182578929Y-27043357D01*
X182489881Y-27087881D01*
X182267262Y-27087881D01*
X182178214Y-27043357D01*
X182133690Y-26998833D01*
X182089167Y-26909786D01*
X182089167Y-26731690D01*
X182133690Y-26642643D01*
X182178214Y-26598119D01*
X182267262Y-26553595D01*
X201717976Y-24772643D02*
X200782976Y-24772643D01*
X200782976Y-24995262D01*
X200827500Y-25128834D01*
X200916548Y-25217881D01*
X201005595Y-25262405D01*
X201183690Y-25306929D01*
X201317262Y-25306929D01*
X201495357Y-25262405D01*
X201584405Y-25217881D01*
X201673452Y-25128834D01*
X201717976Y-24995262D01*
X201717976Y-24772643D01*
X200872024Y-25663119D02*
X200827500Y-25707643D01*
X200782976Y-25796691D01*
X200782976Y-26019310D01*
X200827500Y-26108357D01*
X200872024Y-26152881D01*
X200961071Y-26197405D01*
X201050119Y-26197405D01*
X201183690Y-26152881D01*
X201717976Y-25618595D01*
X201717976Y-26197405D01*
X200782976Y-26509071D02*
X200782976Y-27132405D01*
X201717976Y-26731690D01*
X220767976Y-24772643D02*
X219832976Y-24772643D01*
X219832976Y-24995262D01*
X219877500Y-25128834D01*
X219966548Y-25217881D01*
X220055595Y-25262405D01*
X220233690Y-25306929D01*
X220367262Y-25306929D01*
X220545357Y-25262405D01*
X220634405Y-25217881D01*
X220723452Y-25128834D01*
X220767976Y-24995262D01*
X220767976Y-24772643D01*
X219922024Y-25663119D02*
X219877500Y-25707643D01*
X219832976Y-25796691D01*
X219832976Y-26019310D01*
X219877500Y-26108357D01*
X219922024Y-26152881D01*
X220011071Y-26197405D01*
X220100119Y-26197405D01*
X220233690Y-26152881D01*
X220767976Y-25618595D01*
X220767976Y-26197405D01*
X220233690Y-26731690D02*
X220189167Y-26642643D01*
X220144643Y-26598119D01*
X220055595Y-26553595D01*
X220011071Y-26553595D01*
X219922024Y-26598119D01*
X219877500Y-26642643D01*
X219832976Y-26731690D01*
X219832976Y-26909786D01*
X219877500Y-26998833D01*
X219922024Y-27043357D01*
X220011071Y-27087881D01*
X220055595Y-27087881D01*
X220144643Y-27043357D01*
X220189167Y-26998833D01*
X220233690Y-26909786D01*
X220233690Y-26731690D01*
X220278214Y-26642643D01*
X220322738Y-26598119D01*
X220411786Y-26553595D01*
X220589881Y-26553595D01*
X220678929Y-26598119D01*
X220723452Y-26642643D01*
X220767976Y-26731690D01*
X220767976Y-26909786D01*
X220723452Y-26998833D01*
X220678929Y-27043357D01*
X220589881Y-27087881D01*
X220411786Y-27087881D01*
X220322738Y-27043357D01*
X220278214Y-26998833D01*
X220233690Y-26909786D01*
X239817976Y-24772643D02*
X238882976Y-24772643D01*
X238882976Y-24995262D01*
X238927500Y-25128834D01*
X239016548Y-25217881D01*
X239105595Y-25262405D01*
X239283690Y-25306929D01*
X239417262Y-25306929D01*
X239595357Y-25262405D01*
X239684405Y-25217881D01*
X239773452Y-25128834D01*
X239817976Y-24995262D01*
X239817976Y-24772643D01*
X238972024Y-25663119D02*
X238927500Y-25707643D01*
X238882976Y-25796691D01*
X238882976Y-26019310D01*
X238927500Y-26108357D01*
X238972024Y-26152881D01*
X239061071Y-26197405D01*
X239150119Y-26197405D01*
X239283690Y-26152881D01*
X239817976Y-25618595D01*
X239817976Y-26197405D01*
X239817976Y-26642643D02*
X239817976Y-26820738D01*
X239773452Y-26909786D01*
X239728929Y-26954310D01*
X239595357Y-27043357D01*
X239417262Y-27087881D01*
X239061071Y-27087881D01*
X238972024Y-27043357D01*
X238927500Y-26998833D01*
X238882976Y-26909786D01*
X238882976Y-26731690D01*
X238927500Y-26642643D01*
X238972024Y-26598119D01*
X239061071Y-26553595D01*
X239283690Y-26553595D01*
X239372738Y-26598119D01*
X239417262Y-26642643D01*
X239461786Y-26731690D01*
X239461786Y-26909786D01*
X239417262Y-26998833D01*
X239372738Y-27043357D01*
X239283690Y-27087881D01*
X266487976Y-24772643D02*
X265552976Y-24772643D01*
X265552976Y-24995262D01*
X265597500Y-25128834D01*
X265686548Y-25217881D01*
X265775595Y-25262405D01*
X265953690Y-25306929D01*
X266087262Y-25306929D01*
X266265357Y-25262405D01*
X266354405Y-25217881D01*
X266443452Y-25128834D01*
X266487976Y-24995262D01*
X266487976Y-24772643D01*
X265552976Y-25618595D02*
X265552976Y-26197405D01*
X265909167Y-25885738D01*
X265909167Y-26019310D01*
X265953690Y-26108357D01*
X265998214Y-26152881D01*
X266087262Y-26197405D01*
X266309881Y-26197405D01*
X266398929Y-26152881D01*
X266443452Y-26108357D01*
X266487976Y-26019310D01*
X266487976Y-25752167D01*
X266443452Y-25663119D01*
X266398929Y-25618595D01*
X265552976Y-26776214D02*
X265552976Y-26865262D01*
X265597500Y-26954310D01*
X265642024Y-26998833D01*
X265731071Y-27043357D01*
X265909167Y-27087881D01*
X266131786Y-27087881D01*
X266309881Y-27043357D01*
X266398929Y-26998833D01*
X266443452Y-26954310D01*
X266487976Y-26865262D01*
X266487976Y-26776214D01*
X266443452Y-26687167D01*
X266398929Y-26642643D01*
X266309881Y-26598119D01*
X266131786Y-26553595D01*
X265909167Y-26553595D01*
X265731071Y-26598119D01*
X265642024Y-26642643D01*
X265597500Y-26687167D01*
X265552976Y-26776214D01*
X296967976Y-24772643D02*
X296032976Y-24772643D01*
X296032976Y-24995262D01*
X296077500Y-25128834D01*
X296166548Y-25217881D01*
X296255595Y-25262405D01*
X296433690Y-25306929D01*
X296567262Y-25306929D01*
X296745357Y-25262405D01*
X296834405Y-25217881D01*
X296923452Y-25128834D01*
X296967976Y-24995262D01*
X296967976Y-24772643D01*
X296032976Y-25618595D02*
X296032976Y-26197405D01*
X296389167Y-25885738D01*
X296389167Y-26019310D01*
X296433690Y-26108357D01*
X296478214Y-26152881D01*
X296567262Y-26197405D01*
X296789881Y-26197405D01*
X296878929Y-26152881D01*
X296923452Y-26108357D01*
X296967976Y-26019310D01*
X296967976Y-25752167D01*
X296923452Y-25663119D01*
X296878929Y-25618595D01*
X296967976Y-27087881D02*
X296967976Y-26553595D01*
X296967976Y-26820738D02*
X296032976Y-26820738D01*
X296166548Y-26731690D01*
X296255595Y-26642643D01*
X296300119Y-26553595D01*
X16297976Y-43822643D02*
X15362976Y-43822643D01*
X15362976Y-44045262D01*
X15407500Y-44178834D01*
X15496548Y-44267881D01*
X15585595Y-44312405D01*
X15763690Y-44356929D01*
X15897262Y-44356929D01*
X16075357Y-44312405D01*
X16164405Y-44267881D01*
X16253452Y-44178834D01*
X16297976Y-44045262D01*
X16297976Y-43822643D01*
X15362976Y-44668595D02*
X15362976Y-45247405D01*
X15719167Y-44935738D01*
X15719167Y-45069310D01*
X15763690Y-45158357D01*
X15808214Y-45202881D01*
X15897262Y-45247405D01*
X16119881Y-45247405D01*
X16208929Y-45202881D01*
X16253452Y-45158357D01*
X16297976Y-45069310D01*
X16297976Y-44802167D01*
X16253452Y-44713119D01*
X16208929Y-44668595D01*
X15452024Y-45603595D02*
X15407500Y-45648119D01*
X15362976Y-45737167D01*
X15362976Y-45959786D01*
X15407500Y-46048833D01*
X15452024Y-46093357D01*
X15541071Y-46137881D01*
X15630119Y-46137881D01*
X15763690Y-46093357D01*
X16297976Y-45559071D01*
X16297976Y-46137881D01*
X40427976Y-43822643D02*
X39492976Y-43822643D01*
X39492976Y-44045262D01*
X39537500Y-44178834D01*
X39626548Y-44267881D01*
X39715595Y-44312405D01*
X39893690Y-44356929D01*
X40027262Y-44356929D01*
X40205357Y-44312405D01*
X40294405Y-44267881D01*
X40383452Y-44178834D01*
X40427976Y-44045262D01*
X40427976Y-43822643D01*
X39492976Y-44668595D02*
X39492976Y-45247405D01*
X39849167Y-44935738D01*
X39849167Y-45069310D01*
X39893690Y-45158357D01*
X39938214Y-45202881D01*
X40027262Y-45247405D01*
X40249881Y-45247405D01*
X40338929Y-45202881D01*
X40383452Y-45158357D01*
X40427976Y-45069310D01*
X40427976Y-44802167D01*
X40383452Y-44713119D01*
X40338929Y-44668595D01*
X39492976Y-45559071D02*
X39492976Y-46137881D01*
X39849167Y-45826214D01*
X39849167Y-45959786D01*
X39893690Y-46048833D01*
X39938214Y-46093357D01*
X40027262Y-46137881D01*
X40249881Y-46137881D01*
X40338929Y-46093357D01*
X40383452Y-46048833D01*
X40427976Y-45959786D01*
X40427976Y-45692643D01*
X40383452Y-45603595D01*
X40338929Y-45559071D01*
X58207976Y-43822643D02*
X57272976Y-43822643D01*
X57272976Y-44045262D01*
X57317500Y-44178834D01*
X57406548Y-44267881D01*
X57495595Y-44312405D01*
X57673690Y-44356929D01*
X57807262Y-44356929D01*
X57985357Y-44312405D01*
X58074405Y-44267881D01*
X58163452Y-44178834D01*
X58207976Y-44045262D01*
X58207976Y-43822643D01*
X57272976Y-44668595D02*
X57272976Y-45247405D01*
X57629167Y-44935738D01*
X57629167Y-45069310D01*
X57673690Y-45158357D01*
X57718214Y-45202881D01*
X57807262Y-45247405D01*
X58029881Y-45247405D01*
X58118929Y-45202881D01*
X58163452Y-45158357D01*
X58207976Y-45069310D01*
X58207976Y-44802167D01*
X58163452Y-44713119D01*
X58118929Y-44668595D01*
X57584643Y-46048833D02*
X58207976Y-46048833D01*
X57228452Y-45826214D02*
X57896310Y-45603595D01*
X57896310Y-46182405D01*
X77257976Y-43822643D02*
X76322976Y-43822643D01*
X76322976Y-44045262D01*
X76367500Y-44178834D01*
X76456548Y-44267881D01*
X76545595Y-44312405D01*
X76723690Y-44356929D01*
X76857262Y-44356929D01*
X77035357Y-44312405D01*
X77124405Y-44267881D01*
X77213452Y-44178834D01*
X77257976Y-44045262D01*
X77257976Y-43822643D01*
X76322976Y-44668595D02*
X76322976Y-45247405D01*
X76679167Y-44935738D01*
X76679167Y-45069310D01*
X76723690Y-45158357D01*
X76768214Y-45202881D01*
X76857262Y-45247405D01*
X77079881Y-45247405D01*
X77168929Y-45202881D01*
X77213452Y-45158357D01*
X77257976Y-45069310D01*
X77257976Y-44802167D01*
X77213452Y-44713119D01*
X77168929Y-44668595D01*
X76322976Y-46093357D02*
X76322976Y-45648119D01*
X76768214Y-45603595D01*
X76723690Y-45648119D01*
X76679167Y-45737167D01*
X76679167Y-45959786D01*
X76723690Y-46048833D01*
X76768214Y-46093357D01*
X76857262Y-46137881D01*
X77079881Y-46137881D01*
X77168929Y-46093357D01*
X77213452Y-46048833D01*
X77257976Y-45959786D01*
X77257976Y-45737167D01*
X77213452Y-45648119D01*
X77168929Y-45603595D01*
X96307976Y-43822643D02*
X95372976Y-43822643D01*
X95372976Y-44045262D01*
X95417500Y-44178834D01*
X95506548Y-44267881D01*
X95595595Y-44312405D01*
X95773690Y-44356929D01*
X95907262Y-44356929D01*
X96085357Y-44312405D01*
X96174405Y-44267881D01*
X96263452Y-44178834D01*
X96307976Y-44045262D01*
X96307976Y-43822643D01*
X95372976Y-44668595D02*
X95372976Y-45247405D01*
X95729167Y-44935738D01*
X95729167Y-45069310D01*
X95773690Y-45158357D01*
X95818214Y-45202881D01*
X95907262Y-45247405D01*
X96129881Y-45247405D01*
X96218929Y-45202881D01*
X96263452Y-45158357D01*
X96307976Y-45069310D01*
X96307976Y-44802167D01*
X96263452Y-44713119D01*
X96218929Y-44668595D01*
X95372976Y-46048833D02*
X95372976Y-45870738D01*
X95417500Y-45781690D01*
X95462024Y-45737167D01*
X95595595Y-45648119D01*
X95773690Y-45603595D01*
X96129881Y-45603595D01*
X96218929Y-45648119D01*
X96263452Y-45692643D01*
X96307976Y-45781690D01*
X96307976Y-45959786D01*
X96263452Y-46048833D01*
X96218929Y-46093357D01*
X96129881Y-46137881D01*
X95907262Y-46137881D01*
X95818214Y-46093357D01*
X95773690Y-46048833D01*
X95729167Y-45959786D01*
X95729167Y-45781690D01*
X95773690Y-45692643D01*
X95818214Y-45648119D01*
X95907262Y-45603595D01*
X115357976Y-43822643D02*
X114422976Y-43822643D01*
X114422976Y-44045262D01*
X114467500Y-44178834D01*
X114556548Y-44267881D01*
X114645595Y-44312405D01*
X114823690Y-44356929D01*
X114957262Y-44356929D01*
X115135357Y-44312405D01*
X115224405Y-44267881D01*
X115313452Y-44178834D01*
X115357976Y-44045262D01*
X115357976Y-43822643D01*
X114422976Y-44668595D02*
X114422976Y-45247405D01*
X114779167Y-44935738D01*
X114779167Y-45069310D01*
X114823690Y-45158357D01*
X114868214Y-45202881D01*
X114957262Y-45247405D01*
X115179881Y-45247405D01*
X115268929Y-45202881D01*
X115313452Y-45158357D01*
X115357976Y-45069310D01*
X115357976Y-44802167D01*
X115313452Y-44713119D01*
X115268929Y-44668595D01*
X114422976Y-45559071D02*
X114422976Y-46182405D01*
X115357976Y-45781690D01*
X134407976Y-43822643D02*
X133472976Y-43822643D01*
X133472976Y-44045262D01*
X133517500Y-44178834D01*
X133606548Y-44267881D01*
X133695595Y-44312405D01*
X133873690Y-44356929D01*
X134007262Y-44356929D01*
X134185357Y-44312405D01*
X134274405Y-44267881D01*
X134363452Y-44178834D01*
X134407976Y-44045262D01*
X134407976Y-43822643D01*
X133472976Y-44668595D02*
X133472976Y-45247405D01*
X133829167Y-44935738D01*
X133829167Y-45069310D01*
X133873690Y-45158357D01*
X133918214Y-45202881D01*
X134007262Y-45247405D01*
X134229881Y-45247405D01*
X134318929Y-45202881D01*
X134363452Y-45158357D01*
X134407976Y-45069310D01*
X134407976Y-44802167D01*
X134363452Y-44713119D01*
X134318929Y-44668595D01*
X133873690Y-45781690D02*
X133829167Y-45692643D01*
X133784643Y-45648119D01*
X133695595Y-45603595D01*
X133651071Y-45603595D01*
X133562024Y-45648119D01*
X133517500Y-45692643D01*
X133472976Y-45781690D01*
X133472976Y-45959786D01*
X133517500Y-46048833D01*
X133562024Y-46093357D01*
X133651071Y-46137881D01*
X133695595Y-46137881D01*
X133784643Y-46093357D01*
X133829167Y-46048833D01*
X133873690Y-45959786D01*
X133873690Y-45781690D01*
X133918214Y-45692643D01*
X133962738Y-45648119D01*
X134051786Y-45603595D01*
X134229881Y-45603595D01*
X134318929Y-45648119D01*
X134363452Y-45692643D01*
X134407976Y-45781690D01*
X134407976Y-45959786D01*
X134363452Y-46048833D01*
X134318929Y-46093357D01*
X134229881Y-46137881D01*
X134051786Y-46137881D01*
X133962738Y-46093357D01*
X133918214Y-46048833D01*
X133873690Y-45959786D01*
X153457976Y-43822643D02*
X152522976Y-43822643D01*
X152522976Y-44045262D01*
X152567500Y-44178834D01*
X152656548Y-44267881D01*
X152745595Y-44312405D01*
X152923690Y-44356929D01*
X153057262Y-44356929D01*
X153235357Y-44312405D01*
X153324405Y-44267881D01*
X153413452Y-44178834D01*
X153457976Y-44045262D01*
X153457976Y-43822643D01*
X152522976Y-44668595D02*
X152522976Y-45247405D01*
X152879167Y-44935738D01*
X152879167Y-45069310D01*
X152923690Y-45158357D01*
X152968214Y-45202881D01*
X153057262Y-45247405D01*
X153279881Y-45247405D01*
X153368929Y-45202881D01*
X153413452Y-45158357D01*
X153457976Y-45069310D01*
X153457976Y-44802167D01*
X153413452Y-44713119D01*
X153368929Y-44668595D01*
X153457976Y-45692643D02*
X153457976Y-45870738D01*
X153413452Y-45959786D01*
X153368929Y-46004310D01*
X153235357Y-46093357D01*
X153057262Y-46137881D01*
X152701071Y-46137881D01*
X152612024Y-46093357D01*
X152567500Y-46048833D01*
X152522976Y-45959786D01*
X152522976Y-45781690D01*
X152567500Y-45692643D01*
X152612024Y-45648119D01*
X152701071Y-45603595D01*
X152923690Y-45603595D01*
X153012738Y-45648119D01*
X153057262Y-45692643D01*
X153101786Y-45781690D01*
X153101786Y-45959786D01*
X153057262Y-46048833D01*
X153012738Y-46093357D01*
X152923690Y-46137881D01*
X172507976Y-43822643D02*
X171572976Y-43822643D01*
X171572976Y-44045262D01*
X171617500Y-44178834D01*
X171706548Y-44267881D01*
X171795595Y-44312405D01*
X171973690Y-44356929D01*
X172107262Y-44356929D01*
X172285357Y-44312405D01*
X172374405Y-44267881D01*
X172463452Y-44178834D01*
X172507976Y-44045262D01*
X172507976Y-43822643D01*
X171884643Y-45158357D02*
X172507976Y-45158357D01*
X171528452Y-44935738D02*
X172196310Y-44713119D01*
X172196310Y-45291929D01*
X171572976Y-45826214D02*
X171572976Y-45915262D01*
X171617500Y-46004310D01*
X171662024Y-46048833D01*
X171751071Y-46093357D01*
X171929167Y-46137881D01*
X172151786Y-46137881D01*
X172329881Y-46093357D01*
X172418929Y-46048833D01*
X172463452Y-46004310D01*
X172507976Y-45915262D01*
X172507976Y-45826214D01*
X172463452Y-45737167D01*
X172418929Y-45692643D01*
X172329881Y-45648119D01*
X172151786Y-45603595D01*
X171929167Y-45603595D01*
X171751071Y-45648119D01*
X171662024Y-45692643D01*
X171617500Y-45737167D01*
X171572976Y-45826214D01*
X191557976Y-43822643D02*
X190622976Y-43822643D01*
X190622976Y-44045262D01*
X190667500Y-44178834D01*
X190756548Y-44267881D01*
X190845595Y-44312405D01*
X191023690Y-44356929D01*
X191157262Y-44356929D01*
X191335357Y-44312405D01*
X191424405Y-44267881D01*
X191513452Y-44178834D01*
X191557976Y-44045262D01*
X191557976Y-43822643D01*
X190934643Y-45158357D02*
X191557976Y-45158357D01*
X190578452Y-44935738D02*
X191246310Y-44713119D01*
X191246310Y-45291929D01*
X191557976Y-46137881D02*
X191557976Y-45603595D01*
X191557976Y-45870738D02*
X190622976Y-45870738D01*
X190756548Y-45781690D01*
X190845595Y-45692643D01*
X190890119Y-45603595D01*
X210607976Y-43822643D02*
X209672976Y-43822643D01*
X209672976Y-44045262D01*
X209717500Y-44178834D01*
X209806548Y-44267881D01*
X209895595Y-44312405D01*
X210073690Y-44356929D01*
X210207262Y-44356929D01*
X210385357Y-44312405D01*
X210474405Y-44267881D01*
X210563452Y-44178834D01*
X210607976Y-44045262D01*
X210607976Y-43822643D01*
X209984643Y-45158357D02*
X210607976Y-45158357D01*
X209628452Y-44935738D02*
X210296310Y-44713119D01*
X210296310Y-45291929D01*
X209762024Y-45603595D02*
X209717500Y-45648119D01*
X209672976Y-45737167D01*
X209672976Y-45959786D01*
X209717500Y-46048833D01*
X209762024Y-46093357D01*
X209851071Y-46137881D01*
X209940119Y-46137881D01*
X210073690Y-46093357D01*
X210607976Y-45559071D01*
X210607976Y-46137881D01*
X229657976Y-43822643D02*
X228722976Y-43822643D01*
X228722976Y-44045262D01*
X228767500Y-44178834D01*
X228856548Y-44267881D01*
X228945595Y-44312405D01*
X229123690Y-44356929D01*
X229257262Y-44356929D01*
X229435357Y-44312405D01*
X229524405Y-44267881D01*
X229613452Y-44178834D01*
X229657976Y-44045262D01*
X229657976Y-43822643D01*
X229034643Y-45158357D02*
X229657976Y-45158357D01*
X228678452Y-44935738D02*
X229346310Y-44713119D01*
X229346310Y-45291929D01*
X228722976Y-45559071D02*
X228722976Y-46137881D01*
X229079167Y-45826214D01*
X229079167Y-45959786D01*
X229123690Y-46048833D01*
X229168214Y-46093357D01*
X229257262Y-46137881D01*
X229479881Y-46137881D01*
X229568929Y-46093357D01*
X229613452Y-46048833D01*
X229657976Y-45959786D01*
X229657976Y-45692643D01*
X229613452Y-45603595D01*
X229568929Y-45559071D01*
X248707976Y-43822643D02*
X247772976Y-43822643D01*
X247772976Y-44045262D01*
X247817500Y-44178834D01*
X247906548Y-44267881D01*
X247995595Y-44312405D01*
X248173690Y-44356929D01*
X248307262Y-44356929D01*
X248485357Y-44312405D01*
X248574405Y-44267881D01*
X248663452Y-44178834D01*
X248707976Y-44045262D01*
X248707976Y-43822643D01*
X248084643Y-45158357D02*
X248707976Y-45158357D01*
X247728452Y-44935738D02*
X248396310Y-44713119D01*
X248396310Y-45291929D01*
X248084643Y-46048833D02*
X248707976Y-46048833D01*
X247728452Y-45826214D02*
X248396310Y-45603595D01*
X248396310Y-46182405D01*
X272837976Y-43822643D02*
X271902976Y-43822643D01*
X271902976Y-44045262D01*
X271947500Y-44178834D01*
X272036548Y-44267881D01*
X272125595Y-44312405D01*
X272303690Y-44356929D01*
X272437262Y-44356929D01*
X272615357Y-44312405D01*
X272704405Y-44267881D01*
X272793452Y-44178834D01*
X272837976Y-44045262D01*
X272837976Y-43822643D01*
X272214643Y-45158357D02*
X272837976Y-45158357D01*
X271858452Y-44935738D02*
X272526310Y-44713119D01*
X272526310Y-45291929D01*
X271902976Y-46093357D02*
X271902976Y-45648119D01*
X272348214Y-45603595D01*
X272303690Y-45648119D01*
X272259167Y-45737167D01*
X272259167Y-45959786D01*
X272303690Y-46048833D01*
X272348214Y-46093357D01*
X272437262Y-46137881D01*
X272659881Y-46137881D01*
X272748929Y-46093357D01*
X272793452Y-46048833D01*
X272837976Y-45959786D01*
X272837976Y-45737167D01*
X272793452Y-45648119D01*
X272748929Y-45603595D01*
X296967976Y-43822643D02*
X296032976Y-43822643D01*
X296032976Y-44045262D01*
X296077500Y-44178834D01*
X296166548Y-44267881D01*
X296255595Y-44312405D01*
X296433690Y-44356929D01*
X296567262Y-44356929D01*
X296745357Y-44312405D01*
X296834405Y-44267881D01*
X296923452Y-44178834D01*
X296967976Y-44045262D01*
X296967976Y-43822643D01*
X296344643Y-45158357D02*
X296967976Y-45158357D01*
X295988452Y-44935738D02*
X296656310Y-44713119D01*
X296656310Y-45291929D01*
X296032976Y-46048833D02*
X296032976Y-45870738D01*
X296077500Y-45781690D01*
X296122024Y-45737167D01*
X296255595Y-45648119D01*
X296433690Y-45603595D01*
X296789881Y-45603595D01*
X296878929Y-45648119D01*
X296923452Y-45692643D01*
X296967976Y-45781690D01*
X296967976Y-45959786D01*
X296923452Y-46048833D01*
X296878929Y-46093357D01*
X296789881Y-46137881D01*
X296567262Y-46137881D01*
X296478214Y-46093357D01*
X296433690Y-46048833D01*
X296389167Y-45959786D01*
X296389167Y-45781690D01*
X296433690Y-45692643D01*
X296478214Y-45648119D01*
X296567262Y-45603595D01*
X17567976Y-62872643D02*
X16632976Y-62872643D01*
X16632976Y-63095262D01*
X16677500Y-63228834D01*
X16766548Y-63317881D01*
X16855595Y-63362405D01*
X17033690Y-63406929D01*
X17167262Y-63406929D01*
X17345357Y-63362405D01*
X17434405Y-63317881D01*
X17523452Y-63228834D01*
X17567976Y-63095262D01*
X17567976Y-62872643D01*
X16944643Y-64208357D02*
X17567976Y-64208357D01*
X16588452Y-63985738D02*
X17256310Y-63763119D01*
X17256310Y-64341929D01*
X16632976Y-64609071D02*
X16632976Y-65232405D01*
X17567976Y-64831690D01*
X44237976Y-62872643D02*
X43302976Y-62872643D01*
X43302976Y-63095262D01*
X43347500Y-63228834D01*
X43436548Y-63317881D01*
X43525595Y-63362405D01*
X43703690Y-63406929D01*
X43837262Y-63406929D01*
X44015357Y-63362405D01*
X44104405Y-63317881D01*
X44193452Y-63228834D01*
X44237976Y-63095262D01*
X44237976Y-62872643D01*
X43614643Y-64208357D02*
X44237976Y-64208357D01*
X43258452Y-63985738D02*
X43926310Y-63763119D01*
X43926310Y-64341929D01*
X43703690Y-64831690D02*
X43659167Y-64742643D01*
X43614643Y-64698119D01*
X43525595Y-64653595D01*
X43481071Y-64653595D01*
X43392024Y-64698119D01*
X43347500Y-64742643D01*
X43302976Y-64831690D01*
X43302976Y-65009786D01*
X43347500Y-65098833D01*
X43392024Y-65143357D01*
X43481071Y-65187881D01*
X43525595Y-65187881D01*
X43614643Y-65143357D01*
X43659167Y-65098833D01*
X43703690Y-65009786D01*
X43703690Y-64831690D01*
X43748214Y-64742643D01*
X43792738Y-64698119D01*
X43881786Y-64653595D01*
X44059881Y-64653595D01*
X44148929Y-64698119D01*
X44193452Y-64742643D01*
X44237976Y-64831690D01*
X44237976Y-65009786D01*
X44193452Y-65098833D01*
X44148929Y-65143357D01*
X44059881Y-65187881D01*
X43881786Y-65187881D01*
X43792738Y-65143357D01*
X43748214Y-65098833D01*
X43703690Y-65009786D01*
X63287976Y-62872643D02*
X62352976Y-62872643D01*
X62352976Y-63095262D01*
X62397500Y-63228834D01*
X62486548Y-63317881D01*
X62575595Y-63362405D01*
X62753690Y-63406929D01*
X62887262Y-63406929D01*
X63065357Y-63362405D01*
X63154405Y-63317881D01*
X63243452Y-63228834D01*
X63287976Y-63095262D01*
X63287976Y-62872643D01*
X62664643Y-64208357D02*
X63287976Y-64208357D01*
X62308452Y-63985738D02*
X62976310Y-63763119D01*
X62976310Y-64341929D01*
X63287976Y-64742643D02*
X63287976Y-64920738D01*
X63243452Y-65009786D01*
X63198929Y-65054310D01*
X63065357Y-65143357D01*
X62887262Y-65187881D01*
X62531071Y-65187881D01*
X62442024Y-65143357D01*
X62397500Y-65098833D01*
X62352976Y-65009786D01*
X62352976Y-64831690D01*
X62397500Y-64742643D01*
X62442024Y-64698119D01*
X62531071Y-64653595D01*
X62753690Y-64653595D01*
X62842738Y-64698119D01*
X62887262Y-64742643D01*
X62931786Y-64831690D01*
X62931786Y-65009786D01*
X62887262Y-65098833D01*
X62842738Y-65143357D01*
X62753690Y-65187881D01*
X82337976Y-62872643D02*
X81402976Y-62872643D01*
X81402976Y-63095262D01*
X81447500Y-63228834D01*
X81536548Y-63317881D01*
X81625595Y-63362405D01*
X81803690Y-63406929D01*
X81937262Y-63406929D01*
X82115357Y-63362405D01*
X82204405Y-63317881D01*
X82293452Y-63228834D01*
X82337976Y-63095262D01*
X82337976Y-62872643D01*
X81402976Y-64252881D02*
X81402976Y-63807643D01*
X81848214Y-63763119D01*
X81803690Y-63807643D01*
X81759167Y-63896691D01*
X81759167Y-64119310D01*
X81803690Y-64208357D01*
X81848214Y-64252881D01*
X81937262Y-64297405D01*
X82159881Y-64297405D01*
X82248929Y-64252881D01*
X82293452Y-64208357D01*
X82337976Y-64119310D01*
X82337976Y-63896691D01*
X82293452Y-63807643D01*
X82248929Y-63763119D01*
X81402976Y-64876214D02*
X81402976Y-64965262D01*
X81447500Y-65054310D01*
X81492024Y-65098833D01*
X81581071Y-65143357D01*
X81759167Y-65187881D01*
X81981786Y-65187881D01*
X82159881Y-65143357D01*
X82248929Y-65098833D01*
X82293452Y-65054310D01*
X82337976Y-64965262D01*
X82337976Y-64876214D01*
X82293452Y-64787167D01*
X82248929Y-64742643D01*
X82159881Y-64698119D01*
X81981786Y-64653595D01*
X81759167Y-64653595D01*
X81581071Y-64698119D01*
X81492024Y-64742643D01*
X81447500Y-64787167D01*
X81402976Y-64876214D01*
X101387976Y-62872643D02*
X100452976Y-62872643D01*
X100452976Y-63095262D01*
X100497500Y-63228834D01*
X100586548Y-63317881D01*
X100675595Y-63362405D01*
X100853690Y-63406929D01*
X100987262Y-63406929D01*
X101165357Y-63362405D01*
X101254405Y-63317881D01*
X101343452Y-63228834D01*
X101387976Y-63095262D01*
X101387976Y-62872643D01*
X100452976Y-64252881D02*
X100452976Y-63807643D01*
X100898214Y-63763119D01*
X100853690Y-63807643D01*
X100809167Y-63896691D01*
X100809167Y-64119310D01*
X100853690Y-64208357D01*
X100898214Y-64252881D01*
X100987262Y-64297405D01*
X101209881Y-64297405D01*
X101298929Y-64252881D01*
X101343452Y-64208357D01*
X101387976Y-64119310D01*
X101387976Y-63896691D01*
X101343452Y-63807643D01*
X101298929Y-63763119D01*
X101387976Y-65187881D02*
X101387976Y-64653595D01*
X101387976Y-64920738D02*
X100452976Y-64920738D01*
X100586548Y-64831690D01*
X100675595Y-64742643D01*
X100720119Y-64653595D01*
X120437976Y-62872643D02*
X119502976Y-62872643D01*
X119502976Y-63095262D01*
X119547500Y-63228834D01*
X119636548Y-63317881D01*
X119725595Y-63362405D01*
X119903690Y-63406929D01*
X120037262Y-63406929D01*
X120215357Y-63362405D01*
X120304405Y-63317881D01*
X120393452Y-63228834D01*
X120437976Y-63095262D01*
X120437976Y-62872643D01*
X119502976Y-64252881D02*
X119502976Y-63807643D01*
X119948214Y-63763119D01*
X119903690Y-63807643D01*
X119859167Y-63896691D01*
X119859167Y-64119310D01*
X119903690Y-64208357D01*
X119948214Y-64252881D01*
X120037262Y-64297405D01*
X120259881Y-64297405D01*
X120348929Y-64252881D01*
X120393452Y-64208357D01*
X120437976Y-64119310D01*
X120437976Y-63896691D01*
X120393452Y-63807643D01*
X120348929Y-63763119D01*
X119592024Y-64653595D02*
X119547500Y-64698119D01*
X119502976Y-64787167D01*
X119502976Y-65009786D01*
X119547500Y-65098833D01*
X119592024Y-65143357D01*
X119681071Y-65187881D01*
X119770119Y-65187881D01*
X119903690Y-65143357D01*
X120437976Y-64609071D01*
X120437976Y-65187881D01*
X139487976Y-62872643D02*
X138552976Y-62872643D01*
X138552976Y-63095262D01*
X138597500Y-63228834D01*
X138686548Y-63317881D01*
X138775595Y-63362405D01*
X138953690Y-63406929D01*
X139087262Y-63406929D01*
X139265357Y-63362405D01*
X139354405Y-63317881D01*
X139443452Y-63228834D01*
X139487976Y-63095262D01*
X139487976Y-62872643D01*
X138552976Y-64252881D02*
X138552976Y-63807643D01*
X138998214Y-63763119D01*
X138953690Y-63807643D01*
X138909167Y-63896691D01*
X138909167Y-64119310D01*
X138953690Y-64208357D01*
X138998214Y-64252881D01*
X139087262Y-64297405D01*
X139309881Y-64297405D01*
X139398929Y-64252881D01*
X139443452Y-64208357D01*
X139487976Y-64119310D01*
X139487976Y-63896691D01*
X139443452Y-63807643D01*
X139398929Y-63763119D01*
X138552976Y-64609071D02*
X138552976Y-65187881D01*
X138909167Y-64876214D01*
X138909167Y-65009786D01*
X138953690Y-65098833D01*
X138998214Y-65143357D01*
X139087262Y-65187881D01*
X139309881Y-65187881D01*
X139398929Y-65143357D01*
X139443452Y-65098833D01*
X139487976Y-65009786D01*
X139487976Y-64742643D01*
X139443452Y-64653595D01*
X139398929Y-64609071D01*
X158537976Y-62872643D02*
X157602976Y-62872643D01*
X157602976Y-63095262D01*
X157647500Y-63228834D01*
X157736548Y-63317881D01*
X157825595Y-63362405D01*
X158003690Y-63406929D01*
X158137262Y-63406929D01*
X158315357Y-63362405D01*
X158404405Y-63317881D01*
X158493452Y-63228834D01*
X158537976Y-63095262D01*
X158537976Y-62872643D01*
X157602976Y-64252881D02*
X157602976Y-63807643D01*
X158048214Y-63763119D01*
X158003690Y-63807643D01*
X157959167Y-63896691D01*
X157959167Y-64119310D01*
X158003690Y-64208357D01*
X158048214Y-64252881D01*
X158137262Y-64297405D01*
X158359881Y-64297405D01*
X158448929Y-64252881D01*
X158493452Y-64208357D01*
X158537976Y-64119310D01*
X158537976Y-63896691D01*
X158493452Y-63807643D01*
X158448929Y-63763119D01*
X157914643Y-65098833D02*
X158537976Y-65098833D01*
X157558452Y-64876214D02*
X158226310Y-64653595D01*
X158226310Y-65232405D01*
X177587976Y-62872643D02*
X176652976Y-62872643D01*
X176652976Y-63095262D01*
X176697500Y-63228834D01*
X176786548Y-63317881D01*
X176875595Y-63362405D01*
X177053690Y-63406929D01*
X177187262Y-63406929D01*
X177365357Y-63362405D01*
X177454405Y-63317881D01*
X177543452Y-63228834D01*
X177587976Y-63095262D01*
X177587976Y-62872643D01*
X176652976Y-64252881D02*
X176652976Y-63807643D01*
X177098214Y-63763119D01*
X177053690Y-63807643D01*
X177009167Y-63896691D01*
X177009167Y-64119310D01*
X177053690Y-64208357D01*
X177098214Y-64252881D01*
X177187262Y-64297405D01*
X177409881Y-64297405D01*
X177498929Y-64252881D01*
X177543452Y-64208357D01*
X177587976Y-64119310D01*
X177587976Y-63896691D01*
X177543452Y-63807643D01*
X177498929Y-63763119D01*
X176652976Y-65143357D02*
X176652976Y-64698119D01*
X177098214Y-64653595D01*
X177053690Y-64698119D01*
X177009167Y-64787167D01*
X177009167Y-65009786D01*
X177053690Y-65098833D01*
X177098214Y-65143357D01*
X177187262Y-65187881D01*
X177409881Y-65187881D01*
X177498929Y-65143357D01*
X177543452Y-65098833D01*
X177587976Y-65009786D01*
X177587976Y-64787167D01*
X177543452Y-64698119D01*
X177498929Y-64653595D01*
X196637976Y-62872643D02*
X195702976Y-62872643D01*
X195702976Y-63095262D01*
X195747500Y-63228834D01*
X195836548Y-63317881D01*
X195925595Y-63362405D01*
X196103690Y-63406929D01*
X196237262Y-63406929D01*
X196415357Y-63362405D01*
X196504405Y-63317881D01*
X196593452Y-63228834D01*
X196637976Y-63095262D01*
X196637976Y-62872643D01*
X195702976Y-64252881D02*
X195702976Y-63807643D01*
X196148214Y-63763119D01*
X196103690Y-63807643D01*
X196059167Y-63896691D01*
X196059167Y-64119310D01*
X196103690Y-64208357D01*
X196148214Y-64252881D01*
X196237262Y-64297405D01*
X196459881Y-64297405D01*
X196548929Y-64252881D01*
X196593452Y-64208357D01*
X196637976Y-64119310D01*
X196637976Y-63896691D01*
X196593452Y-63807643D01*
X196548929Y-63763119D01*
X195702976Y-65098833D02*
X195702976Y-64920738D01*
X195747500Y-64831690D01*
X195792024Y-64787167D01*
X195925595Y-64698119D01*
X196103690Y-64653595D01*
X196459881Y-64653595D01*
X196548929Y-64698119D01*
X196593452Y-64742643D01*
X196637976Y-64831690D01*
X196637976Y-65009786D01*
X196593452Y-65098833D01*
X196548929Y-65143357D01*
X196459881Y-65187881D01*
X196237262Y-65187881D01*
X196148214Y-65143357D01*
X196103690Y-65098833D01*
X196059167Y-65009786D01*
X196059167Y-64831690D01*
X196103690Y-64742643D01*
X196148214Y-64698119D01*
X196237262Y-64653595D01*
X215687976Y-62872643D02*
X214752976Y-62872643D01*
X214752976Y-63095262D01*
X214797500Y-63228834D01*
X214886548Y-63317881D01*
X214975595Y-63362405D01*
X215153690Y-63406929D01*
X215287262Y-63406929D01*
X215465357Y-63362405D01*
X215554405Y-63317881D01*
X215643452Y-63228834D01*
X215687976Y-63095262D01*
X215687976Y-62872643D01*
X214752976Y-64252881D02*
X214752976Y-63807643D01*
X215198214Y-63763119D01*
X215153690Y-63807643D01*
X215109167Y-63896691D01*
X215109167Y-64119310D01*
X215153690Y-64208357D01*
X215198214Y-64252881D01*
X215287262Y-64297405D01*
X215509881Y-64297405D01*
X215598929Y-64252881D01*
X215643452Y-64208357D01*
X215687976Y-64119310D01*
X215687976Y-63896691D01*
X215643452Y-63807643D01*
X215598929Y-63763119D01*
X214752976Y-64609071D02*
X214752976Y-65232405D01*
X215687976Y-64831690D01*
X234737976Y-62872643D02*
X233802976Y-62872643D01*
X233802976Y-63095262D01*
X233847500Y-63228834D01*
X233936548Y-63317881D01*
X234025595Y-63362405D01*
X234203690Y-63406929D01*
X234337262Y-63406929D01*
X234515357Y-63362405D01*
X234604405Y-63317881D01*
X234693452Y-63228834D01*
X234737976Y-63095262D01*
X234737976Y-62872643D01*
X233802976Y-64252881D02*
X233802976Y-63807643D01*
X234248214Y-63763119D01*
X234203690Y-63807643D01*
X234159167Y-63896691D01*
X234159167Y-64119310D01*
X234203690Y-64208357D01*
X234248214Y-64252881D01*
X234337262Y-64297405D01*
X234559881Y-64297405D01*
X234648929Y-64252881D01*
X234693452Y-64208357D01*
X234737976Y-64119310D01*
X234737976Y-63896691D01*
X234693452Y-63807643D01*
X234648929Y-63763119D01*
X234203690Y-64831690D02*
X234159167Y-64742643D01*
X234114643Y-64698119D01*
X234025595Y-64653595D01*
X233981071Y-64653595D01*
X233892024Y-64698119D01*
X233847500Y-64742643D01*
X233802976Y-64831690D01*
X233802976Y-65009786D01*
X233847500Y-65098833D01*
X233892024Y-65143357D01*
X233981071Y-65187881D01*
X234025595Y-65187881D01*
X234114643Y-65143357D01*
X234159167Y-65098833D01*
X234203690Y-65009786D01*
X234203690Y-64831690D01*
X234248214Y-64742643D01*
X234292738Y-64698119D01*
X234381786Y-64653595D01*
X234559881Y-64653595D01*
X234648929Y-64698119D01*
X234693452Y-64742643D01*
X234737976Y-64831690D01*
X234737976Y-65009786D01*
X234693452Y-65098833D01*
X234648929Y-65143357D01*
X234559881Y-65187881D01*
X234381786Y-65187881D01*
X234292738Y-65143357D01*
X234248214Y-65098833D01*
X234203690Y-65009786D01*
X263947976Y-62872643D02*
X263012976Y-62872643D01*
X263012976Y-63095262D01*
X263057500Y-63228834D01*
X263146548Y-63317881D01*
X263235595Y-63362405D01*
X263413690Y-63406929D01*
X263547262Y-63406929D01*
X263725357Y-63362405D01*
X263814405Y-63317881D01*
X263903452Y-63228834D01*
X263947976Y-63095262D01*
X263947976Y-62872643D01*
X263012976Y-64252881D02*
X263012976Y-63807643D01*
X263458214Y-63763119D01*
X263413690Y-63807643D01*
X263369167Y-63896691D01*
X263369167Y-64119310D01*
X263413690Y-64208357D01*
X263458214Y-64252881D01*
X263547262Y-64297405D01*
X263769881Y-64297405D01*
X263858929Y-64252881D01*
X263903452Y-64208357D01*
X263947976Y-64119310D01*
X263947976Y-63896691D01*
X263903452Y-63807643D01*
X263858929Y-63763119D01*
X263947976Y-64742643D02*
X263947976Y-64920738D01*
X263903452Y-65009786D01*
X263858929Y-65054310D01*
X263725357Y-65143357D01*
X263547262Y-65187881D01*
X263191071Y-65187881D01*
X263102024Y-65143357D01*
X263057500Y-65098833D01*
X263012976Y-65009786D01*
X263012976Y-64831690D01*
X263057500Y-64742643D01*
X263102024Y-64698119D01*
X263191071Y-64653595D01*
X263413690Y-64653595D01*
X263502738Y-64698119D01*
X263547262Y-64742643D01*
X263591786Y-64831690D01*
X263591786Y-65009786D01*
X263547262Y-65098833D01*
X263502738Y-65143357D01*
X263413690Y-65187881D01*
X296967976Y-62872643D02*
X296032976Y-62872643D01*
X296032976Y-63095262D01*
X296077500Y-63228834D01*
X296166548Y-63317881D01*
X296255595Y-63362405D01*
X296433690Y-63406929D01*
X296567262Y-63406929D01*
X296745357Y-63362405D01*
X296834405Y-63317881D01*
X296923452Y-63228834D01*
X296967976Y-63095262D01*
X296967976Y-62872643D01*
X296032976Y-64208357D02*
X296032976Y-64030262D01*
X296077500Y-63941214D01*
X296122024Y-63896691D01*
X296255595Y-63807643D01*
X296433690Y-63763119D01*
X296789881Y-63763119D01*
X296878929Y-63807643D01*
X296923452Y-63852167D01*
X296967976Y-63941214D01*
X296967976Y-64119310D01*
X296923452Y-64208357D01*
X296878929Y-64252881D01*
X296789881Y-64297405D01*
X296567262Y-64297405D01*
X296478214Y-64252881D01*
X296433690Y-64208357D01*
X296389167Y-64119310D01*
X296389167Y-63941214D01*
X296433690Y-63852167D01*
X296478214Y-63807643D01*
X296567262Y-63763119D01*
X296032976Y-64876214D02*
X296032976Y-64965262D01*
X296077500Y-65054310D01*
X296122024Y-65098833D01*
X296211071Y-65143357D01*
X296389167Y-65187881D01*
X296611786Y-65187881D01*
X296789881Y-65143357D01*
X296878929Y-65098833D01*
X296923452Y-65054310D01*
X296967976Y-64965262D01*
X296967976Y-64876214D01*
X296923452Y-64787167D01*
X296878929Y-64742643D01*
X296789881Y-64698119D01*
X296611786Y-64653595D01*
X296389167Y-64653595D01*
X296211071Y-64698119D01*
X296122024Y-64742643D01*
X296077500Y-64787167D01*
X296032976Y-64876214D01*
X21377976Y-81922643D02*
X20442976Y-81922643D01*
X20442976Y-82145262D01*
X20487500Y-82278834D01*
X20576548Y-82367881D01*
X20665595Y-82412405D01*
X20843690Y-82456929D01*
X20977262Y-82456929D01*
X21155357Y-82412405D01*
X21244405Y-82367881D01*
X21333452Y-82278834D01*
X21377976Y-82145262D01*
X21377976Y-81922643D01*
X20442976Y-83258357D02*
X20442976Y-83080262D01*
X20487500Y-82991214D01*
X20532024Y-82946691D01*
X20665595Y-82857643D01*
X20843690Y-82813119D01*
X21199881Y-82813119D01*
X21288929Y-82857643D01*
X21333452Y-82902167D01*
X21377976Y-82991214D01*
X21377976Y-83169310D01*
X21333452Y-83258357D01*
X21288929Y-83302881D01*
X21199881Y-83347405D01*
X20977262Y-83347405D01*
X20888214Y-83302881D01*
X20843690Y-83258357D01*
X20799167Y-83169310D01*
X20799167Y-82991214D01*
X20843690Y-82902167D01*
X20888214Y-82857643D01*
X20977262Y-82813119D01*
X21377976Y-84237881D02*
X21377976Y-83703595D01*
X21377976Y-83970738D02*
X20442976Y-83970738D01*
X20576548Y-83881690D01*
X20665595Y-83792643D01*
X20710119Y-83703595D01*
X54397976Y-81922643D02*
X53462976Y-81922643D01*
X53462976Y-82145262D01*
X53507500Y-82278834D01*
X53596548Y-82367881D01*
X53685595Y-82412405D01*
X53863690Y-82456929D01*
X53997262Y-82456929D01*
X54175357Y-82412405D01*
X54264405Y-82367881D01*
X54353452Y-82278834D01*
X54397976Y-82145262D01*
X54397976Y-81922643D01*
X53462976Y-83258357D02*
X53462976Y-83080262D01*
X53507500Y-82991214D01*
X53552024Y-82946691D01*
X53685595Y-82857643D01*
X53863690Y-82813119D01*
X54219881Y-82813119D01*
X54308929Y-82857643D01*
X54353452Y-82902167D01*
X54397976Y-82991214D01*
X54397976Y-83169310D01*
X54353452Y-83258357D01*
X54308929Y-83302881D01*
X54219881Y-83347405D01*
X53997262Y-83347405D01*
X53908214Y-83302881D01*
X53863690Y-83258357D01*
X53819167Y-83169310D01*
X53819167Y-82991214D01*
X53863690Y-82902167D01*
X53908214Y-82857643D01*
X53997262Y-82813119D01*
X53552024Y-83703595D02*
X53507500Y-83748119D01*
X53462976Y-83837167D01*
X53462976Y-84059786D01*
X53507500Y-84148833D01*
X53552024Y-84193357D01*
X53641071Y-84237881D01*
X53730119Y-84237881D01*
X53863690Y-84193357D01*
X54397976Y-83659071D01*
X54397976Y-84237881D01*
X73447976Y-80652643D02*
X72512976Y-80652643D01*
X72512976Y-80875262D01*
X72557500Y-81008834D01*
X72646548Y-81097881D01*
X72735595Y-81142405D01*
X72913690Y-81186929D01*
X73047262Y-81186929D01*
X73225357Y-81142405D01*
X73314405Y-81097881D01*
X73403452Y-81008834D01*
X73447976Y-80875262D01*
X73447976Y-80652643D01*
X72512976Y-81988357D02*
X72512976Y-81810262D01*
X72557500Y-81721214D01*
X72602024Y-81676691D01*
X72735595Y-81587643D01*
X72913690Y-81543119D01*
X73269881Y-81543119D01*
X73358929Y-81587643D01*
X73403452Y-81632167D01*
X73447976Y-81721214D01*
X73447976Y-81899310D01*
X73403452Y-81988357D01*
X73358929Y-82032881D01*
X73269881Y-82077405D01*
X73047262Y-82077405D01*
X72958214Y-82032881D01*
X72913690Y-81988357D01*
X72869167Y-81899310D01*
X72869167Y-81721214D01*
X72913690Y-81632167D01*
X72958214Y-81587643D01*
X73047262Y-81543119D01*
X72512976Y-82389071D02*
X72512976Y-82967881D01*
X72869167Y-82656214D01*
X72869167Y-82789786D01*
X72913690Y-82878833D01*
X72958214Y-82923357D01*
X73047262Y-82967881D01*
X73269881Y-82967881D01*
X73358929Y-82923357D01*
X73403452Y-82878833D01*
X73447976Y-82789786D01*
X73447976Y-82522643D01*
X73403452Y-82433595D01*
X73358929Y-82389071D01*
X92497976Y-81922643D02*
X91562976Y-81922643D01*
X91562976Y-82145262D01*
X91607500Y-82278834D01*
X91696548Y-82367881D01*
X91785595Y-82412405D01*
X91963690Y-82456929D01*
X92097262Y-82456929D01*
X92275357Y-82412405D01*
X92364405Y-82367881D01*
X92453452Y-82278834D01*
X92497976Y-82145262D01*
X92497976Y-81922643D01*
X91562976Y-83258357D02*
X91562976Y-83080262D01*
X91607500Y-82991214D01*
X91652024Y-82946691D01*
X91785595Y-82857643D01*
X91963690Y-82813119D01*
X92319881Y-82813119D01*
X92408929Y-82857643D01*
X92453452Y-82902167D01*
X92497976Y-82991214D01*
X92497976Y-83169310D01*
X92453452Y-83258357D01*
X92408929Y-83302881D01*
X92319881Y-83347405D01*
X92097262Y-83347405D01*
X92008214Y-83302881D01*
X91963690Y-83258357D01*
X91919167Y-83169310D01*
X91919167Y-82991214D01*
X91963690Y-82902167D01*
X92008214Y-82857643D01*
X92097262Y-82813119D01*
X91874643Y-84148833D02*
X92497976Y-84148833D01*
X91518452Y-83926214D02*
X92186310Y-83703595D01*
X92186310Y-84282405D01*
X111547976Y-81922643D02*
X110612976Y-81922643D01*
X110612976Y-82145262D01*
X110657500Y-82278834D01*
X110746548Y-82367881D01*
X110835595Y-82412405D01*
X111013690Y-82456929D01*
X111147262Y-82456929D01*
X111325357Y-82412405D01*
X111414405Y-82367881D01*
X111503452Y-82278834D01*
X111547976Y-82145262D01*
X111547976Y-81922643D01*
X110612976Y-83258357D02*
X110612976Y-83080262D01*
X110657500Y-82991214D01*
X110702024Y-82946691D01*
X110835595Y-82857643D01*
X111013690Y-82813119D01*
X111369881Y-82813119D01*
X111458929Y-82857643D01*
X111503452Y-82902167D01*
X111547976Y-82991214D01*
X111547976Y-83169310D01*
X111503452Y-83258357D01*
X111458929Y-83302881D01*
X111369881Y-83347405D01*
X111147262Y-83347405D01*
X111058214Y-83302881D01*
X111013690Y-83258357D01*
X110969167Y-83169310D01*
X110969167Y-82991214D01*
X111013690Y-82902167D01*
X111058214Y-82857643D01*
X111147262Y-82813119D01*
X110612976Y-84193357D02*
X110612976Y-83748119D01*
X111058214Y-83703595D01*
X111013690Y-83748119D01*
X110969167Y-83837167D01*
X110969167Y-84059786D01*
X111013690Y-84148833D01*
X111058214Y-84193357D01*
X111147262Y-84237881D01*
X111369881Y-84237881D01*
X111458929Y-84193357D01*
X111503452Y-84148833D01*
X111547976Y-84059786D01*
X111547976Y-83837167D01*
X111503452Y-83748119D01*
X111458929Y-83703595D01*
X130597976Y-81922643D02*
X129662976Y-81922643D01*
X129662976Y-82145262D01*
X129707500Y-82278834D01*
X129796548Y-82367881D01*
X129885595Y-82412405D01*
X130063690Y-82456929D01*
X130197262Y-82456929D01*
X130375357Y-82412405D01*
X130464405Y-82367881D01*
X130553452Y-82278834D01*
X130597976Y-82145262D01*
X130597976Y-81922643D01*
X129662976Y-83258357D02*
X129662976Y-83080262D01*
X129707500Y-82991214D01*
X129752024Y-82946691D01*
X129885595Y-82857643D01*
X130063690Y-82813119D01*
X130419881Y-82813119D01*
X130508929Y-82857643D01*
X130553452Y-82902167D01*
X130597976Y-82991214D01*
X130597976Y-83169310D01*
X130553452Y-83258357D01*
X130508929Y-83302881D01*
X130419881Y-83347405D01*
X130197262Y-83347405D01*
X130108214Y-83302881D01*
X130063690Y-83258357D01*
X130019167Y-83169310D01*
X130019167Y-82991214D01*
X130063690Y-82902167D01*
X130108214Y-82857643D01*
X130197262Y-82813119D01*
X129662976Y-84148833D02*
X129662976Y-83970738D01*
X129707500Y-83881690D01*
X129752024Y-83837167D01*
X129885595Y-83748119D01*
X130063690Y-83703595D01*
X130419881Y-83703595D01*
X130508929Y-83748119D01*
X130553452Y-83792643D01*
X130597976Y-83881690D01*
X130597976Y-84059786D01*
X130553452Y-84148833D01*
X130508929Y-84193357D01*
X130419881Y-84237881D01*
X130197262Y-84237881D01*
X130108214Y-84193357D01*
X130063690Y-84148833D01*
X130019167Y-84059786D01*
X130019167Y-83881690D01*
X130063690Y-83792643D01*
X130108214Y-83748119D01*
X130197262Y-83703595D01*
X149647976Y-81922643D02*
X148712976Y-81922643D01*
X148712976Y-82145262D01*
X148757500Y-82278834D01*
X148846548Y-82367881D01*
X148935595Y-82412405D01*
X149113690Y-82456929D01*
X149247262Y-82456929D01*
X149425357Y-82412405D01*
X149514405Y-82367881D01*
X149603452Y-82278834D01*
X149647976Y-82145262D01*
X149647976Y-81922643D01*
X148712976Y-83258357D02*
X148712976Y-83080262D01*
X148757500Y-82991214D01*
X148802024Y-82946691D01*
X148935595Y-82857643D01*
X149113690Y-82813119D01*
X149469881Y-82813119D01*
X149558929Y-82857643D01*
X149603452Y-82902167D01*
X149647976Y-82991214D01*
X149647976Y-83169310D01*
X149603452Y-83258357D01*
X149558929Y-83302881D01*
X149469881Y-83347405D01*
X149247262Y-83347405D01*
X149158214Y-83302881D01*
X149113690Y-83258357D01*
X149069167Y-83169310D01*
X149069167Y-82991214D01*
X149113690Y-82902167D01*
X149158214Y-82857643D01*
X149247262Y-82813119D01*
X148712976Y-83659071D02*
X148712976Y-84282405D01*
X149647976Y-83881690D01*
X168697976Y-81922643D02*
X167762976Y-81922643D01*
X167762976Y-82145262D01*
X167807500Y-82278834D01*
X167896548Y-82367881D01*
X167985595Y-82412405D01*
X168163690Y-82456929D01*
X168297262Y-82456929D01*
X168475357Y-82412405D01*
X168564405Y-82367881D01*
X168653452Y-82278834D01*
X168697976Y-82145262D01*
X168697976Y-81922643D01*
X167762976Y-83258357D02*
X167762976Y-83080262D01*
X167807500Y-82991214D01*
X167852024Y-82946691D01*
X167985595Y-82857643D01*
X168163690Y-82813119D01*
X168519881Y-82813119D01*
X168608929Y-82857643D01*
X168653452Y-82902167D01*
X168697976Y-82991214D01*
X168697976Y-83169310D01*
X168653452Y-83258357D01*
X168608929Y-83302881D01*
X168519881Y-83347405D01*
X168297262Y-83347405D01*
X168208214Y-83302881D01*
X168163690Y-83258357D01*
X168119167Y-83169310D01*
X168119167Y-82991214D01*
X168163690Y-82902167D01*
X168208214Y-82857643D01*
X168297262Y-82813119D01*
X168163690Y-83881690D02*
X168119167Y-83792643D01*
X168074643Y-83748119D01*
X167985595Y-83703595D01*
X167941071Y-83703595D01*
X167852024Y-83748119D01*
X167807500Y-83792643D01*
X167762976Y-83881690D01*
X167762976Y-84059786D01*
X167807500Y-84148833D01*
X167852024Y-84193357D01*
X167941071Y-84237881D01*
X167985595Y-84237881D01*
X168074643Y-84193357D01*
X168119167Y-84148833D01*
X168163690Y-84059786D01*
X168163690Y-83881690D01*
X168208214Y-83792643D01*
X168252738Y-83748119D01*
X168341786Y-83703595D01*
X168519881Y-83703595D01*
X168608929Y-83748119D01*
X168653452Y-83792643D01*
X168697976Y-83881690D01*
X168697976Y-84059786D01*
X168653452Y-84148833D01*
X168608929Y-84193357D01*
X168519881Y-84237881D01*
X168341786Y-84237881D01*
X168252738Y-84193357D01*
X168208214Y-84148833D01*
X168163690Y-84059786D01*
X187747976Y-81922643D02*
X186812976Y-81922643D01*
X186812976Y-82145262D01*
X186857500Y-82278834D01*
X186946548Y-82367881D01*
X187035595Y-82412405D01*
X187213690Y-82456929D01*
X187347262Y-82456929D01*
X187525357Y-82412405D01*
X187614405Y-82367881D01*
X187703452Y-82278834D01*
X187747976Y-82145262D01*
X187747976Y-81922643D01*
X186812976Y-83258357D02*
X186812976Y-83080262D01*
X186857500Y-82991214D01*
X186902024Y-82946691D01*
X187035595Y-82857643D01*
X187213690Y-82813119D01*
X187569881Y-82813119D01*
X187658929Y-82857643D01*
X187703452Y-82902167D01*
X187747976Y-82991214D01*
X187747976Y-83169310D01*
X187703452Y-83258357D01*
X187658929Y-83302881D01*
X187569881Y-83347405D01*
X187347262Y-83347405D01*
X187258214Y-83302881D01*
X187213690Y-83258357D01*
X187169167Y-83169310D01*
X187169167Y-82991214D01*
X187213690Y-82902167D01*
X187258214Y-82857643D01*
X187347262Y-82813119D01*
X187747976Y-83792643D02*
X187747976Y-83970738D01*
X187703452Y-84059786D01*
X187658929Y-84104310D01*
X187525357Y-84193357D01*
X187347262Y-84237881D01*
X186991071Y-84237881D01*
X186902024Y-84193357D01*
X186857500Y-84148833D01*
X186812976Y-84059786D01*
X186812976Y-83881690D01*
X186857500Y-83792643D01*
X186902024Y-83748119D01*
X186991071Y-83703595D01*
X187213690Y-83703595D01*
X187302738Y-83748119D01*
X187347262Y-83792643D01*
X187391786Y-83881690D01*
X187391786Y-84059786D01*
X187347262Y-84148833D01*
X187302738Y-84193357D01*
X187213690Y-84237881D01*
X206797976Y-81922643D02*
X205862976Y-81922643D01*
X205862976Y-82145262D01*
X205907500Y-82278834D01*
X205996548Y-82367881D01*
X206085595Y-82412405D01*
X206263690Y-82456929D01*
X206397262Y-82456929D01*
X206575357Y-82412405D01*
X206664405Y-82367881D01*
X206753452Y-82278834D01*
X206797976Y-82145262D01*
X206797976Y-81922643D01*
X205862976Y-82768595D02*
X205862976Y-83391929D01*
X206797976Y-82991214D01*
X205862976Y-83926214D02*
X205862976Y-84015262D01*
X205907500Y-84104310D01*
X205952024Y-84148833D01*
X206041071Y-84193357D01*
X206219167Y-84237881D01*
X206441786Y-84237881D01*
X206619881Y-84193357D01*
X206708929Y-84148833D01*
X206753452Y-84104310D01*
X206797976Y-84015262D01*
X206797976Y-83926214D01*
X206753452Y-83837167D01*
X206708929Y-83792643D01*
X206619881Y-83748119D01*
X206441786Y-83703595D01*
X206219167Y-83703595D01*
X206041071Y-83748119D01*
X205952024Y-83792643D01*
X205907500Y-83837167D01*
X205862976Y-83926214D01*
X225847976Y-81922643D02*
X224912976Y-81922643D01*
X224912976Y-82145262D01*
X224957500Y-82278834D01*
X225046548Y-82367881D01*
X225135595Y-82412405D01*
X225313690Y-82456929D01*
X225447262Y-82456929D01*
X225625357Y-82412405D01*
X225714405Y-82367881D01*
X225803452Y-82278834D01*
X225847976Y-82145262D01*
X225847976Y-81922643D01*
X224912976Y-82768595D02*
X224912976Y-83391929D01*
X225847976Y-82991214D01*
X225847976Y-84237881D02*
X225847976Y-83703595D01*
X225847976Y-83970738D02*
X224912976Y-83970738D01*
X225046548Y-83881690D01*
X225135595Y-83792643D01*
X225180119Y-83703595D01*
X252517976Y-81922643D02*
X251582976Y-81922643D01*
X251582976Y-82145262D01*
X251627500Y-82278834D01*
X251716548Y-82367881D01*
X251805595Y-82412405D01*
X251983690Y-82456929D01*
X252117262Y-82456929D01*
X252295357Y-82412405D01*
X252384405Y-82367881D01*
X252473452Y-82278834D01*
X252517976Y-82145262D01*
X252517976Y-81922643D01*
X251582976Y-82768595D02*
X251582976Y-83391929D01*
X252517976Y-82991214D01*
X251672024Y-83703595D02*
X251627500Y-83748119D01*
X251582976Y-83837167D01*
X251582976Y-84059786D01*
X251627500Y-84148833D01*
X251672024Y-84193357D01*
X251761071Y-84237881D01*
X251850119Y-84237881D01*
X251983690Y-84193357D01*
X252517976Y-83659071D01*
X252517976Y-84237881D01*
X277917976Y-81922643D02*
X276982976Y-81922643D01*
X276982976Y-82145262D01*
X277027500Y-82278834D01*
X277116548Y-82367881D01*
X277205595Y-82412405D01*
X277383690Y-82456929D01*
X277517262Y-82456929D01*
X277695357Y-82412405D01*
X277784405Y-82367881D01*
X277873452Y-82278834D01*
X277917976Y-82145262D01*
X277917976Y-81922643D01*
X276982976Y-82768595D02*
X276982976Y-83391929D01*
X277917976Y-82991214D01*
X276982976Y-83659071D02*
X276982976Y-84237881D01*
X277339167Y-83926214D01*
X277339167Y-84059786D01*
X277383690Y-84148833D01*
X277428214Y-84193357D01*
X277517262Y-84237881D01*
X277739881Y-84237881D01*
X277828929Y-84193357D01*
X277873452Y-84148833D01*
X277917976Y-84059786D01*
X277917976Y-83792643D01*
X277873452Y-83703595D01*
X277828929Y-83659071D01*
X296967976Y-81922643D02*
X296032976Y-81922643D01*
X296032976Y-82145262D01*
X296077500Y-82278834D01*
X296166548Y-82367881D01*
X296255595Y-82412405D01*
X296433690Y-82456929D01*
X296567262Y-82456929D01*
X296745357Y-82412405D01*
X296834405Y-82367881D01*
X296923452Y-82278834D01*
X296967976Y-82145262D01*
X296967976Y-81922643D01*
X296032976Y-82768595D02*
X296032976Y-83391929D01*
X296967976Y-82991214D01*
X296344643Y-84148833D02*
X296967976Y-84148833D01*
X295988452Y-83926214D02*
X296656310Y-83703595D01*
X296656310Y-84282405D01*
X13757976Y-100972643D02*
X12822976Y-100972643D01*
X12822976Y-101195262D01*
X12867500Y-101328834D01*
X12956548Y-101417881D01*
X13045595Y-101462405D01*
X13223690Y-101506929D01*
X13357262Y-101506929D01*
X13535357Y-101462405D01*
X13624405Y-101417881D01*
X13713452Y-101328834D01*
X13757976Y-101195262D01*
X13757976Y-100972643D01*
X12822976Y-101818595D02*
X12822976Y-102441929D01*
X13757976Y-102041214D01*
X12822976Y-103243357D02*
X12822976Y-102798119D01*
X13268214Y-102753595D01*
X13223690Y-102798119D01*
X13179167Y-102887167D01*
X13179167Y-103109786D01*
X13223690Y-103198833D01*
X13268214Y-103243357D01*
X13357262Y-103287881D01*
X13579881Y-103287881D01*
X13668929Y-103243357D01*
X13713452Y-103198833D01*
X13757976Y-103109786D01*
X13757976Y-102887167D01*
X13713452Y-102798119D01*
X13668929Y-102753595D01*
X37887976Y-100972643D02*
X36952976Y-100972643D01*
X36952976Y-101195262D01*
X36997500Y-101328834D01*
X37086548Y-101417881D01*
X37175595Y-101462405D01*
X37353690Y-101506929D01*
X37487262Y-101506929D01*
X37665357Y-101462405D01*
X37754405Y-101417881D01*
X37843452Y-101328834D01*
X37887976Y-101195262D01*
X37887976Y-100972643D01*
X36952976Y-101818595D02*
X36952976Y-102441929D01*
X37887976Y-102041214D01*
X36952976Y-103198833D02*
X36952976Y-103020738D01*
X36997500Y-102931690D01*
X37042024Y-102887167D01*
X37175595Y-102798119D01*
X37353690Y-102753595D01*
X37709881Y-102753595D01*
X37798929Y-102798119D01*
X37843452Y-102842643D01*
X37887976Y-102931690D01*
X37887976Y-103109786D01*
X37843452Y-103198833D01*
X37798929Y-103243357D01*
X37709881Y-103287881D01*
X37487262Y-103287881D01*
X37398214Y-103243357D01*
X37353690Y-103198833D01*
X37309167Y-103109786D01*
X37309167Y-102931690D01*
X37353690Y-102842643D01*
X37398214Y-102798119D01*
X37487262Y-102753595D01*
X62017976Y-100972643D02*
X61082976Y-100972643D01*
X61082976Y-101195262D01*
X61127500Y-101328834D01*
X61216548Y-101417881D01*
X61305595Y-101462405D01*
X61483690Y-101506929D01*
X61617262Y-101506929D01*
X61795357Y-101462405D01*
X61884405Y-101417881D01*
X61973452Y-101328834D01*
X62017976Y-101195262D01*
X62017976Y-100972643D01*
X61082976Y-101818595D02*
X61082976Y-102441929D01*
X62017976Y-102041214D01*
X61082976Y-102709071D02*
X61082976Y-103332405D01*
X62017976Y-102931690D01*
X133137976Y-100972643D02*
X132202976Y-100972643D01*
X132202976Y-101195262D01*
X132247500Y-101328834D01*
X132336548Y-101417881D01*
X132425595Y-101462405D01*
X132603690Y-101506929D01*
X132737262Y-101506929D01*
X132915357Y-101462405D01*
X133004405Y-101417881D01*
X133093452Y-101328834D01*
X133137976Y-101195262D01*
X133137976Y-100972643D01*
X132202976Y-101818595D02*
X132202976Y-102441929D01*
X133137976Y-102041214D01*
X132603690Y-102931690D02*
X132559167Y-102842643D01*
X132514643Y-102798119D01*
X132425595Y-102753595D01*
X132381071Y-102753595D01*
X132292024Y-102798119D01*
X132247500Y-102842643D01*
X132202976Y-102931690D01*
X132202976Y-103109786D01*
X132247500Y-103198833D01*
X132292024Y-103243357D01*
X132381071Y-103287881D01*
X132425595Y-103287881D01*
X132514643Y-103243357D01*
X132559167Y-103198833D01*
X132603690Y-103109786D01*
X132603690Y-102931690D01*
X132648214Y-102842643D01*
X132692738Y-102798119D01*
X132781786Y-102753595D01*
X132959881Y-102753595D01*
X133048929Y-102798119D01*
X133093452Y-102842643D01*
X133137976Y-102931690D01*
X133137976Y-103109786D01*
X133093452Y-103198833D01*
X133048929Y-103243357D01*
X132959881Y-103287881D01*
X132781786Y-103287881D01*
X132692738Y-103243357D01*
X132648214Y-103198833D01*
X132603690Y-103109786D01*
X201717976Y-100972643D02*
X200782976Y-100972643D01*
X200782976Y-101195262D01*
X200827500Y-101328834D01*
X200916548Y-101417881D01*
X201005595Y-101462405D01*
X201183690Y-101506929D01*
X201317262Y-101506929D01*
X201495357Y-101462405D01*
X201584405Y-101417881D01*
X201673452Y-101328834D01*
X201717976Y-101195262D01*
X201717976Y-100972643D01*
X200782976Y-101818595D02*
X200782976Y-102441929D01*
X201717976Y-102041214D01*
X201717976Y-102842643D02*
X201717976Y-103020738D01*
X201673452Y-103109786D01*
X201628929Y-103154310D01*
X201495357Y-103243357D01*
X201317262Y-103287881D01*
X200961071Y-103287881D01*
X200872024Y-103243357D01*
X200827500Y-103198833D01*
X200782976Y-103109786D01*
X200782976Y-102931690D01*
X200827500Y-102842643D01*
X200872024Y-102798119D01*
X200961071Y-102753595D01*
X201183690Y-102753595D01*
X201272738Y-102798119D01*
X201317262Y-102842643D01*
X201361786Y-102931690D01*
X201361786Y-103109786D01*
X201317262Y-103198833D01*
X201272738Y-103243357D01*
X201183690Y-103287881D01*
X220767976Y-100972643D02*
X219832976Y-100972643D01*
X219832976Y-101195262D01*
X219877500Y-101328834D01*
X219966548Y-101417881D01*
X220055595Y-101462405D01*
X220233690Y-101506929D01*
X220367262Y-101506929D01*
X220545357Y-101462405D01*
X220634405Y-101417881D01*
X220723452Y-101328834D01*
X220767976Y-101195262D01*
X220767976Y-100972643D01*
X220233690Y-102041214D02*
X220189167Y-101952167D01*
X220144643Y-101907643D01*
X220055595Y-101863119D01*
X220011071Y-101863119D01*
X219922024Y-101907643D01*
X219877500Y-101952167D01*
X219832976Y-102041214D01*
X219832976Y-102219310D01*
X219877500Y-102308357D01*
X219922024Y-102352881D01*
X220011071Y-102397405D01*
X220055595Y-102397405D01*
X220144643Y-102352881D01*
X220189167Y-102308357D01*
X220233690Y-102219310D01*
X220233690Y-102041214D01*
X220278214Y-101952167D01*
X220322738Y-101907643D01*
X220411786Y-101863119D01*
X220589881Y-101863119D01*
X220678929Y-101907643D01*
X220723452Y-101952167D01*
X220767976Y-102041214D01*
X220767976Y-102219310D01*
X220723452Y-102308357D01*
X220678929Y-102352881D01*
X220589881Y-102397405D01*
X220411786Y-102397405D01*
X220322738Y-102352881D01*
X220278214Y-102308357D01*
X220233690Y-102219310D01*
X219832976Y-102976214D02*
X219832976Y-103065262D01*
X219877500Y-103154310D01*
X219922024Y-103198833D01*
X220011071Y-103243357D01*
X220189167Y-103287881D01*
X220411786Y-103287881D01*
X220589881Y-103243357D01*
X220678929Y-103198833D01*
X220723452Y-103154310D01*
X220767976Y-103065262D01*
X220767976Y-102976214D01*
X220723452Y-102887167D01*
X220678929Y-102842643D01*
X220589881Y-102798119D01*
X220411786Y-102753595D01*
X220189167Y-102753595D01*
X220011071Y-102798119D01*
X219922024Y-102842643D01*
X219877500Y-102887167D01*
X219832976Y-102976214D01*
X239817976Y-100972643D02*
X238882976Y-100972643D01*
X238882976Y-101195262D01*
X238927500Y-101328834D01*
X239016548Y-101417881D01*
X239105595Y-101462405D01*
X239283690Y-101506929D01*
X239417262Y-101506929D01*
X239595357Y-101462405D01*
X239684405Y-101417881D01*
X239773452Y-101328834D01*
X239817976Y-101195262D01*
X239817976Y-100972643D01*
X239283690Y-102041214D02*
X239239167Y-101952167D01*
X239194643Y-101907643D01*
X239105595Y-101863119D01*
X239061071Y-101863119D01*
X238972024Y-101907643D01*
X238927500Y-101952167D01*
X238882976Y-102041214D01*
X238882976Y-102219310D01*
X238927500Y-102308357D01*
X238972024Y-102352881D01*
X239061071Y-102397405D01*
X239105595Y-102397405D01*
X239194643Y-102352881D01*
X239239167Y-102308357D01*
X239283690Y-102219310D01*
X239283690Y-102041214D01*
X239328214Y-101952167D01*
X239372738Y-101907643D01*
X239461786Y-101863119D01*
X239639881Y-101863119D01*
X239728929Y-101907643D01*
X239773452Y-101952167D01*
X239817976Y-102041214D01*
X239817976Y-102219310D01*
X239773452Y-102308357D01*
X239728929Y-102352881D01*
X239639881Y-102397405D01*
X239461786Y-102397405D01*
X239372738Y-102352881D01*
X239328214Y-102308357D01*
X239283690Y-102219310D01*
X239817976Y-103287881D02*
X239817976Y-102753595D01*
X239817976Y-103020738D02*
X238882976Y-103020738D01*
X239016548Y-102931690D01*
X239105595Y-102842643D01*
X239150119Y-102753595D01*
X258867976Y-100972643D02*
X257932976Y-100972643D01*
X257932976Y-101195262D01*
X257977500Y-101328834D01*
X258066548Y-101417881D01*
X258155595Y-101462405D01*
X258333690Y-101506929D01*
X258467262Y-101506929D01*
X258645357Y-101462405D01*
X258734405Y-101417881D01*
X258823452Y-101328834D01*
X258867976Y-101195262D01*
X258867976Y-100972643D01*
X258333690Y-102041214D02*
X258289167Y-101952167D01*
X258244643Y-101907643D01*
X258155595Y-101863119D01*
X258111071Y-101863119D01*
X258022024Y-101907643D01*
X257977500Y-101952167D01*
X257932976Y-102041214D01*
X257932976Y-102219310D01*
X257977500Y-102308357D01*
X258022024Y-102352881D01*
X258111071Y-102397405D01*
X258155595Y-102397405D01*
X258244643Y-102352881D01*
X258289167Y-102308357D01*
X258333690Y-102219310D01*
X258333690Y-102041214D01*
X258378214Y-101952167D01*
X258422738Y-101907643D01*
X258511786Y-101863119D01*
X258689881Y-101863119D01*
X258778929Y-101907643D01*
X258823452Y-101952167D01*
X258867976Y-102041214D01*
X258867976Y-102219310D01*
X258823452Y-102308357D01*
X258778929Y-102352881D01*
X258689881Y-102397405D01*
X258511786Y-102397405D01*
X258422738Y-102352881D01*
X258378214Y-102308357D01*
X258333690Y-102219310D01*
X258022024Y-102753595D02*
X257977500Y-102798119D01*
X257932976Y-102887167D01*
X257932976Y-103109786D01*
X257977500Y-103198833D01*
X258022024Y-103243357D01*
X258111071Y-103287881D01*
X258200119Y-103287881D01*
X258333690Y-103243357D01*
X258867976Y-102709071D01*
X258867976Y-103287881D01*
X277917976Y-100972643D02*
X276982976Y-100972643D01*
X276982976Y-101195262D01*
X277027500Y-101328834D01*
X277116548Y-101417881D01*
X277205595Y-101462405D01*
X277383690Y-101506929D01*
X277517262Y-101506929D01*
X277695357Y-101462405D01*
X277784405Y-101417881D01*
X277873452Y-101328834D01*
X277917976Y-101195262D01*
X277917976Y-100972643D01*
X277383690Y-102041214D02*
X277339167Y-101952167D01*
X277294643Y-101907643D01*
X277205595Y-101863119D01*
X277161071Y-101863119D01*
X277072024Y-101907643D01*
X277027500Y-101952167D01*
X276982976Y-102041214D01*
X276982976Y-102219310D01*
X277027500Y-102308357D01*
X277072024Y-102352881D01*
X277161071Y-102397405D01*
X277205595Y-102397405D01*
X277294643Y-102352881D01*
X277339167Y-102308357D01*
X277383690Y-102219310D01*
X277383690Y-102041214D01*
X277428214Y-101952167D01*
X277472738Y-101907643D01*
X277561786Y-101863119D01*
X277739881Y-101863119D01*
X277828929Y-101907643D01*
X277873452Y-101952167D01*
X277917976Y-102041214D01*
X277917976Y-102219310D01*
X277873452Y-102308357D01*
X277828929Y-102352881D01*
X277739881Y-102397405D01*
X277561786Y-102397405D01*
X277472738Y-102352881D01*
X277428214Y-102308357D01*
X277383690Y-102219310D01*
X276982976Y-102709071D02*
X276982976Y-103287881D01*
X277339167Y-102976214D01*
X277339167Y-103109786D01*
X277383690Y-103198833D01*
X277428214Y-103243357D01*
X277517262Y-103287881D01*
X277739881Y-103287881D01*
X277828929Y-103243357D01*
X277873452Y-103198833D01*
X277917976Y-103109786D01*
X277917976Y-102842643D01*
X277873452Y-102753595D01*
X277828929Y-102709071D01*
X296967976Y-100972643D02*
X296032976Y-100972643D01*
X296032976Y-101195262D01*
X296077500Y-101328834D01*
X296166548Y-101417881D01*
X296255595Y-101462405D01*
X296433690Y-101506929D01*
X296567262Y-101506929D01*
X296745357Y-101462405D01*
X296834405Y-101417881D01*
X296923452Y-101328834D01*
X296967976Y-101195262D01*
X296967976Y-100972643D01*
X296433690Y-102041214D02*
X296389167Y-101952167D01*
X296344643Y-101907643D01*
X296255595Y-101863119D01*
X296211071Y-101863119D01*
X296122024Y-101907643D01*
X296077500Y-101952167D01*
X296032976Y-102041214D01*
X296032976Y-102219310D01*
X296077500Y-102308357D01*
X296122024Y-102352881D01*
X296211071Y-102397405D01*
X296255595Y-102397405D01*
X296344643Y-102352881D01*
X296389167Y-102308357D01*
X296433690Y-102219310D01*
X296433690Y-102041214D01*
X296478214Y-101952167D01*
X296522738Y-101907643D01*
X296611786Y-101863119D01*
X296789881Y-101863119D01*
X296878929Y-101907643D01*
X296923452Y-101952167D01*
X296967976Y-102041214D01*
X296967976Y-102219310D01*
X296923452Y-102308357D01*
X296878929Y-102352881D01*
X296789881Y-102397405D01*
X296611786Y-102397405D01*
X296522738Y-102352881D01*
X296478214Y-102308357D01*
X296433690Y-102219310D01*
X296344643Y-103198833D02*
X296967976Y-103198833D01*
X295988452Y-102976214D02*
X296656310Y-102753595D01*
X296656310Y-103332405D01*
D15*
X101400429Y-88543191D02*
X99876429Y-88543191D01*
X101255286Y-89607572D02*
X101327857Y-89559191D01*
X101400429Y-89414048D01*
X101400429Y-89317286D01*
X101327857Y-89172144D01*
X101182714Y-89075382D01*
X101037571Y-89027001D01*
X100747286Y-88978620D01*
X100529571Y-88978620D01*
X100239286Y-89027001D01*
X100094143Y-89075382D01*
X99949000Y-89172144D01*
X99876429Y-89317286D01*
X99876429Y-89414048D01*
X99949000Y-89559191D01*
X100021571Y-89607572D01*
X101400429Y-90575191D02*
X101400429Y-89994620D01*
X101400429Y-90284906D02*
X99876429Y-90284906D01*
X100094143Y-90188144D01*
X100239286Y-90091382D01*
X100311857Y-89994620D01*
X94742000Y-89002810D02*
X94742000Y-89486619D01*
X95177429Y-88906048D02*
X93653429Y-89244715D01*
X95177429Y-89583381D01*
X93653429Y-89776905D02*
X93653429Y-90357476D01*
X95177429Y-90067191D02*
X93653429Y-90067191D01*
X95177429Y-90696143D02*
X93653429Y-90696143D01*
X94742000Y-91034809D01*
X93653429Y-91373476D01*
X95177429Y-91373476D01*
X94379143Y-91857286D02*
X94379143Y-92195952D01*
X95177429Y-92341095D02*
X95177429Y-91857286D01*
X93653429Y-91857286D01*
X93653429Y-92341095D01*
X93726000Y-93308714D02*
X93653429Y-93211952D01*
X93653429Y-93066809D01*
X93726000Y-92921667D01*
X93871143Y-92824905D01*
X94016286Y-92776524D01*
X94306571Y-92728143D01*
X94524286Y-92728143D01*
X94814571Y-92776524D01*
X94959714Y-92824905D01*
X95104857Y-92921667D01*
X95177429Y-93066809D01*
X95177429Y-93163571D01*
X95104857Y-93308714D01*
X95032286Y-93357095D01*
X94524286Y-93357095D01*
X94524286Y-93163571D01*
X94742000Y-93744143D02*
X94742000Y-94227952D01*
X95177429Y-93647381D02*
X93653429Y-93986048D01*
X95177429Y-94324714D01*
X93653429Y-94566619D02*
X93653429Y-95195571D01*
X94234000Y-94856905D01*
X94234000Y-95002047D01*
X94306571Y-95098809D01*
X94379143Y-95147190D01*
X94524286Y-95195571D01*
X94887143Y-95195571D01*
X95032286Y-95147190D01*
X95104857Y-95098809D01*
X95177429Y-95002047D01*
X95177429Y-94711762D01*
X95104857Y-94615000D01*
X95032286Y-94566619D01*
X93798571Y-95582619D02*
X93726000Y-95631000D01*
X93653429Y-95727762D01*
X93653429Y-95969666D01*
X93726000Y-96066428D01*
X93798571Y-96114809D01*
X93943714Y-96163190D01*
X94088857Y-96163190D01*
X94306571Y-96114809D01*
X95177429Y-95534238D01*
X95177429Y-96163190D01*
X93653429Y-96598619D02*
X94887143Y-96598619D01*
X95032286Y-96647000D01*
X95104857Y-96695381D01*
X95177429Y-96792143D01*
X95177429Y-96985666D01*
X95104857Y-97082428D01*
X95032286Y-97130809D01*
X94887143Y-97179190D01*
X93653429Y-97179190D01*
X94161429Y-98098428D02*
X95177429Y-98098428D01*
X93580857Y-97856524D02*
X94669429Y-97614619D01*
X94669429Y-98243571D01*
D14*
X9814500Y14127321D02*
X9814500Y13038750D01*
X9887072Y12821036D01*
X10032215Y12675893D01*
X10249929Y12603321D01*
X10395072Y12603321D01*
X8290500Y12603321D02*
X9161357Y12603321D01*
X8725929Y12603321D02*
X8725929Y14127321D01*
X8871072Y13909607D01*
X9016214Y13764464D01*
X9161357Y13691893D01*
D12*
X5178666Y-2992381D02*
X5512000Y-2516190D01*
X5750095Y-2992381D02*
X5750095Y-1992381D01*
X5369142Y-1992381D01*
X5273904Y-2040000D01*
X5226285Y-2087619D01*
X5178666Y-2182857D01*
X5178666Y-2325714D01*
X5226285Y-2420952D01*
X5273904Y-2468571D01*
X5369142Y-2516190D01*
X5750095Y-2516190D01*
X4226285Y-2992381D02*
X4797714Y-2992381D01*
X4512000Y-2992381D02*
X4512000Y-1992381D01*
X4607238Y-2135238D01*
X4702476Y-2230476D01*
X4797714Y-2278095D01*
X12426666Y-2992381D02*
X12760000Y-2516190D01*
X12998095Y-2992381D02*
X12998095Y-1992381D01*
X12617142Y-1992381D01*
X12521904Y-2040000D01*
X12474285Y-2087619D01*
X12426666Y-2182857D01*
X12426666Y-2325714D01*
X12474285Y-2420952D01*
X12521904Y-2468571D01*
X12617142Y-2516190D01*
X12998095Y-2516190D01*
X12045714Y-2087619D02*
X11998095Y-2040000D01*
X11902857Y-1992381D01*
X11664761Y-1992381D01*
X11569523Y-2040000D01*
X11521904Y-2087619D01*
X11474285Y-2182857D01*
X11474285Y-2278095D01*
X11521904Y-2420952D01*
X12093333Y-2992381D01*
X11474285Y-2992381D01*
X84621666Y-100841381D02*
X84955000Y-100365190D01*
X85193095Y-100841381D02*
X85193095Y-99841381D01*
X84812142Y-99841381D01*
X84716904Y-99889000D01*
X84669285Y-99936619D01*
X84621666Y-100031857D01*
X84621666Y-100174714D01*
X84669285Y-100269952D01*
X84716904Y-100317571D01*
X84812142Y-100365190D01*
X85193095Y-100365190D01*
X84288333Y-99841381D02*
X83669285Y-99841381D01*
X84002619Y-100222333D01*
X83859761Y-100222333D01*
X83764523Y-100269952D01*
X83716904Y-100317571D01*
X83669285Y-100412810D01*
X83669285Y-100650905D01*
X83716904Y-100746143D01*
X83764523Y-100793762D01*
X83859761Y-100841381D01*
X84145476Y-100841381D01*
X84240714Y-100793762D01*
X84288333Y-100746143D01*
X106719666Y-90436381D02*
X107053000Y-89960190D01*
X107291095Y-90436381D02*
X107291095Y-89436381D01*
X106910142Y-89436381D01*
X106814904Y-89484000D01*
X106767285Y-89531619D01*
X106719666Y-89626857D01*
X106719666Y-89769714D01*
X106767285Y-89864952D01*
X106814904Y-89912571D01*
X106910142Y-89960190D01*
X107291095Y-89960190D01*
X105862523Y-89769714D02*
X105862523Y-90436381D01*
X106100619Y-89388762D02*
X106338714Y-90103048D01*
X105719666Y-90103048D01*
D17*
X117398074Y-89644946D02*
X117269623Y-89687763D01*
X117055537Y-89687763D01*
X116969903Y-89644946D01*
X116927086Y-89602129D01*
X116884269Y-89516494D01*
X116884269Y-89430860D01*
X116927086Y-89345226D01*
X116969903Y-89302409D01*
X117055537Y-89259591D01*
X117226806Y-89216774D01*
X117312440Y-89173957D01*
X117355257Y-89131140D01*
X117398074Y-89045506D01*
X117398074Y-88959871D01*
X117355257Y-88874237D01*
X117312440Y-88831420D01*
X117226806Y-88788603D01*
X117012720Y-88788603D01*
X116884269Y-88831420D01*
X116027926Y-89687763D02*
X116541731Y-89687763D01*
X116284829Y-89687763D02*
X116284829Y-88788603D01*
X116370463Y-88917054D01*
X116456097Y-89002689D01*
X116541731Y-89045506D01*
D12*
X99710143Y-93759428D02*
X100610143Y-94359428D01*
X99710143Y-94359428D02*
X100610143Y-93759428D01*
X100610143Y-95173714D02*
X100610143Y-94659429D01*
X100610143Y-94916571D02*
X99710143Y-94916571D01*
X99838714Y-94830857D01*
X99924429Y-94745143D01*
X99967286Y-94659429D01*
M02*
