G04 #@! TF.FileFunction,Other,User*
%FSLAX46Y46*%
G04 Gerber Fmt 4.6, Leading zero omitted, Abs format (unit mm)*
G04 Created by KiCad (PCBNEW 4.0.1-stable) date 2/13/2016 10:11:50 PM*
%MOMM*%
G01*
G04 APERTURE LIST*
%ADD10C,0.100000*%
%ADD11C,0.050000*%
G04 APERTURE END LIST*
D10*
D11*
X108823000Y-94629000D02*
X108823000Y-90029000D01*
X106823000Y-94629000D02*
X106823000Y-90029000D01*
X108823000Y-94629000D02*
X106823000Y-94629000D01*
X108823000Y-90029000D02*
X106823000Y-90029000D01*
X106823000Y-95109000D02*
X106823000Y-99709000D01*
X108823000Y-95109000D02*
X108823000Y-99709000D01*
X106823000Y-95109000D02*
X108823000Y-95109000D01*
X106823000Y-99709000D02*
X108823000Y-99709000D01*
X97268000Y-87614000D02*
X101868000Y-87614000D01*
X97268000Y-85614000D02*
X101868000Y-85614000D01*
X97268000Y-87614000D02*
X97268000Y-85614000D01*
X101868000Y-87614000D02*
X101868000Y-85614000D01*
X79488000Y-98409000D02*
X84088000Y-98409000D01*
X79488000Y-96409000D02*
X84088000Y-96409000D01*
X79488000Y-98409000D02*
X79488000Y-96409000D01*
X84088000Y-98409000D02*
X84088000Y-96409000D01*
X84088000Y-88789000D02*
X79488000Y-88789000D01*
X84088000Y-90789000D02*
X79488000Y-90789000D01*
X84088000Y-88789000D02*
X84088000Y-90789000D01*
X79488000Y-88789000D02*
X79488000Y-90789000D01*
X100443000Y-99679000D02*
X105043000Y-99679000D01*
X100443000Y-97679000D02*
X105043000Y-97679000D01*
X100443000Y-99679000D02*
X100443000Y-97679000D01*
X105043000Y-99679000D02*
X105043000Y-97679000D01*
X100443000Y-92059000D02*
X105043000Y-92059000D01*
X100443000Y-90059000D02*
X105043000Y-90059000D01*
X100443000Y-92059000D02*
X100443000Y-90059000D01*
X105043000Y-92059000D02*
X105043000Y-90059000D01*
X-6491000Y-10779000D02*
X-1891000Y-10779000D01*
X-6491000Y-8779000D02*
X-1891000Y-8779000D01*
X-6491000Y-10779000D02*
X-6491000Y-8779000D01*
X-1891000Y-10779000D02*
X-1891000Y-8779000D01*
X6112000Y-140000D02*
X6112000Y-4940000D01*
X8112000Y-140000D02*
X8112000Y-4940000D01*
X6112000Y-140000D02*
X8112000Y-140000D01*
X6112000Y-4940000D02*
X8112000Y-4940000D01*
X11160000Y-4940000D02*
X11160000Y-140000D01*
X9160000Y-4940000D02*
X9160000Y-140000D01*
X11160000Y-4940000D02*
X9160000Y-4940000D01*
X11160000Y-140000D02*
X9160000Y-140000D01*
X86855000Y-101489000D02*
X82055000Y-101489000D01*
X86855000Y-103489000D02*
X82055000Y-103489000D01*
X86855000Y-101489000D02*
X86855000Y-103489000D01*
X82055000Y-101489000D02*
X82055000Y-103489000D01*
X104153000Y-88884000D02*
X108953000Y-88884000D01*
X104153000Y-86884000D02*
X108953000Y-86884000D01*
X104153000Y-88884000D02*
X104153000Y-86884000D01*
X108953000Y-88884000D02*
X108953000Y-86884000D01*
M02*
