G04 #@! TF.FileFunction,Legend,Top*
%FSLAX46Y46*%
G04 Gerber Fmt 4.6, Leading zero omitted, Abs format (unit mm)*
G04 Created by KiCad (PCBNEW 4.0.1-stable) date 2/13/2016 10:11:50 PM*
%MOMM*%
G01*
G04 APERTURE LIST*
%ADD10C,0.100000*%
%ADD11C,0.381000*%
%ADD12C,0.304800*%
G04 APERTURE END LIST*
D10*
D11*
X7620000Y-7620000D02*
X-7620000Y-7620000D01*
X-7620000Y-7620000D02*
X-7620000Y7620000D01*
X-7620000Y7620000D02*
X7620000Y7620000D01*
X7620000Y7620000D02*
X7620000Y-7620000D01*
X26670000Y-7620000D02*
X11430000Y-7620000D01*
X11430000Y-7620000D02*
X11430000Y7620000D01*
X11430000Y7620000D02*
X26670000Y7620000D01*
X26670000Y7620000D02*
X26670000Y-7620000D01*
X45720000Y-7620000D02*
X30480000Y-7620000D01*
X30480000Y-7620000D02*
X30480000Y7620000D01*
X30480000Y7620000D02*
X45720000Y7620000D01*
X45720000Y7620000D02*
X45720000Y-7620000D01*
X64770000Y-7620000D02*
X49530000Y-7620000D01*
X49530000Y-7620000D02*
X49530000Y7620000D01*
X49530000Y7620000D02*
X64770000Y7620000D01*
X64770000Y7620000D02*
X64770000Y-7620000D01*
X83820000Y-7620000D02*
X68580000Y-7620000D01*
X68580000Y-7620000D02*
X68580000Y7620000D01*
X68580000Y7620000D02*
X83820000Y7620000D01*
X83820000Y7620000D02*
X83820000Y-7620000D01*
X102870000Y-7620000D02*
X87630000Y-7620000D01*
X87630000Y-7620000D02*
X87630000Y7620000D01*
X87630000Y7620000D02*
X102870000Y7620000D01*
X102870000Y7620000D02*
X102870000Y-7620000D01*
X121920000Y-7620000D02*
X106680000Y-7620000D01*
X106680000Y-7620000D02*
X106680000Y7620000D01*
X106680000Y7620000D02*
X121920000Y7620000D01*
X121920000Y7620000D02*
X121920000Y-7620000D01*
X140970000Y-7620000D02*
X125730000Y-7620000D01*
X125730000Y-7620000D02*
X125730000Y7620000D01*
X125730000Y7620000D02*
X140970000Y7620000D01*
X140970000Y7620000D02*
X140970000Y-7620000D01*
X160020000Y-7620000D02*
X144780000Y-7620000D01*
X144780000Y-7620000D02*
X144780000Y7620000D01*
X144780000Y7620000D02*
X160020000Y7620000D01*
X160020000Y7620000D02*
X160020000Y-7620000D01*
X179070000Y-7620000D02*
X163830000Y-7620000D01*
X163830000Y-7620000D02*
X163830000Y7620000D01*
X163830000Y7620000D02*
X179070000Y7620000D01*
X179070000Y7620000D02*
X179070000Y-7620000D01*
X198120000Y-7620000D02*
X182880000Y-7620000D01*
X182880000Y-7620000D02*
X182880000Y7620000D01*
X182880000Y7620000D02*
X198120000Y7620000D01*
X198120000Y7620000D02*
X198120000Y-7620000D01*
X217170000Y-7620000D02*
X201930000Y-7620000D01*
X201930000Y-7620000D02*
X201930000Y7620000D01*
X201930000Y7620000D02*
X217170000Y7620000D01*
X217170000Y7620000D02*
X217170000Y-7620000D01*
X236220000Y-7620000D02*
X220980000Y-7620000D01*
X220980000Y-7620000D02*
X220980000Y7620000D01*
X220980000Y7620000D02*
X236220000Y7620000D01*
X236220000Y7620000D02*
X236220000Y-7620000D01*
X255270000Y-7620000D02*
X240030000Y-7620000D01*
X240030000Y-7620000D02*
X240030000Y7620000D01*
X240030000Y7620000D02*
X255270000Y7620000D01*
X255270000Y7620000D02*
X255270000Y-7620000D01*
X274320000Y-7620000D02*
X259080000Y-7620000D01*
X259080000Y-7620000D02*
X259080000Y7620000D01*
X259080000Y7620000D02*
X274320000Y7620000D01*
X274320000Y7620000D02*
X274320000Y-7620000D01*
X293370000Y-7620000D02*
X278130000Y-7620000D01*
X278130000Y-7620000D02*
X278130000Y7620000D01*
X278130000Y7620000D02*
X293370000Y7620000D01*
X293370000Y7620000D02*
X293370000Y-7620000D01*
X7620000Y-26670000D02*
X-7620000Y-26670000D01*
X-7620000Y-26670000D02*
X-7620000Y-11430000D01*
X-7620000Y-11430000D02*
X7620000Y-11430000D01*
X7620000Y-11430000D02*
X7620000Y-26670000D01*
X26670000Y-26670000D02*
X11430000Y-26670000D01*
X11430000Y-26670000D02*
X11430000Y-11430000D01*
X11430000Y-11430000D02*
X26670000Y-11430000D01*
X26670000Y-11430000D02*
X26670000Y-26670000D01*
X45720000Y-26670000D02*
X30480000Y-26670000D01*
X30480000Y-26670000D02*
X30480000Y-11430000D01*
X30480000Y-11430000D02*
X45720000Y-11430000D01*
X45720000Y-11430000D02*
X45720000Y-26670000D01*
X64770000Y-26670000D02*
X49530000Y-26670000D01*
X49530000Y-26670000D02*
X49530000Y-11430000D01*
X49530000Y-11430000D02*
X64770000Y-11430000D01*
X64770000Y-11430000D02*
X64770000Y-26670000D01*
X83820000Y-26670000D02*
X68580000Y-26670000D01*
X68580000Y-26670000D02*
X68580000Y-11430000D01*
X68580000Y-11430000D02*
X83820000Y-11430000D01*
X83820000Y-11430000D02*
X83820000Y-26670000D01*
X102870000Y-26670000D02*
X87630000Y-26670000D01*
X87630000Y-26670000D02*
X87630000Y-11430000D01*
X87630000Y-11430000D02*
X102870000Y-11430000D01*
X102870000Y-11430000D02*
X102870000Y-26670000D01*
X121920000Y-26670000D02*
X106680000Y-26670000D01*
X106680000Y-26670000D02*
X106680000Y-11430000D01*
X106680000Y-11430000D02*
X121920000Y-11430000D01*
X121920000Y-11430000D02*
X121920000Y-26670000D01*
X140970000Y-26670000D02*
X125730000Y-26670000D01*
X125730000Y-26670000D02*
X125730000Y-11430000D01*
X125730000Y-11430000D02*
X140970000Y-11430000D01*
X140970000Y-11430000D02*
X140970000Y-26670000D01*
X160020000Y-26670000D02*
X144780000Y-26670000D01*
X144780000Y-26670000D02*
X144780000Y-11430000D01*
X144780000Y-11430000D02*
X160020000Y-11430000D01*
X160020000Y-11430000D02*
X160020000Y-26670000D01*
X179070000Y-26670000D02*
X163830000Y-26670000D01*
X163830000Y-26670000D02*
X163830000Y-11430000D01*
X163830000Y-11430000D02*
X179070000Y-11430000D01*
X179070000Y-11430000D02*
X179070000Y-26670000D01*
X198120000Y-26670000D02*
X182880000Y-26670000D01*
X182880000Y-26670000D02*
X182880000Y-11430000D01*
X182880000Y-11430000D02*
X198120000Y-11430000D01*
X198120000Y-11430000D02*
X198120000Y-26670000D01*
X217170000Y-26670000D02*
X201930000Y-26670000D01*
X201930000Y-26670000D02*
X201930000Y-11430000D01*
X201930000Y-11430000D02*
X217170000Y-11430000D01*
X217170000Y-11430000D02*
X217170000Y-26670000D01*
X236220000Y-26670000D02*
X220980000Y-26670000D01*
X220980000Y-26670000D02*
X220980000Y-11430000D01*
X220980000Y-11430000D02*
X236220000Y-11430000D01*
X236220000Y-11430000D02*
X236220000Y-26670000D01*
X264795000Y-26670000D02*
X249555000Y-26670000D01*
X249555000Y-26670000D02*
X249555000Y-11430000D01*
X249555000Y-11430000D02*
X264795000Y-11430000D01*
X264795000Y-11430000D02*
X264795000Y-26670000D01*
X293370000Y-26670000D02*
X278130000Y-26670000D01*
X278130000Y-26670000D02*
X278130000Y-11430000D01*
X278130000Y-11430000D02*
X293370000Y-11430000D01*
X293370000Y-11430000D02*
X293370000Y-26670000D01*
X12382500Y-45720000D02*
X-2857500Y-45720000D01*
X-2857500Y-45720000D02*
X-2857500Y-30480000D01*
X-2857500Y-30480000D02*
X12382500Y-30480000D01*
X12382500Y-30480000D02*
X12382500Y-45720000D01*
X36195000Y-45720000D02*
X20955000Y-45720000D01*
X20955000Y-45720000D02*
X20955000Y-30480000D01*
X20955000Y-30480000D02*
X36195000Y-30480000D01*
X36195000Y-30480000D02*
X36195000Y-45720000D01*
X55245000Y-45720000D02*
X40005000Y-45720000D01*
X40005000Y-45720000D02*
X40005000Y-30480000D01*
X40005000Y-30480000D02*
X55245000Y-30480000D01*
X55245000Y-30480000D02*
X55245000Y-45720000D01*
X74295000Y-45720000D02*
X59055000Y-45720000D01*
X59055000Y-45720000D02*
X59055000Y-30480000D01*
X59055000Y-30480000D02*
X74295000Y-30480000D01*
X74295000Y-30480000D02*
X74295000Y-45720000D01*
X93345000Y-45720000D02*
X78105000Y-45720000D01*
X78105000Y-45720000D02*
X78105000Y-30480000D01*
X78105000Y-30480000D02*
X93345000Y-30480000D01*
X93345000Y-30480000D02*
X93345000Y-45720000D01*
X112395000Y-45720000D02*
X97155000Y-45720000D01*
X97155000Y-45720000D02*
X97155000Y-30480000D01*
X97155000Y-30480000D02*
X112395000Y-30480000D01*
X112395000Y-30480000D02*
X112395000Y-45720000D01*
X131445000Y-45720000D02*
X116205000Y-45720000D01*
X116205000Y-45720000D02*
X116205000Y-30480000D01*
X116205000Y-30480000D02*
X131445000Y-30480000D01*
X131445000Y-30480000D02*
X131445000Y-45720000D01*
X150495000Y-45720000D02*
X135255000Y-45720000D01*
X135255000Y-45720000D02*
X135255000Y-30480000D01*
X135255000Y-30480000D02*
X150495000Y-30480000D01*
X150495000Y-30480000D02*
X150495000Y-45720000D01*
X169545000Y-45720000D02*
X154305000Y-45720000D01*
X154305000Y-45720000D02*
X154305000Y-30480000D01*
X154305000Y-30480000D02*
X169545000Y-30480000D01*
X169545000Y-30480000D02*
X169545000Y-45720000D01*
X188595000Y-45720000D02*
X173355000Y-45720000D01*
X173355000Y-45720000D02*
X173355000Y-30480000D01*
X173355000Y-30480000D02*
X188595000Y-30480000D01*
X188595000Y-30480000D02*
X188595000Y-45720000D01*
X207645000Y-45720000D02*
X192405000Y-45720000D01*
X192405000Y-45720000D02*
X192405000Y-30480000D01*
X192405000Y-30480000D02*
X207645000Y-30480000D01*
X207645000Y-30480000D02*
X207645000Y-45720000D01*
X226695000Y-45720000D02*
X211455000Y-45720000D01*
X211455000Y-45720000D02*
X211455000Y-30480000D01*
X211455000Y-30480000D02*
X226695000Y-30480000D01*
X226695000Y-30480000D02*
X226695000Y-45720000D01*
X245745000Y-45720000D02*
X230505000Y-45720000D01*
X230505000Y-45720000D02*
X230505000Y-30480000D01*
X230505000Y-30480000D02*
X245745000Y-30480000D01*
X245745000Y-30480000D02*
X245745000Y-45720000D01*
X269557500Y-45720000D02*
X254317500Y-45720000D01*
X254317500Y-45720000D02*
X254317500Y-30480000D01*
X254317500Y-30480000D02*
X269557500Y-30480000D01*
X269557500Y-30480000D02*
X269557500Y-45720000D01*
X293370000Y-45720000D02*
X278130000Y-45720000D01*
X278130000Y-45720000D02*
X278130000Y-30480000D01*
X278130000Y-30480000D02*
X293370000Y-30480000D01*
X293370000Y-30480000D02*
X293370000Y-45720000D01*
X14765020Y-64770000D02*
X-474980Y-64770000D01*
X-474980Y-64770000D02*
X-474980Y-49530000D01*
X-474980Y-49530000D02*
X14765020Y-49530000D01*
X14765020Y-49530000D02*
X14765020Y-64770000D01*
X40957500Y-64770000D02*
X25717500Y-64770000D01*
X25717500Y-64770000D02*
X25717500Y-49530000D01*
X25717500Y-49530000D02*
X40957500Y-49530000D01*
X40957500Y-49530000D02*
X40957500Y-64770000D01*
X60007500Y-64770000D02*
X44767500Y-64770000D01*
X44767500Y-64770000D02*
X44767500Y-49530000D01*
X44767500Y-49530000D02*
X60007500Y-49530000D01*
X60007500Y-49530000D02*
X60007500Y-64770000D01*
X79057500Y-64770000D02*
X63817500Y-64770000D01*
X63817500Y-64770000D02*
X63817500Y-49530000D01*
X63817500Y-49530000D02*
X79057500Y-49530000D01*
X79057500Y-49530000D02*
X79057500Y-64770000D01*
X98107500Y-64770000D02*
X82867500Y-64770000D01*
X82867500Y-64770000D02*
X82867500Y-49530000D01*
X82867500Y-49530000D02*
X98107500Y-49530000D01*
X98107500Y-49530000D02*
X98107500Y-64770000D01*
X117157500Y-64770000D02*
X101917500Y-64770000D01*
X101917500Y-64770000D02*
X101917500Y-49530000D01*
X101917500Y-49530000D02*
X117157500Y-49530000D01*
X117157500Y-49530000D02*
X117157500Y-64770000D01*
X136207500Y-64770000D02*
X120967500Y-64770000D01*
X120967500Y-64770000D02*
X120967500Y-49530000D01*
X120967500Y-49530000D02*
X136207500Y-49530000D01*
X136207500Y-49530000D02*
X136207500Y-64770000D01*
X155257500Y-64770000D02*
X140017500Y-64770000D01*
X140017500Y-64770000D02*
X140017500Y-49530000D01*
X140017500Y-49530000D02*
X155257500Y-49530000D01*
X155257500Y-49530000D02*
X155257500Y-64770000D01*
X174307500Y-64770000D02*
X159067500Y-64770000D01*
X159067500Y-64770000D02*
X159067500Y-49530000D01*
X159067500Y-49530000D02*
X174307500Y-49530000D01*
X174307500Y-49530000D02*
X174307500Y-64770000D01*
X193357500Y-64770000D02*
X178117500Y-64770000D01*
X178117500Y-64770000D02*
X178117500Y-49530000D01*
X178117500Y-49530000D02*
X193357500Y-49530000D01*
X193357500Y-49530000D02*
X193357500Y-64770000D01*
X212407500Y-64770000D02*
X197167500Y-64770000D01*
X197167500Y-64770000D02*
X197167500Y-49530000D01*
X197167500Y-49530000D02*
X212407500Y-49530000D01*
X212407500Y-49530000D02*
X212407500Y-64770000D01*
X231457500Y-64770000D02*
X216217500Y-64770000D01*
X216217500Y-64770000D02*
X216217500Y-49530000D01*
X216217500Y-49530000D02*
X231457500Y-49530000D01*
X231457500Y-49530000D02*
X231457500Y-64770000D01*
X262415020Y-64770000D02*
X247175020Y-64770000D01*
X247175020Y-64770000D02*
X247175020Y-49530000D01*
X247175020Y-49530000D02*
X262415020Y-49530000D01*
X262415020Y-49530000D02*
X262415020Y-64770000D01*
X293370000Y-64770000D02*
X278130000Y-64770000D01*
X278130000Y-64770000D02*
X278130000Y-49530000D01*
X278130000Y-49530000D02*
X293370000Y-49530000D01*
X293370000Y-49530000D02*
X293370000Y-64770000D01*
X19526250Y-83820000D02*
X4286250Y-83820000D01*
X4286250Y-83820000D02*
X4286250Y-68580000D01*
X4286250Y-68580000D02*
X19526250Y-68580000D01*
X19526250Y-68580000D02*
X19526250Y-83820000D01*
X50482500Y-83820000D02*
X35242500Y-83820000D01*
X35242500Y-83820000D02*
X35242500Y-68580000D01*
X35242500Y-68580000D02*
X50482500Y-68580000D01*
X50482500Y-68580000D02*
X50482500Y-83820000D01*
X69532500Y-83820000D02*
X54292500Y-83820000D01*
X54292500Y-83820000D02*
X54292500Y-68580000D01*
X54292500Y-68580000D02*
X69532500Y-68580000D01*
X69532500Y-68580000D02*
X69532500Y-83820000D01*
X88582500Y-83820000D02*
X73342500Y-83820000D01*
X73342500Y-83820000D02*
X73342500Y-68580000D01*
X73342500Y-68580000D02*
X88582500Y-68580000D01*
X88582500Y-68580000D02*
X88582500Y-83820000D01*
X107632500Y-83820000D02*
X92392500Y-83820000D01*
X92392500Y-83820000D02*
X92392500Y-68580000D01*
X92392500Y-68580000D02*
X107632500Y-68580000D01*
X107632500Y-68580000D02*
X107632500Y-83820000D01*
X126682500Y-83820000D02*
X111442500Y-83820000D01*
X111442500Y-83820000D02*
X111442500Y-68580000D01*
X111442500Y-68580000D02*
X126682500Y-68580000D01*
X126682500Y-68580000D02*
X126682500Y-83820000D01*
X145732500Y-83820000D02*
X130492500Y-83820000D01*
X130492500Y-83820000D02*
X130492500Y-68580000D01*
X130492500Y-68580000D02*
X145732500Y-68580000D01*
X145732500Y-68580000D02*
X145732500Y-83820000D01*
X164782500Y-83820000D02*
X149542500Y-83820000D01*
X149542500Y-83820000D02*
X149542500Y-68580000D01*
X149542500Y-68580000D02*
X164782500Y-68580000D01*
X164782500Y-68580000D02*
X164782500Y-83820000D01*
X183832500Y-83820000D02*
X168592500Y-83820000D01*
X168592500Y-83820000D02*
X168592500Y-68580000D01*
X168592500Y-68580000D02*
X183832500Y-68580000D01*
X183832500Y-68580000D02*
X183832500Y-83820000D01*
X202882500Y-83820000D02*
X187642500Y-83820000D01*
X187642500Y-83820000D02*
X187642500Y-68580000D01*
X187642500Y-68580000D02*
X202882500Y-68580000D01*
X202882500Y-68580000D02*
X202882500Y-83820000D01*
X221932500Y-83820000D02*
X206692500Y-83820000D01*
X206692500Y-83820000D02*
X206692500Y-68580000D01*
X206692500Y-68580000D02*
X221932500Y-68580000D01*
X221932500Y-68580000D02*
X221932500Y-83820000D01*
X248126250Y-83820000D02*
X232886250Y-83820000D01*
X232886250Y-83820000D02*
X232886250Y-68580000D01*
X232886250Y-68580000D02*
X248126250Y-68580000D01*
X248126250Y-68580000D02*
X248126250Y-83820000D01*
X274320000Y-83820000D02*
X259080000Y-83820000D01*
X259080000Y-83820000D02*
X259080000Y-68580000D01*
X259080000Y-68580000D02*
X274320000Y-68580000D01*
X274320000Y-68580000D02*
X274320000Y-83820000D01*
X293370000Y-83820000D02*
X278130000Y-83820000D01*
X278130000Y-83820000D02*
X278130000Y-68580000D01*
X278130000Y-68580000D02*
X293370000Y-68580000D01*
X293370000Y-68580000D02*
X293370000Y-83820000D01*
X10002520Y-102870000D02*
X-5237480Y-102870000D01*
X-5237480Y-102870000D02*
X-5237480Y-87630000D01*
X-5237480Y-87630000D02*
X10002520Y-87630000D01*
X10002520Y-87630000D02*
X10002520Y-102870000D01*
X33815020Y-102870000D02*
X18575020Y-102870000D01*
X18575020Y-102870000D02*
X18575020Y-87630000D01*
X18575020Y-87630000D02*
X33815020Y-87630000D01*
X33815020Y-87630000D02*
X33815020Y-102870000D01*
X57627520Y-102870000D02*
X42387520Y-102870000D01*
X42387520Y-102870000D02*
X42387520Y-87630000D01*
X42387520Y-87630000D02*
X57627520Y-87630000D01*
X57627520Y-87630000D02*
X57627520Y-102870000D01*
X129065020Y-102870000D02*
X113825020Y-102870000D01*
X113825020Y-102870000D02*
X113825020Y-87630000D01*
X113825020Y-87630000D02*
X129065020Y-87630000D01*
X129065020Y-87630000D02*
X129065020Y-102870000D01*
X198120000Y-102870000D02*
X182880000Y-102870000D01*
X182880000Y-102870000D02*
X182880000Y-87630000D01*
X182880000Y-87630000D02*
X198120000Y-87630000D01*
X198120000Y-87630000D02*
X198120000Y-102870000D01*
X217170000Y-102870000D02*
X201930000Y-102870000D01*
X201930000Y-102870000D02*
X201930000Y-87630000D01*
X201930000Y-87630000D02*
X217170000Y-87630000D01*
X217170000Y-87630000D02*
X217170000Y-102870000D01*
X236220000Y-102870000D02*
X220980000Y-102870000D01*
X220980000Y-102870000D02*
X220980000Y-87630000D01*
X220980000Y-87630000D02*
X236220000Y-87630000D01*
X236220000Y-87630000D02*
X236220000Y-102870000D01*
X255270000Y-102870000D02*
X240030000Y-102870000D01*
X240030000Y-102870000D02*
X240030000Y-87630000D01*
X240030000Y-87630000D02*
X255270000Y-87630000D01*
X255270000Y-87630000D02*
X255270000Y-102870000D01*
X274320000Y-102870000D02*
X259080000Y-102870000D01*
X259080000Y-102870000D02*
X259080000Y-87630000D01*
X259080000Y-87630000D02*
X274320000Y-87630000D01*
X274320000Y-87630000D02*
X274320000Y-102870000D01*
X293370000Y-102870000D02*
X278130000Y-102870000D01*
X278130000Y-102870000D02*
X278130000Y-87630000D01*
X278130000Y-87630000D02*
X293370000Y-87630000D01*
X293370000Y-87630000D02*
X293370000Y-102870000D01*
X248699020Y-29718000D02*
X248699020Y-11049000D01*
X248699020Y-11049000D02*
X241841020Y-11049000D01*
X241841020Y-11049000D02*
X241841020Y-29718000D01*
X241841020Y-29718000D02*
X248699020Y-29718000D01*
X272511520Y-29718000D02*
X272511520Y-11049000D01*
X272511520Y-11049000D02*
X265653520Y-11049000D01*
X265653520Y-11049000D02*
X265653520Y-29718000D01*
X265653520Y-29718000D02*
X272511520Y-29718000D01*
X246317770Y-67818000D02*
X246317770Y-49149000D01*
X246317770Y-49149000D02*
X239459770Y-49149000D01*
X239459770Y-49149000D02*
X239459770Y-67818000D01*
X239459770Y-67818000D02*
X246317770Y-67818000D01*
X270130270Y-67818000D02*
X270130270Y-49149000D01*
X270130270Y-49149000D02*
X263272270Y-49149000D01*
X263272270Y-49149000D02*
X263272270Y-67818000D01*
X263272270Y-67818000D02*
X270130270Y-67818000D01*
X3429000Y-86868000D02*
X3429000Y-68199000D01*
X3429000Y-68199000D02*
X-3429000Y-68199000D01*
X-3429000Y-68199000D02*
X-3429000Y-86868000D01*
X-3429000Y-86868000D02*
X3429000Y-86868000D01*
X27241500Y-86868000D02*
X27241500Y-68199000D01*
X27241500Y-68199000D02*
X20383500Y-68199000D01*
X20383500Y-68199000D02*
X20383500Y-86868000D01*
X20383500Y-86868000D02*
X27241500Y-86868000D01*
X67978020Y-84614258D02*
X67978020Y-103283258D01*
X67978020Y-103283258D02*
X74836020Y-103283258D01*
X74836020Y-103283258D02*
X74836020Y-84614258D01*
X74836020Y-84614258D02*
X67978020Y-84614258D01*
X168054020Y-84614258D02*
X168054020Y-103283258D01*
X168054020Y-103283258D02*
X174912020Y-103283258D01*
X174912020Y-103283258D02*
X174912020Y-84614258D01*
X174912020Y-84614258D02*
X168054020Y-84614258D01*
D12*
X-1814286Y-8146143D02*
X-1306286Y-8146143D01*
X-1088572Y-8944429D02*
X-1814286Y-8944429D01*
X-1814286Y-7420429D01*
X-1088572Y-7420429D01*
X-508000Y-8871857D02*
X-290286Y-8944429D01*
X72571Y-8944429D01*
X217714Y-8871857D01*
X290285Y-8799286D01*
X362857Y-8654143D01*
X362857Y-8509000D01*
X290285Y-8363857D01*
X217714Y-8291286D01*
X72571Y-8218714D01*
X-217715Y-8146143D01*
X-362857Y-8073571D01*
X-435429Y-8001000D01*
X-508000Y-7855857D01*
X-508000Y-7710714D01*
X-435429Y-7565571D01*
X-362857Y-7493000D01*
X-217715Y-7420429D01*
X145143Y-7420429D01*
X362857Y-7493000D01*
X1886857Y-8799286D02*
X1814286Y-8871857D01*
X1596572Y-8944429D01*
X1451429Y-8944429D01*
X1233714Y-8871857D01*
X1088572Y-8726714D01*
X1016000Y-8581571D01*
X943429Y-8291286D01*
X943429Y-8073571D01*
X1016000Y-7783286D01*
X1088572Y-7638143D01*
X1233714Y-7493000D01*
X1451429Y-7420429D01*
X1596572Y-7420429D01*
X1814286Y-7493000D01*
X1886857Y-7565571D01*
X18542000Y-8146143D02*
X18034000Y-8146143D01*
X18034000Y-8944429D02*
X18034000Y-7420429D01*
X18759714Y-7420429D01*
X20138572Y-8944429D02*
X19267715Y-8944429D01*
X19703143Y-8944429D02*
X19703143Y-7420429D01*
X19558000Y-7638143D01*
X19412858Y-7783286D01*
X19267715Y-7855857D01*
X37592000Y-8146143D02*
X37084000Y-8146143D01*
X37084000Y-8944429D02*
X37084000Y-7420429D01*
X37809714Y-7420429D01*
X38317715Y-7565571D02*
X38390286Y-7493000D01*
X38535429Y-7420429D01*
X38898286Y-7420429D01*
X39043429Y-7493000D01*
X39116000Y-7565571D01*
X39188572Y-7710714D01*
X39188572Y-7855857D01*
X39116000Y-8073571D01*
X38245143Y-8944429D01*
X39188572Y-8944429D01*
X56642000Y-8146143D02*
X56134000Y-8146143D01*
X56134000Y-8944429D02*
X56134000Y-7420429D01*
X56859714Y-7420429D01*
X57295143Y-7420429D02*
X58238572Y-7420429D01*
X57730572Y-8001000D01*
X57948286Y-8001000D01*
X58093429Y-8073571D01*
X58166000Y-8146143D01*
X58238572Y-8291286D01*
X58238572Y-8654143D01*
X58166000Y-8799286D01*
X58093429Y-8871857D01*
X57948286Y-8944429D01*
X57512858Y-8944429D01*
X57367715Y-8871857D01*
X57295143Y-8799286D01*
X75692000Y-8146143D02*
X75184000Y-8146143D01*
X75184000Y-8944429D02*
X75184000Y-7420429D01*
X75909714Y-7420429D01*
X77143429Y-7928429D02*
X77143429Y-8944429D01*
X76780572Y-7347857D02*
X76417715Y-8436429D01*
X77361143Y-8436429D01*
X94742000Y-8146143D02*
X94234000Y-8146143D01*
X94234000Y-8944429D02*
X94234000Y-7420429D01*
X94959714Y-7420429D01*
X96266000Y-7420429D02*
X95540286Y-7420429D01*
X95467715Y-8146143D01*
X95540286Y-8073571D01*
X95685429Y-8001000D01*
X96048286Y-8001000D01*
X96193429Y-8073571D01*
X96266000Y-8146143D01*
X96338572Y-8291286D01*
X96338572Y-8654143D01*
X96266000Y-8799286D01*
X96193429Y-8871857D01*
X96048286Y-8944429D01*
X95685429Y-8944429D01*
X95540286Y-8871857D01*
X95467715Y-8799286D01*
X113792000Y-8146143D02*
X113284000Y-8146143D01*
X113284000Y-8944429D02*
X113284000Y-7420429D01*
X114009714Y-7420429D01*
X115243429Y-7420429D02*
X114953143Y-7420429D01*
X114808000Y-7493000D01*
X114735429Y-7565571D01*
X114590286Y-7783286D01*
X114517715Y-8073571D01*
X114517715Y-8654143D01*
X114590286Y-8799286D01*
X114662858Y-8871857D01*
X114808000Y-8944429D01*
X115098286Y-8944429D01*
X115243429Y-8871857D01*
X115316000Y-8799286D01*
X115388572Y-8654143D01*
X115388572Y-8291286D01*
X115316000Y-8146143D01*
X115243429Y-8073571D01*
X115098286Y-8001000D01*
X114808000Y-8001000D01*
X114662858Y-8073571D01*
X114590286Y-8146143D01*
X114517715Y-8291286D01*
X132842000Y-8146143D02*
X132334000Y-8146143D01*
X132334000Y-8944429D02*
X132334000Y-7420429D01*
X133059714Y-7420429D01*
X133495143Y-7420429D02*
X134511143Y-7420429D01*
X133858000Y-8944429D01*
X151892000Y-8146143D02*
X151384000Y-8146143D01*
X151384000Y-8944429D02*
X151384000Y-7420429D01*
X152109714Y-7420429D01*
X152908000Y-8073571D02*
X152762858Y-8001000D01*
X152690286Y-7928429D01*
X152617715Y-7783286D01*
X152617715Y-7710714D01*
X152690286Y-7565571D01*
X152762858Y-7493000D01*
X152908000Y-7420429D01*
X153198286Y-7420429D01*
X153343429Y-7493000D01*
X153416000Y-7565571D01*
X153488572Y-7710714D01*
X153488572Y-7783286D01*
X153416000Y-7928429D01*
X153343429Y-8001000D01*
X153198286Y-8073571D01*
X152908000Y-8073571D01*
X152762858Y-8146143D01*
X152690286Y-8218714D01*
X152617715Y-8363857D01*
X152617715Y-8654143D01*
X152690286Y-8799286D01*
X152762858Y-8871857D01*
X152908000Y-8944429D01*
X153198286Y-8944429D01*
X153343429Y-8871857D01*
X153416000Y-8799286D01*
X153488572Y-8654143D01*
X153488572Y-8363857D01*
X153416000Y-8218714D01*
X153343429Y-8146143D01*
X153198286Y-8073571D01*
X170942000Y-8146143D02*
X170434000Y-8146143D01*
X170434000Y-8944429D02*
X170434000Y-7420429D01*
X171159714Y-7420429D01*
X171812858Y-8944429D02*
X172103143Y-8944429D01*
X172248286Y-8871857D01*
X172320858Y-8799286D01*
X172466000Y-8581571D01*
X172538572Y-8291286D01*
X172538572Y-7710714D01*
X172466000Y-7565571D01*
X172393429Y-7493000D01*
X172248286Y-7420429D01*
X171958000Y-7420429D01*
X171812858Y-7493000D01*
X171740286Y-7565571D01*
X171667715Y-7710714D01*
X171667715Y-8073571D01*
X171740286Y-8218714D01*
X171812858Y-8291286D01*
X171958000Y-8363857D01*
X172248286Y-8363857D01*
X172393429Y-8291286D01*
X172466000Y-8218714D01*
X172538572Y-8073571D01*
X189266285Y-8146143D02*
X188758285Y-8146143D01*
X188758285Y-8944429D02*
X188758285Y-7420429D01*
X189483999Y-7420429D01*
X190862857Y-8944429D02*
X189992000Y-8944429D01*
X190427428Y-8944429D02*
X190427428Y-7420429D01*
X190282285Y-7638143D01*
X190137143Y-7783286D01*
X189992000Y-7855857D01*
X191806286Y-7420429D02*
X191951429Y-7420429D01*
X192096572Y-7493000D01*
X192169143Y-7565571D01*
X192241714Y-7710714D01*
X192314286Y-8001000D01*
X192314286Y-8363857D01*
X192241714Y-8654143D01*
X192169143Y-8799286D01*
X192096572Y-8871857D01*
X191951429Y-8944429D01*
X191806286Y-8944429D01*
X191661143Y-8871857D01*
X191588572Y-8799286D01*
X191516000Y-8654143D01*
X191443429Y-8363857D01*
X191443429Y-8001000D01*
X191516000Y-7710714D01*
X191588572Y-7565571D01*
X191661143Y-7493000D01*
X191806286Y-7420429D01*
X208316285Y-8146143D02*
X207808285Y-8146143D01*
X207808285Y-8944429D02*
X207808285Y-7420429D01*
X208533999Y-7420429D01*
X209912857Y-8944429D02*
X209042000Y-8944429D01*
X209477428Y-8944429D02*
X209477428Y-7420429D01*
X209332285Y-7638143D01*
X209187143Y-7783286D01*
X209042000Y-7855857D01*
X211364286Y-8944429D02*
X210493429Y-8944429D01*
X210928857Y-8944429D02*
X210928857Y-7420429D01*
X210783714Y-7638143D01*
X210638572Y-7783286D01*
X210493429Y-7855857D01*
X227366285Y-8146143D02*
X226858285Y-8146143D01*
X226858285Y-8944429D02*
X226858285Y-7420429D01*
X227583999Y-7420429D01*
X228962857Y-8944429D02*
X228092000Y-8944429D01*
X228527428Y-8944429D02*
X228527428Y-7420429D01*
X228382285Y-7638143D01*
X228237143Y-7783286D01*
X228092000Y-7855857D01*
X229543429Y-7565571D02*
X229616000Y-7493000D01*
X229761143Y-7420429D01*
X230124000Y-7420429D01*
X230269143Y-7493000D01*
X230341714Y-7565571D01*
X230414286Y-7710714D01*
X230414286Y-7855857D01*
X230341714Y-8073571D01*
X229470857Y-8944429D01*
X230414286Y-8944429D01*
X244964857Y-8944429D02*
X244964857Y-7420429D01*
X245545429Y-7420429D01*
X245690571Y-7493000D01*
X245763143Y-7565571D01*
X245835714Y-7710714D01*
X245835714Y-7928429D01*
X245763143Y-8073571D01*
X245690571Y-8146143D01*
X245545429Y-8218714D01*
X244964857Y-8218714D01*
X246488857Y-8944429D02*
X246488857Y-7928429D01*
X246488857Y-8218714D02*
X246561429Y-8073571D01*
X246634000Y-8001000D01*
X246779143Y-7928429D01*
X246924286Y-7928429D01*
X247214572Y-7928429D02*
X247795143Y-7928429D01*
X247432286Y-7420429D02*
X247432286Y-8726714D01*
X247504858Y-8871857D01*
X247650000Y-8944429D01*
X247795143Y-8944429D01*
X248230572Y-8871857D02*
X248448286Y-8944429D01*
X248811143Y-8944429D01*
X248956286Y-8871857D01*
X249028857Y-8799286D01*
X249101429Y-8654143D01*
X249101429Y-8509000D01*
X249028857Y-8363857D01*
X248956286Y-8291286D01*
X248811143Y-8218714D01*
X248520857Y-8146143D01*
X248375715Y-8073571D01*
X248303143Y-8001000D01*
X248230572Y-7855857D01*
X248230572Y-7710714D01*
X248303143Y-7565571D01*
X248375715Y-7493000D01*
X248520857Y-7420429D01*
X248883715Y-7420429D01*
X249101429Y-7493000D01*
X250407715Y-8871857D02*
X250262572Y-8944429D01*
X249972286Y-8944429D01*
X249827144Y-8871857D01*
X249754572Y-8799286D01*
X249682001Y-8654143D01*
X249682001Y-8218714D01*
X249754572Y-8073571D01*
X249827144Y-8001000D01*
X249972286Y-7928429D01*
X250262572Y-7928429D01*
X250407715Y-8001000D01*
X263652000Y-8944429D02*
X263652000Y-7420429D01*
X264232572Y-7420429D01*
X264377714Y-7493000D01*
X264450286Y-7565571D01*
X264522857Y-7710714D01*
X264522857Y-7928429D01*
X264450286Y-8073571D01*
X264377714Y-8146143D01*
X264232572Y-8218714D01*
X263652000Y-8218714D01*
X265829143Y-8944429D02*
X265829143Y-8146143D01*
X265756572Y-8001000D01*
X265611429Y-7928429D01*
X265321143Y-7928429D01*
X265176000Y-8001000D01*
X265829143Y-8871857D02*
X265684000Y-8944429D01*
X265321143Y-8944429D01*
X265176000Y-8871857D01*
X265103429Y-8726714D01*
X265103429Y-8581571D01*
X265176000Y-8436429D01*
X265321143Y-8363857D01*
X265684000Y-8363857D01*
X265829143Y-8291286D01*
X267208000Y-7928429D02*
X267208000Y-8944429D01*
X266554857Y-7928429D02*
X266554857Y-8726714D01*
X266627429Y-8871857D01*
X266772571Y-8944429D01*
X266990286Y-8944429D01*
X267135429Y-8871857D01*
X267208000Y-8799286D01*
X267861143Y-8871857D02*
X268006286Y-8944429D01*
X268296571Y-8944429D01*
X268441714Y-8871857D01*
X268514286Y-8726714D01*
X268514286Y-8654143D01*
X268441714Y-8509000D01*
X268296571Y-8436429D01*
X268078857Y-8436429D01*
X267933714Y-8363857D01*
X267861143Y-8218714D01*
X267861143Y-8146143D01*
X267933714Y-8001000D01*
X268078857Y-7928429D01*
X268296571Y-7928429D01*
X268441714Y-8001000D01*
X269748000Y-8871857D02*
X269602857Y-8944429D01*
X269312571Y-8944429D01*
X269167428Y-8871857D01*
X269094857Y-8726714D01*
X269094857Y-8146143D01*
X269167428Y-8001000D01*
X269312571Y-7928429D01*
X269602857Y-7928429D01*
X269748000Y-8001000D01*
X269820571Y-8146143D01*
X269820571Y-8291286D01*
X269094857Y-8436429D01*
X282556857Y-8944429D02*
X282556857Y-7420429D01*
X282919714Y-7420429D01*
X283137429Y-7493000D01*
X283282571Y-7638143D01*
X283355143Y-7783286D01*
X283427714Y-8073571D01*
X283427714Y-8291286D01*
X283355143Y-8581571D01*
X283282571Y-8726714D01*
X283137429Y-8871857D01*
X282919714Y-8944429D01*
X282556857Y-8944429D01*
X284661429Y-8871857D02*
X284516286Y-8944429D01*
X284226000Y-8944429D01*
X284080857Y-8871857D01*
X284008286Y-8726714D01*
X284008286Y-8146143D01*
X284080857Y-8001000D01*
X284226000Y-7928429D01*
X284516286Y-7928429D01*
X284661429Y-8001000D01*
X284734000Y-8146143D01*
X284734000Y-8291286D01*
X284008286Y-8436429D01*
X285604857Y-8944429D02*
X285459715Y-8871857D01*
X285387143Y-8726714D01*
X285387143Y-7420429D01*
X286766001Y-8871857D02*
X286620858Y-8944429D01*
X286330572Y-8944429D01*
X286185429Y-8871857D01*
X286112858Y-8726714D01*
X286112858Y-8146143D01*
X286185429Y-8001000D01*
X286330572Y-7928429D01*
X286620858Y-7928429D01*
X286766001Y-8001000D01*
X286838572Y-8146143D01*
X286838572Y-8291286D01*
X286112858Y-8436429D01*
X287274001Y-7928429D02*
X287854572Y-7928429D01*
X287491715Y-7420429D02*
X287491715Y-8726714D01*
X287564287Y-8871857D01*
X287709429Y-8944429D01*
X287854572Y-8944429D01*
X288943144Y-8871857D02*
X288798001Y-8944429D01*
X288507715Y-8944429D01*
X288362572Y-8871857D01*
X288290001Y-8726714D01*
X288290001Y-8146143D01*
X288362572Y-8001000D01*
X288507715Y-7928429D01*
X288798001Y-7928429D01*
X288943144Y-8001000D01*
X289015715Y-8146143D01*
X289015715Y-8291286D01*
X288290001Y-8436429D01*
X-1995714Y-26543000D02*
X-2140857Y-26470429D01*
X-2358571Y-26470429D01*
X-2576286Y-26543000D01*
X-2721428Y-26688143D01*
X-2794000Y-26833286D01*
X-2866571Y-27123571D01*
X-2866571Y-27341286D01*
X-2794000Y-27631571D01*
X-2721428Y-27776714D01*
X-2576286Y-27921857D01*
X-2358571Y-27994429D01*
X-2213428Y-27994429D01*
X-1995714Y-27921857D01*
X-1923143Y-27849286D01*
X-1923143Y-27341286D01*
X-2213428Y-27341286D01*
X-1270000Y-27994429D02*
X-1270000Y-26978429D01*
X-1270000Y-27268714D02*
X-1197428Y-27123571D01*
X-1124857Y-27051000D01*
X-979714Y-26978429D01*
X-834571Y-26978429D01*
X326572Y-27994429D02*
X326572Y-27196143D01*
X254001Y-27051000D01*
X108858Y-26978429D01*
X-181428Y-26978429D01*
X-326571Y-27051000D01*
X326572Y-27921857D02*
X181429Y-27994429D01*
X-181428Y-27994429D01*
X-326571Y-27921857D01*
X-399142Y-27776714D01*
X-399142Y-27631571D01*
X-326571Y-27486429D01*
X-181428Y-27413857D01*
X181429Y-27413857D01*
X326572Y-27341286D01*
X907143Y-26978429D02*
X1270000Y-27994429D01*
X1632858Y-26978429D01*
X2794001Y-27921857D02*
X2648858Y-27994429D01*
X2358572Y-27994429D01*
X2213429Y-27921857D01*
X2140858Y-27776714D01*
X2140858Y-27196143D01*
X2213429Y-27051000D01*
X2358572Y-26978429D01*
X2648858Y-26978429D01*
X2794001Y-27051000D01*
X2866572Y-27196143D01*
X2866572Y-27341286D01*
X2140858Y-27486429D01*
X19485429Y-27994429D02*
X18614572Y-27994429D01*
X19050000Y-27994429D02*
X19050000Y-26470429D01*
X18904857Y-26688143D01*
X18759715Y-26833286D01*
X18614572Y-26905857D01*
X37664572Y-26615571D02*
X37737143Y-26543000D01*
X37882286Y-26470429D01*
X38245143Y-26470429D01*
X38390286Y-26543000D01*
X38462857Y-26615571D01*
X38535429Y-26760714D01*
X38535429Y-26905857D01*
X38462857Y-27123571D01*
X37592000Y-27994429D01*
X38535429Y-27994429D01*
X56642000Y-26470429D02*
X57585429Y-26470429D01*
X57077429Y-27051000D01*
X57295143Y-27051000D01*
X57440286Y-27123571D01*
X57512857Y-27196143D01*
X57585429Y-27341286D01*
X57585429Y-27704143D01*
X57512857Y-27849286D01*
X57440286Y-27921857D01*
X57295143Y-27994429D01*
X56859715Y-27994429D01*
X56714572Y-27921857D01*
X56642000Y-27849286D01*
X76490286Y-26978429D02*
X76490286Y-27994429D01*
X76127429Y-26397857D02*
X75764572Y-27486429D01*
X76708000Y-27486429D01*
X95612857Y-26470429D02*
X94887143Y-26470429D01*
X94814572Y-27196143D01*
X94887143Y-27123571D01*
X95032286Y-27051000D01*
X95395143Y-27051000D01*
X95540286Y-27123571D01*
X95612857Y-27196143D01*
X95685429Y-27341286D01*
X95685429Y-27704143D01*
X95612857Y-27849286D01*
X95540286Y-27921857D01*
X95395143Y-27994429D01*
X95032286Y-27994429D01*
X94887143Y-27921857D01*
X94814572Y-27849286D01*
X114590286Y-26470429D02*
X114300000Y-26470429D01*
X114154857Y-26543000D01*
X114082286Y-26615571D01*
X113937143Y-26833286D01*
X113864572Y-27123571D01*
X113864572Y-27704143D01*
X113937143Y-27849286D01*
X114009715Y-27921857D01*
X114154857Y-27994429D01*
X114445143Y-27994429D01*
X114590286Y-27921857D01*
X114662857Y-27849286D01*
X114735429Y-27704143D01*
X114735429Y-27341286D01*
X114662857Y-27196143D01*
X114590286Y-27123571D01*
X114445143Y-27051000D01*
X114154857Y-27051000D01*
X114009715Y-27123571D01*
X113937143Y-27196143D01*
X113864572Y-27341286D01*
X132842000Y-26470429D02*
X133858000Y-26470429D01*
X133204857Y-27994429D01*
X152254857Y-27123571D02*
X152109715Y-27051000D01*
X152037143Y-26978429D01*
X151964572Y-26833286D01*
X151964572Y-26760714D01*
X152037143Y-26615571D01*
X152109715Y-26543000D01*
X152254857Y-26470429D01*
X152545143Y-26470429D01*
X152690286Y-26543000D01*
X152762857Y-26615571D01*
X152835429Y-26760714D01*
X152835429Y-26833286D01*
X152762857Y-26978429D01*
X152690286Y-27051000D01*
X152545143Y-27123571D01*
X152254857Y-27123571D01*
X152109715Y-27196143D01*
X152037143Y-27268714D01*
X151964572Y-27413857D01*
X151964572Y-27704143D01*
X152037143Y-27849286D01*
X152109715Y-27921857D01*
X152254857Y-27994429D01*
X152545143Y-27994429D01*
X152690286Y-27921857D01*
X152762857Y-27849286D01*
X152835429Y-27704143D01*
X152835429Y-27413857D01*
X152762857Y-27268714D01*
X152690286Y-27196143D01*
X152545143Y-27123571D01*
X171159715Y-27994429D02*
X171450000Y-27994429D01*
X171595143Y-27921857D01*
X171667715Y-27849286D01*
X171812857Y-27631571D01*
X171885429Y-27341286D01*
X171885429Y-26760714D01*
X171812857Y-26615571D01*
X171740286Y-26543000D01*
X171595143Y-26470429D01*
X171304857Y-26470429D01*
X171159715Y-26543000D01*
X171087143Y-26615571D01*
X171014572Y-26760714D01*
X171014572Y-27123571D01*
X171087143Y-27268714D01*
X171159715Y-27341286D01*
X171304857Y-27413857D01*
X171595143Y-27413857D01*
X171740286Y-27341286D01*
X171812857Y-27268714D01*
X171885429Y-27123571D01*
X190427429Y-26470429D02*
X190572572Y-26470429D01*
X190717715Y-26543000D01*
X190790286Y-26615571D01*
X190862857Y-26760714D01*
X190935429Y-27051000D01*
X190935429Y-27413857D01*
X190862857Y-27704143D01*
X190790286Y-27849286D01*
X190717715Y-27921857D01*
X190572572Y-27994429D01*
X190427429Y-27994429D01*
X190282286Y-27921857D01*
X190209715Y-27849286D01*
X190137143Y-27704143D01*
X190064572Y-27413857D01*
X190064572Y-27051000D01*
X190137143Y-26760714D01*
X190209715Y-26615571D01*
X190282286Y-26543000D01*
X190427429Y-26470429D01*
X208969429Y-27413857D02*
X210130572Y-27413857D01*
X228019429Y-27196143D02*
X229180572Y-27196143D01*
X229180572Y-27631571D02*
X228019429Y-27631571D01*
X251913571Y-27196143D02*
X252131285Y-27268714D01*
X252203857Y-27341286D01*
X252276428Y-27486429D01*
X252276428Y-27704143D01*
X252203857Y-27849286D01*
X252131285Y-27921857D01*
X251986143Y-27994429D01*
X251405571Y-27994429D01*
X251405571Y-26470429D01*
X251913571Y-26470429D01*
X252058714Y-26543000D01*
X252131285Y-26615571D01*
X252203857Y-26760714D01*
X252203857Y-26905857D01*
X252131285Y-27051000D01*
X252058714Y-27123571D01*
X251913571Y-27196143D01*
X251405571Y-27196143D01*
X253582714Y-27994429D02*
X253582714Y-27196143D01*
X253510143Y-27051000D01*
X253365000Y-26978429D01*
X253074714Y-26978429D01*
X252929571Y-27051000D01*
X253582714Y-27921857D02*
X253437571Y-27994429D01*
X253074714Y-27994429D01*
X252929571Y-27921857D01*
X252857000Y-27776714D01*
X252857000Y-27631571D01*
X252929571Y-27486429D01*
X253074714Y-27413857D01*
X253437571Y-27413857D01*
X253582714Y-27341286D01*
X254961571Y-27921857D02*
X254816428Y-27994429D01*
X254526142Y-27994429D01*
X254381000Y-27921857D01*
X254308428Y-27849286D01*
X254235857Y-27704143D01*
X254235857Y-27268714D01*
X254308428Y-27123571D01*
X254381000Y-27051000D01*
X254526142Y-26978429D01*
X254816428Y-26978429D01*
X254961571Y-27051000D01*
X255614714Y-27994429D02*
X255614714Y-26470429D01*
X255759857Y-27413857D02*
X256195286Y-27994429D01*
X256195286Y-26978429D02*
X255614714Y-27559000D01*
X256775857Y-27921857D02*
X256993571Y-27994429D01*
X257356428Y-27994429D01*
X257501571Y-27921857D01*
X257574142Y-27849286D01*
X257646714Y-27704143D01*
X257646714Y-27559000D01*
X257574142Y-27413857D01*
X257501571Y-27341286D01*
X257356428Y-27268714D01*
X257066142Y-27196143D01*
X256921000Y-27123571D01*
X256848428Y-27051000D01*
X256775857Y-26905857D01*
X256775857Y-26760714D01*
X256848428Y-26615571D01*
X256921000Y-26543000D01*
X257066142Y-26470429D01*
X257429000Y-26470429D01*
X257646714Y-26543000D01*
X258299857Y-26978429D02*
X258299857Y-28502429D01*
X258299857Y-27051000D02*
X258445000Y-26978429D01*
X258735286Y-26978429D01*
X258880429Y-27051000D01*
X258953000Y-27123571D01*
X259025571Y-27268714D01*
X259025571Y-27704143D01*
X258953000Y-27849286D01*
X258880429Y-27921857D01*
X258735286Y-27994429D01*
X258445000Y-27994429D01*
X258299857Y-27921857D01*
X260331857Y-27994429D02*
X260331857Y-27196143D01*
X260259286Y-27051000D01*
X260114143Y-26978429D01*
X259823857Y-26978429D01*
X259678714Y-27051000D01*
X260331857Y-27921857D02*
X260186714Y-27994429D01*
X259823857Y-27994429D01*
X259678714Y-27921857D01*
X259606143Y-27776714D01*
X259606143Y-27631571D01*
X259678714Y-27486429D01*
X259823857Y-27413857D01*
X260186714Y-27413857D01*
X260331857Y-27341286D01*
X261710714Y-27921857D02*
X261565571Y-27994429D01*
X261275285Y-27994429D01*
X261130143Y-27921857D01*
X261057571Y-27849286D01*
X260985000Y-27704143D01*
X260985000Y-27268714D01*
X261057571Y-27123571D01*
X261130143Y-27051000D01*
X261275285Y-26978429D01*
X261565571Y-26978429D01*
X261710714Y-27051000D01*
X262944429Y-27921857D02*
X262799286Y-27994429D01*
X262509000Y-27994429D01*
X262363857Y-27921857D01*
X262291286Y-27776714D01*
X262291286Y-27196143D01*
X262363857Y-27051000D01*
X262509000Y-26978429D01*
X262799286Y-26978429D01*
X262944429Y-27051000D01*
X263017000Y-27196143D01*
X263017000Y-27341286D01*
X262291286Y-27486429D01*
X282956000Y-27994429D02*
X282956000Y-26470429D01*
X282956000Y-27196143D02*
X283826857Y-27196143D01*
X283826857Y-27994429D02*
X283826857Y-26470429D01*
X284770285Y-27994429D02*
X284625143Y-27921857D01*
X284552571Y-27849286D01*
X284480000Y-27704143D01*
X284480000Y-27268714D01*
X284552571Y-27123571D01*
X284625143Y-27051000D01*
X284770285Y-26978429D01*
X284988000Y-26978429D01*
X285133143Y-27051000D01*
X285205714Y-27123571D01*
X285278285Y-27268714D01*
X285278285Y-27704143D01*
X285205714Y-27849286D01*
X285133143Y-27921857D01*
X284988000Y-27994429D01*
X284770285Y-27994429D01*
X285931428Y-27994429D02*
X285931428Y-26978429D01*
X285931428Y-27123571D02*
X286004000Y-27051000D01*
X286149142Y-26978429D01*
X286366857Y-26978429D01*
X286512000Y-27051000D01*
X286584571Y-27196143D01*
X286584571Y-27994429D01*
X286584571Y-27196143D02*
X286657142Y-27051000D01*
X286802285Y-26978429D01*
X287020000Y-26978429D01*
X287165142Y-27051000D01*
X287237714Y-27196143D01*
X287237714Y-27994429D01*
X288544000Y-27921857D02*
X288398857Y-27994429D01*
X288108571Y-27994429D01*
X287963428Y-27921857D01*
X287890857Y-27776714D01*
X287890857Y-27196143D01*
X287963428Y-27051000D01*
X288108571Y-26978429D01*
X288398857Y-26978429D01*
X288544000Y-27051000D01*
X288616571Y-27196143D01*
X288616571Y-27341286D01*
X287890857Y-27486429D01*
X2948215Y-45520429D02*
X3819072Y-45520429D01*
X3383643Y-47044429D02*
X3383643Y-45520429D01*
X4980215Y-47044429D02*
X4980215Y-46246143D01*
X4907644Y-46101000D01*
X4762501Y-46028429D01*
X4472215Y-46028429D01*
X4327072Y-46101000D01*
X4980215Y-46971857D02*
X4835072Y-47044429D01*
X4472215Y-47044429D01*
X4327072Y-46971857D01*
X4254501Y-46826714D01*
X4254501Y-46681571D01*
X4327072Y-46536429D01*
X4472215Y-46463857D01*
X4835072Y-46463857D01*
X4980215Y-46391286D01*
X5705929Y-47044429D02*
X5705929Y-45520429D01*
X5705929Y-46101000D02*
X5851072Y-46028429D01*
X6141358Y-46028429D01*
X6286501Y-46101000D01*
X6359072Y-46173571D01*
X6431643Y-46318714D01*
X6431643Y-46754143D01*
X6359072Y-46899286D01*
X6286501Y-46971857D01*
X6141358Y-47044429D01*
X5851072Y-47044429D01*
X5705929Y-46971857D01*
X29155572Y-47189571D02*
X29010429Y-47117000D01*
X28865286Y-46971857D01*
X28647572Y-46754143D01*
X28502429Y-46681571D01*
X28357286Y-46681571D01*
X28429858Y-47044429D02*
X28284715Y-46971857D01*
X28139572Y-46826714D01*
X28067001Y-46536429D01*
X28067001Y-46028429D01*
X28139572Y-45738143D01*
X28284715Y-45593000D01*
X28429858Y-45520429D01*
X28720144Y-45520429D01*
X28865286Y-45593000D01*
X29010429Y-45738143D01*
X29083001Y-46028429D01*
X29083001Y-46536429D01*
X29010429Y-46826714D01*
X28865286Y-46971857D01*
X28720144Y-47044429D01*
X28429858Y-47044429D01*
X46971857Y-45520429D02*
X47334714Y-47044429D01*
X47625000Y-45955857D01*
X47915286Y-47044429D01*
X48278143Y-45520429D01*
X66348429Y-46246143D02*
X66856429Y-46246143D01*
X67074143Y-47044429D02*
X66348429Y-47044429D01*
X66348429Y-45520429D01*
X67074143Y-45520429D01*
X86196714Y-47044429D02*
X85688714Y-46318714D01*
X85325857Y-47044429D02*
X85325857Y-45520429D01*
X85906429Y-45520429D01*
X86051571Y-45593000D01*
X86124143Y-45665571D01*
X86196714Y-45810714D01*
X86196714Y-46028429D01*
X86124143Y-46173571D01*
X86051571Y-46246143D01*
X85906429Y-46318714D01*
X85325857Y-46318714D01*
X104339572Y-45520429D02*
X105210429Y-45520429D01*
X104775000Y-47044429D02*
X104775000Y-45520429D01*
X123825000Y-46318714D02*
X123825000Y-47044429D01*
X123317000Y-45520429D02*
X123825000Y-46318714D01*
X124333000Y-45520429D01*
X142439572Y-45520429D02*
X142439572Y-46754143D01*
X142512144Y-46899286D01*
X142584715Y-46971857D01*
X142729858Y-47044429D01*
X143020144Y-47044429D01*
X143165286Y-46971857D01*
X143237858Y-46899286D01*
X143310429Y-46754143D01*
X143310429Y-45520429D01*
X161925000Y-47044429D02*
X161925000Y-45520429D01*
X180829858Y-45520429D02*
X181120144Y-45520429D01*
X181265286Y-45593000D01*
X181410429Y-45738143D01*
X181483001Y-46028429D01*
X181483001Y-46536429D01*
X181410429Y-46826714D01*
X181265286Y-46971857D01*
X181120144Y-47044429D01*
X180829858Y-47044429D01*
X180684715Y-46971857D01*
X180539572Y-46826714D01*
X180467001Y-46536429D01*
X180467001Y-46028429D01*
X180539572Y-45738143D01*
X180684715Y-45593000D01*
X180829858Y-45520429D01*
X199625857Y-47044429D02*
X199625857Y-45520429D01*
X200206429Y-45520429D01*
X200351571Y-45593000D01*
X200424143Y-45665571D01*
X200496714Y-45810714D01*
X200496714Y-46028429D01*
X200424143Y-46173571D01*
X200351571Y-46246143D01*
X200206429Y-46318714D01*
X199625857Y-46318714D01*
X219365286Y-47625000D02*
X219292714Y-47625000D01*
X219147571Y-47552429D01*
X219075000Y-47407286D01*
X219075000Y-46681571D01*
X219002429Y-46536429D01*
X218857286Y-46463857D01*
X219002429Y-46391286D01*
X219075000Y-46246143D01*
X219075000Y-45520429D01*
X219147571Y-45375286D01*
X219292714Y-45302714D01*
X219365286Y-45302714D01*
X237834714Y-47625000D02*
X237907286Y-47625000D01*
X238052429Y-47552429D01*
X238125000Y-47407286D01*
X238125000Y-46681571D01*
X238197571Y-46536429D01*
X238342714Y-46463857D01*
X238197571Y-46391286D01*
X238125000Y-46246143D01*
X238125000Y-45520429D01*
X238052429Y-45375286D01*
X237907286Y-45302714D01*
X237834714Y-45302714D01*
X261937500Y-47552429D02*
X261937500Y-45375286D01*
X283173715Y-47044429D02*
X283173715Y-45520429D01*
X283754287Y-45520429D01*
X283899429Y-45593000D01*
X283972001Y-45665571D01*
X284044572Y-45810714D01*
X284044572Y-46028429D01*
X283972001Y-46173571D01*
X283899429Y-46246143D01*
X283754287Y-46318714D01*
X283173715Y-46318714D01*
X285350858Y-46028429D02*
X285350858Y-47262143D01*
X285278287Y-47407286D01*
X285205715Y-47479857D01*
X285060572Y-47552429D01*
X284842858Y-47552429D01*
X284697715Y-47479857D01*
X285350858Y-46971857D02*
X285205715Y-47044429D01*
X284915429Y-47044429D01*
X284770287Y-46971857D01*
X284697715Y-46899286D01*
X284625144Y-46754143D01*
X284625144Y-46318714D01*
X284697715Y-46173571D01*
X284770287Y-46101000D01*
X284915429Y-46028429D01*
X285205715Y-46028429D01*
X285350858Y-46101000D01*
X286076572Y-45520429D02*
X286076572Y-46754143D01*
X286149144Y-46899286D01*
X286221715Y-46971857D01*
X286366858Y-47044429D01*
X286657144Y-47044429D01*
X286802286Y-46971857D01*
X286874858Y-46899286D01*
X286947429Y-46754143D01*
X286947429Y-45520429D01*
X287673143Y-46028429D02*
X287673143Y-47552429D01*
X287673143Y-46101000D02*
X287818286Y-46028429D01*
X288108572Y-46028429D01*
X288253715Y-46101000D01*
X288326286Y-46173571D01*
X288398857Y-46318714D01*
X288398857Y-46754143D01*
X288326286Y-46899286D01*
X288253715Y-46971857D01*
X288108572Y-47044429D01*
X287818286Y-47044429D01*
X287673143Y-46971857D01*
X5621020Y-65949286D02*
X5548449Y-66021857D01*
X5330735Y-66094429D01*
X5185592Y-66094429D01*
X4967877Y-66021857D01*
X4822735Y-65876714D01*
X4750163Y-65731571D01*
X4677592Y-65441286D01*
X4677592Y-65223571D01*
X4750163Y-64933286D01*
X4822735Y-64788143D01*
X4967877Y-64643000D01*
X5185592Y-64570429D01*
X5330735Y-64570429D01*
X5548449Y-64643000D01*
X5621020Y-64715571D01*
X6927306Y-66094429D02*
X6927306Y-65296143D01*
X6854735Y-65151000D01*
X6709592Y-65078429D01*
X6419306Y-65078429D01*
X6274163Y-65151000D01*
X6927306Y-66021857D02*
X6782163Y-66094429D01*
X6419306Y-66094429D01*
X6274163Y-66021857D01*
X6201592Y-65876714D01*
X6201592Y-65731571D01*
X6274163Y-65586429D01*
X6419306Y-65513857D01*
X6782163Y-65513857D01*
X6927306Y-65441286D01*
X7653020Y-65078429D02*
X7653020Y-66602429D01*
X7653020Y-65151000D02*
X7798163Y-65078429D01*
X8088449Y-65078429D01*
X8233592Y-65151000D01*
X8306163Y-65223571D01*
X8378734Y-65368714D01*
X8378734Y-65804143D01*
X8306163Y-65949286D01*
X8233592Y-66021857D01*
X8088449Y-66094429D01*
X7798163Y-66094429D01*
X7653020Y-66021857D01*
X8959306Y-66021857D02*
X9104449Y-66094429D01*
X9394734Y-66094429D01*
X9539877Y-66021857D01*
X9612449Y-65876714D01*
X9612449Y-65804143D01*
X9539877Y-65659000D01*
X9394734Y-65586429D01*
X9177020Y-65586429D01*
X9031877Y-65513857D01*
X8959306Y-65368714D01*
X8959306Y-65296143D01*
X9031877Y-65151000D01*
X9177020Y-65078429D01*
X9394734Y-65078429D01*
X9539877Y-65151000D01*
X32974643Y-65659000D02*
X33700357Y-65659000D01*
X32829500Y-66094429D02*
X33337500Y-64570429D01*
X33845500Y-66094429D01*
X51952072Y-66021857D02*
X52169786Y-66094429D01*
X52532643Y-66094429D01*
X52677786Y-66021857D01*
X52750357Y-65949286D01*
X52822929Y-65804143D01*
X52822929Y-65659000D01*
X52750357Y-65513857D01*
X52677786Y-65441286D01*
X52532643Y-65368714D01*
X52242357Y-65296143D01*
X52097215Y-65223571D01*
X52024643Y-65151000D01*
X51952072Y-65005857D01*
X51952072Y-64860714D01*
X52024643Y-64715571D01*
X52097215Y-64643000D01*
X52242357Y-64570429D01*
X52605215Y-64570429D01*
X52822929Y-64643000D01*
X71038357Y-66094429D02*
X71038357Y-64570429D01*
X71401214Y-64570429D01*
X71618929Y-64643000D01*
X71764071Y-64788143D01*
X71836643Y-64933286D01*
X71909214Y-65223571D01*
X71909214Y-65441286D01*
X71836643Y-65731571D01*
X71764071Y-65876714D01*
X71618929Y-66021857D01*
X71401214Y-66094429D01*
X71038357Y-66094429D01*
X90705214Y-65296143D02*
X90197214Y-65296143D01*
X90197214Y-66094429D02*
X90197214Y-64570429D01*
X90922928Y-64570429D01*
X109936643Y-64643000D02*
X109791500Y-64570429D01*
X109573786Y-64570429D01*
X109356071Y-64643000D01*
X109210929Y-64788143D01*
X109138357Y-64933286D01*
X109065786Y-65223571D01*
X109065786Y-65441286D01*
X109138357Y-65731571D01*
X109210929Y-65876714D01*
X109356071Y-66021857D01*
X109573786Y-66094429D01*
X109718929Y-66094429D01*
X109936643Y-66021857D01*
X110009214Y-65949286D01*
X110009214Y-65441286D01*
X109718929Y-65441286D01*
X128152072Y-66094429D02*
X128152072Y-64570429D01*
X128152072Y-65296143D02*
X129022929Y-65296143D01*
X129022929Y-66094429D02*
X129022929Y-64570429D01*
X147855215Y-64570429D02*
X147855215Y-65659000D01*
X147782643Y-65876714D01*
X147637500Y-66021857D01*
X147419786Y-66094429D01*
X147274643Y-66094429D01*
X166288357Y-66094429D02*
X166288357Y-64570429D01*
X167159214Y-66094429D02*
X166506071Y-65223571D01*
X167159214Y-64570429D02*
X166288357Y-65441286D01*
X186209214Y-66094429D02*
X185483500Y-66094429D01*
X185483500Y-64570429D01*
X204860072Y-66021857D02*
X204860072Y-66094429D01*
X204787500Y-66239571D01*
X204714929Y-66312143D01*
X204787500Y-65151000D02*
X204860072Y-65223571D01*
X204787500Y-65296143D01*
X204714929Y-65223571D01*
X204787500Y-65151000D01*
X204787500Y-65296143D01*
X223910072Y-64570429D02*
X223764929Y-64860714D01*
X252218734Y-65296143D02*
X252726734Y-65296143D01*
X252944448Y-66094429D02*
X252218734Y-66094429D01*
X252218734Y-64570429D01*
X252944448Y-64570429D01*
X253597591Y-65078429D02*
X253597591Y-66094429D01*
X253597591Y-65223571D02*
X253670163Y-65151000D01*
X253815305Y-65078429D01*
X254033020Y-65078429D01*
X254178163Y-65151000D01*
X254250734Y-65296143D01*
X254250734Y-66094429D01*
X254758734Y-65078429D02*
X255339305Y-65078429D01*
X254976448Y-64570429D02*
X254976448Y-65876714D01*
X255049020Y-66021857D01*
X255194162Y-66094429D01*
X255339305Y-66094429D01*
X256427877Y-66021857D02*
X256282734Y-66094429D01*
X255992448Y-66094429D01*
X255847305Y-66021857D01*
X255774734Y-65876714D01*
X255774734Y-65296143D01*
X255847305Y-65151000D01*
X255992448Y-65078429D01*
X256282734Y-65078429D01*
X256427877Y-65151000D01*
X256500448Y-65296143D01*
X256500448Y-65441286D01*
X255774734Y-65586429D01*
X257153591Y-66094429D02*
X257153591Y-65078429D01*
X257153591Y-65368714D02*
X257226163Y-65223571D01*
X257298734Y-65151000D01*
X257443877Y-65078429D01*
X257589020Y-65078429D01*
X283210000Y-66094429D02*
X283210000Y-64570429D01*
X283790572Y-64570429D01*
X283935714Y-64643000D01*
X284008286Y-64715571D01*
X284080857Y-64860714D01*
X284080857Y-65078429D01*
X284008286Y-65223571D01*
X283935714Y-65296143D01*
X283790572Y-65368714D01*
X283210000Y-65368714D01*
X285387143Y-65078429D02*
X285387143Y-66312143D01*
X285314572Y-66457286D01*
X285242000Y-66529857D01*
X285096857Y-66602429D01*
X284879143Y-66602429D01*
X284734000Y-66529857D01*
X285387143Y-66021857D02*
X285242000Y-66094429D01*
X284951714Y-66094429D01*
X284806572Y-66021857D01*
X284734000Y-65949286D01*
X284661429Y-65804143D01*
X284661429Y-65368714D01*
X284734000Y-65223571D01*
X284806572Y-65151000D01*
X284951714Y-65078429D01*
X285242000Y-65078429D01*
X285387143Y-65151000D01*
X286112857Y-66094429D02*
X286112857Y-64570429D01*
X286475714Y-64570429D01*
X286693429Y-64643000D01*
X286838571Y-64788143D01*
X286911143Y-64933286D01*
X286983714Y-65223571D01*
X286983714Y-65441286D01*
X286911143Y-65731571D01*
X286838571Y-65876714D01*
X286693429Y-66021857D01*
X286475714Y-66094429D01*
X286112857Y-66094429D01*
X287636857Y-65078429D02*
X287636857Y-66094429D01*
X287636857Y-65223571D02*
X287709429Y-65151000D01*
X287854571Y-65078429D01*
X288072286Y-65078429D01*
X288217429Y-65151000D01*
X288290000Y-65296143D01*
X288290000Y-66094429D01*
X9729107Y-85144429D02*
X9003393Y-85144429D01*
X9003393Y-83620429D01*
X10164536Y-85071857D02*
X10382250Y-85144429D01*
X10745107Y-85144429D01*
X10890250Y-85071857D01*
X10962821Y-84999286D01*
X11035393Y-84854143D01*
X11035393Y-84709000D01*
X10962821Y-84563857D01*
X10890250Y-84491286D01*
X10745107Y-84418714D01*
X10454821Y-84346143D01*
X10309679Y-84273571D01*
X10237107Y-84201000D01*
X10164536Y-84055857D01*
X10164536Y-83910714D01*
X10237107Y-83765571D01*
X10309679Y-83693000D01*
X10454821Y-83620429D01*
X10817679Y-83620429D01*
X11035393Y-83693000D01*
X11688536Y-85144429D02*
X11688536Y-83620429D01*
X12341679Y-85144429D02*
X12341679Y-84346143D01*
X12269108Y-84201000D01*
X12123965Y-84128429D01*
X11906250Y-84128429D01*
X11761108Y-84201000D01*
X11688536Y-84273571D01*
X13067393Y-85144429D02*
X13067393Y-84128429D01*
X13067393Y-83620429D02*
X12994822Y-83693000D01*
X13067393Y-83765571D01*
X13139965Y-83693000D01*
X13067393Y-83620429D01*
X13067393Y-83765571D01*
X13575393Y-84128429D02*
X14155964Y-84128429D01*
X13793107Y-85144429D02*
X13793107Y-83838143D01*
X13865679Y-83693000D01*
X14010821Y-83620429D01*
X14155964Y-83620429D01*
X14446250Y-84128429D02*
X15026821Y-84128429D01*
X14663964Y-83620429D02*
X14663964Y-84926714D01*
X14736536Y-85071857D01*
X14881678Y-85144429D01*
X15026821Y-85144429D01*
X42354500Y-83620429D02*
X43370500Y-83620429D01*
X42354500Y-85144429D01*
X43370500Y-85144429D01*
X61404500Y-83620429D02*
X62420500Y-85144429D01*
X62420500Y-83620429D02*
X61404500Y-85144429D01*
X81434214Y-84999286D02*
X81361643Y-85071857D01*
X81143929Y-85144429D01*
X80998786Y-85144429D01*
X80781071Y-85071857D01*
X80635929Y-84926714D01*
X80563357Y-84781571D01*
X80490786Y-84491286D01*
X80490786Y-84273571D01*
X80563357Y-83983286D01*
X80635929Y-83838143D01*
X80781071Y-83693000D01*
X80998786Y-83620429D01*
X81143929Y-83620429D01*
X81361643Y-83693000D01*
X81434214Y-83765571D01*
X99504500Y-83620429D02*
X100012500Y-85144429D01*
X100520500Y-83620429D01*
X119171357Y-84346143D02*
X119389071Y-84418714D01*
X119461643Y-84491286D01*
X119534214Y-84636429D01*
X119534214Y-84854143D01*
X119461643Y-84999286D01*
X119389071Y-85071857D01*
X119243929Y-85144429D01*
X118663357Y-85144429D01*
X118663357Y-83620429D01*
X119171357Y-83620429D01*
X119316500Y-83693000D01*
X119389071Y-83765571D01*
X119461643Y-83910714D01*
X119461643Y-84055857D01*
X119389071Y-84201000D01*
X119316500Y-84273571D01*
X119171357Y-84346143D01*
X118663357Y-84346143D01*
X137677072Y-85144429D02*
X137677072Y-83620429D01*
X138547929Y-85144429D01*
X138547929Y-83620429D01*
X156654500Y-85144429D02*
X156654500Y-83620429D01*
X157162500Y-84709000D01*
X157670500Y-83620429D01*
X157670500Y-85144429D01*
X176285072Y-85071857D02*
X176285072Y-85144429D01*
X176212500Y-85289571D01*
X176139929Y-85362143D01*
X195262500Y-84999286D02*
X195335072Y-85071857D01*
X195262500Y-85144429D01*
X195189929Y-85071857D01*
X195262500Y-84999286D01*
X195262500Y-85144429D01*
X214965644Y-83547857D02*
X213659358Y-85507286D01*
X238329107Y-85144429D02*
X237821107Y-84418714D01*
X237458250Y-85144429D02*
X237458250Y-83620429D01*
X238038822Y-83620429D01*
X238183964Y-83693000D01*
X238256536Y-83765571D01*
X238329107Y-83910714D01*
X238329107Y-84128429D01*
X238256536Y-84273571D01*
X238183964Y-84346143D01*
X238038822Y-84418714D01*
X237458250Y-84418714D01*
X238909679Y-85071857D02*
X239127393Y-85144429D01*
X239490250Y-85144429D01*
X239635393Y-85071857D01*
X239707964Y-84999286D01*
X239780536Y-84854143D01*
X239780536Y-84709000D01*
X239707964Y-84563857D01*
X239635393Y-84491286D01*
X239490250Y-84418714D01*
X239199964Y-84346143D01*
X239054822Y-84273571D01*
X238982250Y-84201000D01*
X238909679Y-84055857D01*
X238909679Y-83910714D01*
X238982250Y-83765571D01*
X239054822Y-83693000D01*
X239199964Y-83620429D01*
X239562822Y-83620429D01*
X239780536Y-83693000D01*
X240433679Y-85144429D02*
X240433679Y-83620429D01*
X241086822Y-85144429D02*
X241086822Y-84346143D01*
X241014251Y-84201000D01*
X240869108Y-84128429D01*
X240651393Y-84128429D01*
X240506251Y-84201000D01*
X240433679Y-84273571D01*
X241812536Y-85144429D02*
X241812536Y-84128429D01*
X241812536Y-83620429D02*
X241739965Y-83693000D01*
X241812536Y-83765571D01*
X241885108Y-83693000D01*
X241812536Y-83620429D01*
X241812536Y-83765571D01*
X242320536Y-84128429D02*
X242901107Y-84128429D01*
X242538250Y-85144429D02*
X242538250Y-83838143D01*
X242610822Y-83693000D01*
X242755964Y-83620429D01*
X242901107Y-83620429D01*
X243191393Y-84128429D02*
X243771964Y-84128429D01*
X243409107Y-83620429D02*
X243409107Y-84926714D01*
X243481679Y-85071857D01*
X243626821Y-85144429D01*
X243771964Y-85144429D01*
X265575143Y-83620429D02*
X265575143Y-84854143D01*
X265647715Y-84999286D01*
X265720286Y-85071857D01*
X265865429Y-85144429D01*
X266155715Y-85144429D01*
X266300857Y-85071857D01*
X266373429Y-84999286D01*
X266446000Y-84854143D01*
X266446000Y-83620429D01*
X267171714Y-84128429D02*
X267171714Y-85652429D01*
X267171714Y-84201000D02*
X267316857Y-84128429D01*
X267607143Y-84128429D01*
X267752286Y-84201000D01*
X267824857Y-84273571D01*
X267897428Y-84418714D01*
X267897428Y-84854143D01*
X267824857Y-84999286D01*
X267752286Y-85071857D01*
X267607143Y-85144429D01*
X267316857Y-85144429D01*
X267171714Y-85071857D01*
X284044572Y-84346143D02*
X284552572Y-84346143D01*
X284770286Y-85144429D02*
X284044572Y-85144429D01*
X284044572Y-83620429D01*
X284770286Y-83620429D01*
X285423429Y-84128429D02*
X285423429Y-85144429D01*
X285423429Y-84273571D02*
X285496001Y-84201000D01*
X285641143Y-84128429D01*
X285858858Y-84128429D01*
X286004001Y-84201000D01*
X286076572Y-84346143D01*
X286076572Y-85144429D01*
X287455429Y-85144429D02*
X287455429Y-83620429D01*
X287455429Y-85071857D02*
X287310286Y-85144429D01*
X287020000Y-85144429D01*
X286874858Y-85071857D01*
X286802286Y-84999286D01*
X286729715Y-84854143D01*
X286729715Y-84418714D01*
X286802286Y-84273571D01*
X286874858Y-84201000D01*
X287020000Y-84128429D01*
X287310286Y-84128429D01*
X287455429Y-84201000D01*
X785948Y-104194429D02*
X60234Y-104194429D01*
X60234Y-102670429D01*
X2164805Y-104049286D02*
X2092234Y-104121857D01*
X1874520Y-104194429D01*
X1729377Y-104194429D01*
X1511662Y-104121857D01*
X1366520Y-103976714D01*
X1293948Y-103831571D01*
X1221377Y-103541286D01*
X1221377Y-103323571D01*
X1293948Y-103033286D01*
X1366520Y-102888143D01*
X1511662Y-102743000D01*
X1729377Y-102670429D01*
X1874520Y-102670429D01*
X2092234Y-102743000D01*
X2164805Y-102815571D01*
X2600234Y-103178429D02*
X3180805Y-103178429D01*
X2817948Y-102670429D02*
X2817948Y-103976714D01*
X2890520Y-104121857D01*
X3035662Y-104194429D01*
X3180805Y-104194429D01*
X3688805Y-104194429D02*
X3688805Y-103178429D01*
X3688805Y-103468714D02*
X3761377Y-103323571D01*
X3833948Y-103251000D01*
X3979091Y-103178429D01*
X4124234Y-103178429D01*
X4849948Y-104194429D02*
X4704806Y-104121857D01*
X4632234Y-103976714D01*
X4632234Y-102670429D01*
X24743592Y-104194429D02*
X24017878Y-104194429D01*
X24017878Y-102670429D01*
X25106449Y-102670429D02*
X25469306Y-104194429D01*
X25759592Y-103105857D01*
X26049878Y-104194429D01*
X26412735Y-102670429D01*
X26993306Y-104194429D02*
X26993306Y-103178429D01*
X26993306Y-102670429D02*
X26920735Y-102743000D01*
X26993306Y-102815571D01*
X27065878Y-102743000D01*
X26993306Y-102670429D01*
X26993306Y-102815571D01*
X27719020Y-103178429D02*
X27719020Y-104194429D01*
X27719020Y-103323571D02*
X27791592Y-103251000D01*
X27936734Y-103178429D01*
X28154449Y-103178429D01*
X28299592Y-103251000D01*
X28372163Y-103396143D01*
X28372163Y-104194429D01*
X48991520Y-104194429D02*
X48265806Y-104194429D01*
X48265806Y-102670429D01*
X49426949Y-103759000D02*
X50152663Y-103759000D01*
X49281806Y-104194429D02*
X49789806Y-102670429D01*
X50297806Y-104194429D01*
X51023520Y-104194429D02*
X50878378Y-104121857D01*
X50805806Y-103976714D01*
X50805806Y-102670429D01*
X51386378Y-103178429D02*
X51966949Y-103178429D01*
X51604092Y-102670429D02*
X51604092Y-103976714D01*
X51676664Y-104121857D01*
X51821806Y-104194429D01*
X51966949Y-104194429D01*
X118324449Y-104121857D02*
X118542163Y-104194429D01*
X118905020Y-104194429D01*
X119050163Y-104121857D01*
X119122734Y-104049286D01*
X119195306Y-103904143D01*
X119195306Y-103759000D01*
X119122734Y-103613857D01*
X119050163Y-103541286D01*
X118905020Y-103468714D01*
X118614734Y-103396143D01*
X118469592Y-103323571D01*
X118397020Y-103251000D01*
X118324449Y-103105857D01*
X118324449Y-102960714D01*
X118397020Y-102815571D01*
X118469592Y-102743000D01*
X118614734Y-102670429D01*
X118977592Y-102670429D01*
X119195306Y-102743000D01*
X119848449Y-103178429D02*
X119848449Y-104702429D01*
X119848449Y-103251000D02*
X119993592Y-103178429D01*
X120283878Y-103178429D01*
X120429021Y-103251000D01*
X120501592Y-103323571D01*
X120574163Y-103468714D01*
X120574163Y-103904143D01*
X120501592Y-104049286D01*
X120429021Y-104121857D01*
X120283878Y-104194429D01*
X119993592Y-104194429D01*
X119848449Y-104121857D01*
X121880449Y-104194429D02*
X121880449Y-103396143D01*
X121807878Y-103251000D01*
X121662735Y-103178429D01*
X121372449Y-103178429D01*
X121227306Y-103251000D01*
X121880449Y-104121857D02*
X121735306Y-104194429D01*
X121372449Y-104194429D01*
X121227306Y-104121857D01*
X121154735Y-103976714D01*
X121154735Y-103831571D01*
X121227306Y-103686429D01*
X121372449Y-103613857D01*
X121735306Y-103613857D01*
X121880449Y-103541286D01*
X123259306Y-104121857D02*
X123114163Y-104194429D01*
X122823877Y-104194429D01*
X122678735Y-104121857D01*
X122606163Y-104049286D01*
X122533592Y-103904143D01*
X122533592Y-103468714D01*
X122606163Y-103323571D01*
X122678735Y-103251000D01*
X122823877Y-103178429D01*
X123114163Y-103178429D01*
X123259306Y-103251000D01*
X124493021Y-104121857D02*
X124347878Y-104194429D01*
X124057592Y-104194429D01*
X123912449Y-104121857D01*
X123839878Y-103976714D01*
X123839878Y-103396143D01*
X123912449Y-103251000D01*
X124057592Y-103178429D01*
X124347878Y-103178429D01*
X124493021Y-103251000D01*
X124565592Y-103396143D01*
X124565592Y-103541286D01*
X123839878Y-103686429D01*
X189484000Y-104194429D02*
X188976000Y-103468714D01*
X188613143Y-104194429D02*
X188613143Y-102670429D01*
X189193715Y-102670429D01*
X189338857Y-102743000D01*
X189411429Y-102815571D01*
X189484000Y-102960714D01*
X189484000Y-103178429D01*
X189411429Y-103323571D01*
X189338857Y-103396143D01*
X189193715Y-103468714D01*
X188613143Y-103468714D01*
X190064572Y-103759000D02*
X190790286Y-103759000D01*
X189919429Y-104194429D02*
X190427429Y-102670429D01*
X190935429Y-104194429D01*
X191661143Y-104194429D02*
X191516001Y-104121857D01*
X191443429Y-103976714D01*
X191443429Y-102670429D01*
X192024001Y-103178429D02*
X192604572Y-103178429D01*
X192241715Y-102670429D02*
X192241715Y-103976714D01*
X192314287Y-104121857D01*
X192459429Y-104194429D01*
X192604572Y-104194429D01*
X209078286Y-103396143D02*
X208570286Y-103396143D01*
X208570286Y-104194429D02*
X208570286Y-102670429D01*
X209296000Y-102670429D01*
X209876572Y-103178429D02*
X209876572Y-104194429D01*
X209876572Y-103323571D02*
X209949144Y-103251000D01*
X210094286Y-103178429D01*
X210312001Y-103178429D01*
X210457144Y-103251000D01*
X210529715Y-103396143D01*
X210529715Y-104194429D01*
X227003428Y-104194429D02*
X226495428Y-103468714D01*
X226132571Y-104194429D02*
X226132571Y-102670429D01*
X226713143Y-102670429D01*
X226858285Y-102743000D01*
X226930857Y-102815571D01*
X227003428Y-102960714D01*
X227003428Y-103178429D01*
X226930857Y-103323571D01*
X226858285Y-103396143D01*
X226713143Y-103468714D01*
X226132571Y-103468714D01*
X228527428Y-104049286D02*
X228454857Y-104121857D01*
X228237143Y-104194429D01*
X228092000Y-104194429D01*
X227874285Y-104121857D01*
X227729143Y-103976714D01*
X227656571Y-103831571D01*
X227584000Y-103541286D01*
X227584000Y-103323571D01*
X227656571Y-103033286D01*
X227729143Y-102888143D01*
X227874285Y-102743000D01*
X228092000Y-102670429D01*
X228237143Y-102670429D01*
X228454857Y-102743000D01*
X228527428Y-102815571D01*
X228962857Y-103178429D02*
X229543428Y-103178429D01*
X229180571Y-102670429D02*
X229180571Y-103976714D01*
X229253143Y-104121857D01*
X229398285Y-104194429D01*
X229543428Y-104194429D01*
X230051428Y-104194429D02*
X230051428Y-103178429D01*
X230051428Y-103468714D02*
X230124000Y-103323571D01*
X230196571Y-103251000D01*
X230341714Y-103178429D01*
X230486857Y-103178429D01*
X231212571Y-104194429D02*
X231067429Y-104121857D01*
X230994857Y-103976714D01*
X230994857Y-102670429D01*
X246597714Y-104194429D02*
X245872000Y-104194429D01*
X245872000Y-102670429D01*
X247686286Y-104121857D02*
X247541143Y-104194429D01*
X247250857Y-104194429D01*
X247105714Y-104121857D01*
X247033143Y-103976714D01*
X247033143Y-103396143D01*
X247105714Y-103251000D01*
X247250857Y-103178429D01*
X247541143Y-103178429D01*
X247686286Y-103251000D01*
X247758857Y-103396143D01*
X247758857Y-103541286D01*
X247033143Y-103686429D01*
X248194286Y-103178429D02*
X248774857Y-103178429D01*
X248412000Y-104194429D02*
X248412000Y-102888143D01*
X248484572Y-102743000D01*
X248629714Y-102670429D01*
X248774857Y-102670429D01*
X249065143Y-103178429D02*
X249645714Y-103178429D01*
X249282857Y-102670429D02*
X249282857Y-103976714D01*
X249355429Y-104121857D01*
X249500571Y-104194429D01*
X249645714Y-104194429D01*
X264123715Y-104194429D02*
X264123715Y-102670429D01*
X264486572Y-102670429D01*
X264704287Y-102743000D01*
X264849429Y-102888143D01*
X264922001Y-103033286D01*
X264994572Y-103323571D01*
X264994572Y-103541286D01*
X264922001Y-103831571D01*
X264849429Y-103976714D01*
X264704287Y-104121857D01*
X264486572Y-104194429D01*
X264123715Y-104194429D01*
X265865429Y-104194429D02*
X265720287Y-104121857D01*
X265647715Y-104049286D01*
X265575144Y-103904143D01*
X265575144Y-103468714D01*
X265647715Y-103323571D01*
X265720287Y-103251000D01*
X265865429Y-103178429D01*
X266083144Y-103178429D01*
X266228287Y-103251000D01*
X266300858Y-103323571D01*
X266373429Y-103468714D01*
X266373429Y-103904143D01*
X266300858Y-104049286D01*
X266228287Y-104121857D01*
X266083144Y-104194429D01*
X265865429Y-104194429D01*
X266881429Y-103178429D02*
X267171715Y-104194429D01*
X267462001Y-103468714D01*
X267752286Y-104194429D01*
X268042572Y-103178429D01*
X268623143Y-103178429D02*
X268623143Y-104194429D01*
X268623143Y-103323571D02*
X268695715Y-103251000D01*
X268840857Y-103178429D01*
X269058572Y-103178429D01*
X269203715Y-103251000D01*
X269276286Y-103396143D01*
X269276286Y-104194429D01*
X284044572Y-104194429D02*
X283536572Y-103468714D01*
X283173715Y-104194429D02*
X283173715Y-102670429D01*
X283754287Y-102670429D01*
X283899429Y-102743000D01*
X283972001Y-102815571D01*
X284044572Y-102960714D01*
X284044572Y-103178429D01*
X283972001Y-103323571D01*
X283899429Y-103396143D01*
X283754287Y-103468714D01*
X283173715Y-103468714D01*
X284697715Y-104194429D02*
X284697715Y-103178429D01*
X284697715Y-102670429D02*
X284625144Y-102743000D01*
X284697715Y-102815571D01*
X284770287Y-102743000D01*
X284697715Y-102670429D01*
X284697715Y-102815571D01*
X286076572Y-103178429D02*
X286076572Y-104412143D01*
X286004001Y-104557286D01*
X285931429Y-104629857D01*
X285786286Y-104702429D01*
X285568572Y-104702429D01*
X285423429Y-104629857D01*
X286076572Y-104121857D02*
X285931429Y-104194429D01*
X285641143Y-104194429D01*
X285496001Y-104121857D01*
X285423429Y-104049286D01*
X285350858Y-103904143D01*
X285350858Y-103468714D01*
X285423429Y-103323571D01*
X285496001Y-103251000D01*
X285641143Y-103178429D01*
X285931429Y-103178429D01*
X286076572Y-103251000D01*
X286802286Y-104194429D02*
X286802286Y-102670429D01*
X287455429Y-104194429D02*
X287455429Y-103396143D01*
X287382858Y-103251000D01*
X287237715Y-103178429D01*
X287020000Y-103178429D01*
X286874858Y-103251000D01*
X286802286Y-103323571D01*
X287963429Y-103178429D02*
X288544000Y-103178429D01*
X288181143Y-102670429D02*
X288181143Y-103976714D01*
X288253715Y-104121857D01*
X288398857Y-104194429D01*
X288544000Y-104194429D01*
M02*
