M48
;DRILL file {KiCad 4.0.1-stable} date 2/13/2016 10:11:52 PM
;FORMAT={-:-/ absolute / inch / decimal}
FMAT,2
INCH,TZ
T1C0.016
T2C0.035
T3C0.059
T4C0.067
T5C0.098
T6C0.120
T7C0.157
T8C0.161
%
G90
G05
M72
T1
X-0.195Y-0.185
X-0.055Y-0.405
X0.065Y-1.045
X0.155Y-0.505
X0.155Y-0.645
X0.2934Y0.1172
X0.355Y-0.965
X0.355Y-1.045
X0.435Y-0.405
X0.445Y-1.425
X0.445Y-4.095
X0.665Y-1.475
X1.2125Y-2.45
X1.525Y-2.455
X1.775Y-2.365
X1.775Y-2.535
X2.125Y-3.285
X2.155Y-3.165
X2.425Y-1.085
X2.425Y-2.605
X2.435Y-3.155
X2.485Y-2.835
X2.525Y-3.855
X2.545Y-3.765
X2.565Y-4.035
X2.585Y-2.785
X2.595Y-2.565
X2.625Y-3.475
X2.695Y-3.325
X2.735Y-3.615
X2.775Y-3.845
X2.825Y-3.735
X2.865Y-3.315
X2.935Y-2.855
X2.935Y-3.615
X2.955Y-3.315
X2.965Y-3.975
X2.965Y-4.075
X3.015Y-3.095
X3.035Y-2.675
X3.045Y-3.735
X3.055Y-3.685
X3.065Y-3.465
X3.075Y-3.825
X3.095Y-3.905
X3.105Y-3.795
X3.125Y-4.055
X3.135Y-3.655
X3.155Y-2.615
X3.185Y-3.585
X3.195Y-3.915
X3.225Y-3.135
X3.255Y-2.055
X3.275Y-3.685
X3.295Y-3.805
X3.305Y-2.835
X3.335Y-3.645
X3.3375Y-3.1
X3.345Y-3.305
X3.345Y-3.915
X3.355Y-3.585
X3.355Y-3.775
X3.365Y-3.425
X3.365Y-3.465
X3.375Y-2.835
X3.375Y-3.805
X3.385Y-3.255
X3.415Y-3.175
X3.415Y-3.425
X3.42Y-3.622
X3.42Y-3.748
X3.425Y-3.505
X3.425Y-3.655
X3.465Y-3.555
X3.515Y-3.365
X3.519Y-3.91
X3.525Y-1.805
X3.525Y-3.715
X3.525Y-3.815
X3.545Y-3.215
X3.555Y-3.555
X3.555Y-3.625
X3.555Y-3.745
X3.565Y-3.845
X3.585Y-3.775
X3.585Y-4.075
X3.615Y-3.885
X3.645Y-4.045
X3.655Y-3.405
X3.675Y-3.975
X3.6765Y-3.5435
X3.715Y-2.595
X3.715Y-3.125
X3.715Y-3.685
X3.715Y-4.035
X3.735Y-3.355
X3.735Y-3.515
X3.735Y-3.745
X3.745Y-3.595
X3.771Y-3.91
X3.795Y-3.535
X3.795Y-3.715
X3.8025Y-3.91
X3.805Y-3.845
X3.815Y-3.585
X3.835Y-3.285
X3.845Y-3.925
X3.865Y-4.075
X3.8708Y-3.41
X3.885Y-3.715
X3.895Y-0.275
X3.895Y-0.985
X3.895Y-3.925
X3.9Y-0.1
X3.9Y-0.85
X3.925Y-3.295
X3.925Y-3.655
X3.935Y-3.565
X3.935Y-4.005
X3.965Y-3.945
X3.9692Y-3.41
X3.9746Y-3.4654
X3.975Y-3.515
X3.975Y-4.095
X3.995Y-3.585
X4.015Y-3.165
X4.025Y-3.475
X4.045Y-3.845
X4.065Y-3.485
X4.075Y-3.335
X4.075Y-3.655
X4.085Y-3.395
X4.085Y-3.925
X4.0942Y-3.585
X4.155Y-3.625
X4.165Y-3.275
X4.165Y-3.845
X4.175Y-3.175
X4.195Y-3.225
X4.195Y-3.535
X4.245Y-3.585
X4.265Y-3.505
X4.265Y-3.735
X4.295Y-2.925
X4.295Y-3.065
X4.355Y-3.385
X4.435Y-3.295
X4.465Y-3.505
X4.475Y-3.195
X4.605Y-3.525
X4.665Y-3.825
X4.725Y-3.885
X4.995Y-3.285
X5.405Y-4.095
X6.145Y-2.675
X6.535Y-4.005
X6.7Y-1.7875
X6.795Y-3.785
X6.835Y-3.655
X6.925Y-3.565
X7.1Y-1.0375
X8.595Y-4.065
X9.455Y-3.555
X10.195Y-3.505
X10.645Y-2.835
X11.595Y-3.625
X11.595Y-4.045
T2
X0.2698Y0.2098
X0.443Y0.2098
T3
X-0.1Y-0.2
X-0.1Y-0.95
X-0.0062Y-3.95
X0.0875Y-1.7
X0.15Y-0.1
X0.15Y-0.85
X0.1813Y-2.45
X0.2438Y-3.85
X0.3375Y-1.6
X0.3687Y-3.2
X0.4313Y-2.35
X0.6188Y-3.1
X0.65Y-0.2
X0.65Y-0.95
X0.9Y-0.1
X0.9Y-0.85
X0.9313Y-3.95
X1.025Y-1.7
X1.1813Y-3.85
X1.2125Y-2.45
X1.275Y-1.6
X1.4Y-0.2
X1.4Y-0.95
X1.4625Y-2.35
X1.5875Y-3.2
X1.65Y-0.1
X1.65Y-0.85
X1.775Y-1.7
X1.8375Y-3.1
X1.8688Y-3.95
X1.9625Y-2.45
X2.025Y-1.6
X2.1188Y-3.85
X2.15Y-0.2
X2.15Y-0.95
X2.2125Y-2.35
X2.3375Y-3.2
X2.4Y-0.1
X2.4Y-0.85
X2.525Y-1.7
X2.5875Y-3.1
X2.7125Y-2.45
X2.775Y-1.6
X2.9Y-0.2
X2.9Y-0.95
X2.9625Y-2.35
X3.0875Y-3.2
X3.15Y-0.1
X3.15Y-0.85
X3.275Y-1.7
X3.3375Y-3.1
X3.4625Y-2.45
X3.525Y-1.6
X3.65Y-0.2
X3.65Y-0.95
X3.7125Y-2.35
X3.8375Y-3.2
X3.9Y-0.1
X3.9Y-0.85
X4.025Y-1.7
X4.0875Y-3.1
X4.2125Y-2.45
X4.275Y-1.6
X4.4Y-0.2
X4.4Y-0.95
X4.4625Y-2.35
X4.5875Y-3.2
X4.65Y-0.1
X4.65Y-0.85
X4.6813Y-3.95
X4.775Y-1.7
X4.8375Y-3.1
X4.9313Y-3.85
X4.9625Y-2.45
X5.025Y-1.6
X5.15Y-0.2
X5.15Y-0.95
X5.2125Y-2.35
X5.3375Y-3.2
X5.4Y-0.1
X5.4Y-0.85
X5.525Y-1.7
X5.5875Y-3.1
X5.7125Y-2.45
X5.775Y-1.6
X5.9Y-0.2
X5.9Y-0.95
X5.9625Y-2.35
X6.0875Y-3.2
X6.15Y-0.1
X6.15Y-0.85
X6.275Y-1.7
X6.3375Y-3.1
X6.4625Y-2.45
X6.525Y-1.6
X6.65Y-0.2
X6.65Y-0.95
X6.7125Y-2.35
X6.8375Y-3.2
X6.9Y-0.1
X6.9Y-0.85
X7.025Y-1.7
X7.0875Y-3.1
X7.2125Y-2.45
X7.275Y-1.6
X7.4Y-0.2
X7.4Y-0.95
X7.4Y-3.95
X7.4625Y-2.35
X7.5875Y-3.2
X7.65Y-0.1
X7.65Y-0.85
X7.65Y-3.85
X7.775Y-1.7
X7.8375Y-3.1
X7.9625Y-2.45
X8.025Y-1.6
X8.15Y-0.2
X8.15Y-0.95
X8.15Y-3.95
X8.2125Y-2.35
X8.3375Y-3.2
X8.4Y-0.1
X8.4Y-0.85
X8.4Y-3.85
X8.525Y-1.7
X8.5875Y-3.1
X8.7125Y-2.45
X8.775Y-1.6
X8.9Y-0.2
X8.9Y-0.95
X8.9Y-3.95
X8.9625Y-2.35
X9.15Y-0.1
X9.15Y-0.85
X9.15Y-3.85
X9.275Y-1.7
X9.3688Y-3.2
X9.525Y-1.6
X9.6188Y-3.1
X9.65Y-0.2
X9.65Y-3.95
X9.9Y-0.1
X9.9Y-3.85
X9.9313Y-2.45
X10.025Y-0.95
X10.1813Y-2.35
X10.2125Y-1.7
X10.275Y-0.85
X10.4Y-0.2
X10.4Y-3.2
X10.4Y-3.95
X10.4625Y-1.6
X10.65Y-0.1
X10.65Y-3.1
X10.65Y-3.85
X11.15Y-0.2
X11.15Y-0.95
X11.15Y-1.7
X11.15Y-2.45
X11.15Y-3.2
X11.15Y-3.95
X11.4Y-0.1
X11.4Y-0.85
X11.4Y-1.6
X11.4Y-2.35
X11.4Y-3.1
X11.4Y-3.85
T4
X-0.2Y0.
X-0.2Y-0.75
X-0.1062Y-3.75
X-0.0125Y-1.5
X0.0813Y-2.25
X0.2Y0.
X0.2Y-0.75
X0.2687Y-3.
X0.2938Y-3.75
X0.3875Y-1.5
X0.4813Y-2.25
X0.55Y0.
X0.55Y-0.75
X0.6687Y-3.
X0.8313Y-3.75
X0.925Y-1.5
X0.95Y0.
X0.95Y-0.75
X1.1125Y-2.25
X1.2313Y-3.75
X1.3Y0.
X1.3Y-0.75
X1.325Y-1.5
X1.4875Y-3.
X1.5125Y-2.25
X1.675Y-1.5
X1.7Y0.
X1.7Y-0.75
X1.7688Y-3.75
X1.8625Y-2.25
X1.8875Y-3.
X2.05Y0.
X2.05Y-0.75
X2.075Y-1.5
X2.1688Y-3.75
X2.2375Y-3.
X2.2625Y-2.25
X2.425Y-1.5
X2.45Y0.
X2.45Y-0.75
X2.6125Y-2.25
X2.6375Y-3.
X2.8Y0.
X2.8Y-0.75
X2.825Y-1.5
X2.9875Y-3.
X3.0125Y-2.25
X3.175Y-1.5
X3.2Y0.
X3.2Y-0.75
X3.3625Y-2.25
X3.3875Y-3.
X3.55Y0.
X3.55Y-0.75
X3.575Y-1.5
X3.7375Y-3.
X3.7625Y-2.25
X3.925Y-1.5
X3.95Y0.
X3.95Y-0.75
X4.1125Y-2.25
X4.1375Y-3.
X4.3Y0.
X4.3Y-0.75
X4.325Y-1.5
X4.4875Y-3.
X4.5125Y-2.25
X4.5813Y-3.75
X4.675Y-1.5
X4.7Y0.
X4.7Y-0.75
X4.8625Y-2.25
X4.8875Y-3.
X4.9813Y-3.75
X5.05Y0.
X5.05Y-0.75
X5.075Y-1.5
X5.2375Y-3.
X5.2625Y-2.25
X5.425Y-1.5
X5.45Y0.
X5.45Y-0.75
X5.6125Y-2.25
X5.6375Y-3.
X5.8Y0.
X5.8Y-0.75
X5.825Y-1.5
X5.9875Y-3.
X6.0125Y-2.25
X6.175Y-1.5
X6.2Y0.
X6.2Y-0.75
X6.3625Y-2.25
X6.3875Y-3.
X6.55Y0.
X6.55Y-0.75
X6.575Y-1.5
X6.7375Y-3.
X6.7625Y-2.25
X6.925Y-1.5
X6.95Y0.
X6.95Y-0.75
X7.1125Y-2.25
X7.1375Y-3.
X7.3Y0.
X7.3Y-0.75
X7.3Y-3.75
X7.325Y-1.5
X7.4875Y-3.
X7.5125Y-2.25
X7.675Y-1.5
X7.7Y0.
X7.7Y-0.75
X7.7Y-3.75
X7.8625Y-2.25
X7.8875Y-3.
X8.05Y0.
X8.05Y-0.75
X8.05Y-3.75
X8.075Y-1.5
X8.2375Y-3.
X8.2625Y-2.25
X8.425Y-1.5
X8.45Y0.
X8.45Y-0.75
X8.45Y-3.75
X8.6125Y-2.25
X8.6375Y-3.
X8.8Y0.
X8.8Y-0.75
X8.8Y-3.75
X8.825Y-1.5
X9.0125Y-2.25
X9.175Y-1.5
X9.2Y0.
X9.2Y-0.75
X9.2Y-3.75
X9.2687Y-3.
X9.55Y0.
X9.55Y-3.75
X9.575Y-1.5
X9.6687Y-3.
X9.8313Y-2.25
X9.925Y-0.75
X9.95Y0.
X9.95Y-3.75
X10.1125Y-1.5
X10.2313Y-2.25
X10.3Y0.
X10.3Y-3.
X10.3Y-3.75
X10.325Y-0.75
X10.5125Y-1.5
X10.7Y0.
X10.7Y-3.
X10.7Y-3.75
X11.05Y0.
X11.05Y-0.75
X11.05Y-1.5
X11.05Y-2.25
X11.05Y-3.
X11.05Y-3.75
X11.45Y0.
X11.45Y-0.75
X11.45Y-1.5
X11.45Y-2.25
X11.45Y-3.
X11.45Y-3.75
T6
X0.Y-2.725
X0.9375Y-2.725
X2.8113Y-4.0263
X6.7513Y-4.0263
X9.5625Y-1.975
X9.6563Y-0.475
X10.5Y-1.975
X10.5938Y-0.475
T7
X0.Y-3.325
X0.9375Y-3.325
X2.8113Y-3.4263
X6.7513Y-3.4263
X9.5625Y-2.575
X9.6563Y-1.075
X10.5Y-2.575
X10.5938Y-1.075
T8
X0.Y0.
X0.Y-0.75
X0.0938Y-3.75
X0.1875Y-1.5
X0.2813Y-2.25
X0.4688Y-3.
X0.75Y0.
X0.75Y-0.75
X1.0313Y-3.75
X1.125Y-1.5
X1.3125Y-2.25
X1.5Y0.
X1.5Y-0.75
X1.6875Y-3.
X1.875Y-1.5
X1.9688Y-3.75
X2.0625Y-2.25
X2.25Y0.
X2.25Y-0.75
X2.4375Y-3.
X2.625Y-1.5
X2.8125Y-2.25
X3.Y0.
X3.Y-0.75
X3.1875Y-3.
X3.375Y-1.5
X3.5625Y-2.25
X3.75Y0.
X3.75Y-0.75
X3.9375Y-3.
X4.125Y-1.5
X4.3125Y-2.25
X4.5Y0.
X4.5Y-0.75
X4.6875Y-3.
X4.7813Y-3.75
X4.875Y-1.5
X5.0625Y-2.25
X5.25Y0.
X5.25Y-0.75
X5.4375Y-3.
X5.625Y-1.5
X5.8125Y-2.25
X6.Y0.
X6.Y-0.75
X6.1875Y-3.
X6.375Y-1.5
X6.5625Y-2.25
X6.75Y0.
X6.75Y-0.75
X6.9375Y-3.
X7.125Y-1.5
X7.3125Y-2.25
X7.5Y0.
X7.5Y-0.75
X7.5Y-3.75
X7.6875Y-3.
X7.875Y-1.5
X8.0625Y-2.25
X8.25Y0.
X8.25Y-0.75
X8.25Y-3.75
X8.4375Y-3.
X8.625Y-1.5
X8.8125Y-2.25
X9.Y0.
X9.Y-0.75
X9.Y-3.75
X9.375Y-1.5
X9.4688Y-3.
X9.75Y0.
X9.75Y-3.75
X10.0313Y-2.25
X10.125Y-0.75
X10.3125Y-1.5
X10.5Y0.
X10.5Y-3.
X10.5Y-3.75
X11.25Y0.
X11.25Y-0.75
X11.25Y-1.5
X11.25Y-2.25
X11.25Y-3.
X11.25Y-3.75
T5
X-0.3936Y-2.055G85X-0.2164Y-2.055
G05
X11.5264Y-2.055G85X11.7036Y-2.055
G05
T0
M30
